%TF.GenerationSoftware,KiCad,Pcbnew,10.0.6*%
%TF.CreationDate,2026-09-13T12:30:45+08:00*%
%TF.ProjectId,MFI-Pi4-MiniHat,4d46492d-5069-4342-9d4d-696e69486174,rev?*%
%TF.SameCoordinates,Original*%
%TF.FileFunction,Legend,Top*%
%TF.FilePolarity,Positive*%
%FSLAX46Y46*%
G04 Gerber Fmt 4.6, Leading zero omitted, Abs format (unit mm)*
G04 Created by KiCad (PCBNEW 10.0.6) date 2026-09-13 12:30:45*
%MOMM*%
%LPD*%
G01*
G04 APERTURE LIST*
%ADD10C,0.120000*%
%ADD11C,0.250000*%
%ADD12C,0.200000*%
%ADD13C,0.275000*%
G04 APERTURE END LIST*
D10*
X2683333Y-2817593D02*
X2683333Y-2117593D01*
X2683333Y-2117593D02*
X2950000Y-2117593D01*
X2950000Y-2117593D02*
X3016667Y-2150926D01*
X3016667Y-2150926D02*
X3050000Y-2184260D01*
X3050000Y-2184260D02*
X3083333Y-2250926D01*
X3083333Y-2250926D02*
X3083333Y-2350926D01*
X3083333Y-2350926D02*
X3050000Y-2417593D01*
X3050000Y-2417593D02*
X3016667Y-2450926D01*
X3016667Y-2450926D02*
X2950000Y-2484260D01*
X2950000Y-2484260D02*
X2683333Y-2484260D01*
X3383333Y-2817593D02*
X3383333Y-2117593D01*
X3716666Y-2817593D02*
X3716666Y-2117593D01*
X3716666Y-2117593D02*
X4116666Y-2817593D01*
X4116666Y-2817593D02*
X4116666Y-2117593D01*
X5349999Y-2817593D02*
X4949999Y-2817593D01*
X5149999Y-2817593D02*
X5149999Y-2117593D01*
X5149999Y-2117593D02*
X5083332Y-2217593D01*
X5083332Y-2217593D02*
X5016666Y-2284260D01*
X5016666Y-2284260D02*
X4949999Y-2317593D01*
X13342857Y-12163855D02*
X13342857Y-11363855D01*
X13342857Y-11363855D02*
X13609523Y-11935283D01*
X13609523Y-11935283D02*
X13876190Y-11363855D01*
X13876190Y-11363855D02*
X13876190Y-12163855D01*
X14523809Y-11744807D02*
X14257143Y-11744807D01*
X14257143Y-12163855D02*
X14257143Y-11363855D01*
X14257143Y-11363855D02*
X14638095Y-11363855D01*
X14942857Y-12163855D02*
X14942857Y-11630521D01*
X14942857Y-11363855D02*
X14904761Y-11401950D01*
X14904761Y-11401950D02*
X14942857Y-11440045D01*
X14942857Y-11440045D02*
X14980952Y-11401950D01*
X14980952Y-11401950D02*
X14942857Y-11363855D01*
X14942857Y-11363855D02*
X14942857Y-11440045D01*
X15895237Y-11935283D02*
X16276190Y-11935283D01*
X15819047Y-12163855D02*
X16085714Y-11363855D01*
X16085714Y-11363855D02*
X16352380Y-12163855D01*
X16961904Y-11630521D02*
X16961904Y-12163855D01*
X16619047Y-11630521D02*
X16619047Y-12049569D01*
X16619047Y-12049569D02*
X16657142Y-12125760D01*
X16657142Y-12125760D02*
X16733332Y-12163855D01*
X16733332Y-12163855D02*
X16847618Y-12163855D01*
X16847618Y-12163855D02*
X16923809Y-12125760D01*
X16923809Y-12125760D02*
X16961904Y-12087664D01*
X17228571Y-11630521D02*
X17533333Y-11630521D01*
X17342857Y-11363855D02*
X17342857Y-12049569D01*
X17342857Y-12049569D02*
X17380952Y-12125760D01*
X17380952Y-12125760D02*
X17457142Y-12163855D01*
X17457142Y-12163855D02*
X17533333Y-12163855D01*
X17800000Y-12163855D02*
X17800000Y-11363855D01*
X18142857Y-12163855D02*
X18142857Y-11744807D01*
X18142857Y-11744807D02*
X18104762Y-11668617D01*
X18104762Y-11668617D02*
X18028571Y-11630521D01*
X18028571Y-11630521D02*
X17914285Y-11630521D01*
X17914285Y-11630521D02*
X17838095Y-11668617D01*
X17838095Y-11668617D02*
X17800000Y-11706712D01*
X19057143Y-11363855D02*
X19552381Y-11363855D01*
X19552381Y-11363855D02*
X19285715Y-11668617D01*
X19285715Y-11668617D02*
X19400000Y-11668617D01*
X19400000Y-11668617D02*
X19476191Y-11706712D01*
X19476191Y-11706712D02*
X19514286Y-11744807D01*
X19514286Y-11744807D02*
X19552381Y-11820998D01*
X19552381Y-11820998D02*
X19552381Y-12011474D01*
X19552381Y-12011474D02*
X19514286Y-12087664D01*
X19514286Y-12087664D02*
X19476191Y-12125760D01*
X19476191Y-12125760D02*
X19400000Y-12163855D01*
X19400000Y-12163855D02*
X19171429Y-12163855D01*
X19171429Y-12163855D02*
X19095238Y-12125760D01*
X19095238Y-12125760D02*
X19057143Y-12087664D01*
X19895239Y-12087664D02*
X19933334Y-12125760D01*
X19933334Y-12125760D02*
X19895239Y-12163855D01*
X19895239Y-12163855D02*
X19857143Y-12125760D01*
X19857143Y-12125760D02*
X19895239Y-12087664D01*
X19895239Y-12087664D02*
X19895239Y-12163855D01*
X20428572Y-11363855D02*
X20504762Y-11363855D01*
X20504762Y-11363855D02*
X20580953Y-11401950D01*
X20580953Y-11401950D02*
X20619048Y-11440045D01*
X20619048Y-11440045D02*
X20657143Y-11516236D01*
X20657143Y-11516236D02*
X20695238Y-11668617D01*
X20695238Y-11668617D02*
X20695238Y-11859093D01*
X20695238Y-11859093D02*
X20657143Y-12011474D01*
X20657143Y-12011474D02*
X20619048Y-12087664D01*
X20619048Y-12087664D02*
X20580953Y-12125760D01*
X20580953Y-12125760D02*
X20504762Y-12163855D01*
X20504762Y-12163855D02*
X20428572Y-12163855D01*
X20428572Y-12163855D02*
X20352381Y-12125760D01*
X20352381Y-12125760D02*
X20314286Y-12087664D01*
X20314286Y-12087664D02*
X20276191Y-12011474D01*
X20276191Y-12011474D02*
X20238095Y-11859093D01*
X20238095Y-11859093D02*
X20238095Y-11668617D01*
X20238095Y-11668617D02*
X20276191Y-11516236D01*
X20276191Y-11516236D02*
X20314286Y-11440045D01*
X20314286Y-11440045D02*
X20352381Y-11401950D01*
X20352381Y-11401950D02*
X20428572Y-11363855D01*
%TO.C,J1*%
D11*
X3700000Y-3700000D02*
X8840000Y-3700000D01*
X8840000Y-11380000D01*
X3700000Y-11380000D01*
X3700000Y-3700000D01*
D12*
X4500000Y-4200000D02*
G75*
G02*
X3900000Y-4200000I-300000J0D01*
G01*
X3900000Y-4200000D02*
G75*
G02*
X4500000Y-4200000I300000J0D01*
G01*
%TO.C,U1*%
X14100000Y-6250000D02*
X14100000Y-6450000D01*
X14100000Y-6250000D02*
X14300000Y-6250000D01*
D13*
X14087500Y-6750000D02*
G75*
G02*
X13812500Y-6750000I-137500J0D01*
G01*
X13812500Y-6750000D02*
G75*
G02*
X14087500Y-6750000I137500J0D01*
G01*
%TD*%
M02*
