%TF.GenerationSoftware,KiCad,Pcbnew,10.0.6*%
%TF.CreationDate,2026-09-13T12:30:45+08:00*%
%TF.ProjectId,MFI-Pi4-MiniHat,4d46492d-5069-4342-9d4d-696e69486174,rev?*%
%TF.SameCoordinates,Original*%
%TF.FileFunction,Copper,L2,Bot*%
%TF.FilePolarity,Positive*%
%FSLAX46Y46*%
G04 Gerber Fmt 4.6, Leading zero omitted, Abs format (unit mm)*
G04 Created by KiCad (PCBNEW 10.0.6) date 2026-09-13 12:30:45*
%MOMM*%
%LPD*%
G01*
G04 APERTURE LIST*
%TA.AperFunction,ComponentPad*%
%ADD10R,1.800000X1.800000*%
%TD*%
%TA.AperFunction,ComponentPad*%
%ADD11C,1.800000*%
%TD*%
%TA.AperFunction,ViaPad*%
%ADD12C,0.700000*%
%TD*%
%TA.AperFunction,ViaPad*%
%ADD13C,0.600000*%
%TD*%
%TA.AperFunction,Conductor*%
%ADD14C,0.300000*%
%TD*%
G04 APERTURE END LIST*
D10*
%TO.P,J1,1*%
%TO.N,+3V3*%
X5000000Y-5000000D03*
D11*
%TO.P,J1,2*%
%TO.N,N/C*%
X7540000Y-5000000D03*
%TO.P,J1,3*%
%TO.N,SDA*%
X5000000Y-7540000D03*
%TO.P,J1,4*%
%TO.N,N/C*%
X7540000Y-7540000D03*
%TO.P,J1,5*%
%TO.N,SCL*%
X5000000Y-10080000D03*
%TO.P,J1,6*%
%TO.N,GND*%
X7540000Y-10080000D03*
%TD*%
D12*
%TO.N,SDA*%
X18800000Y-9200000D03*
X13500000Y-3700000D03*
D13*
%TO.N,GND*%
X13500000Y-8250000D03*
X13500000Y-6750000D03*
X16000000Y-7500000D03*
X20300000Y-4500000D03*
D12*
%TO.N,SCL*%
X20500000Y-7750000D03*
X13500000Y-12200000D03*
X9000000Y-12200000D03*
%TD*%
%TO.N,SDA*%
D14*
X3400000Y-3700000D02*
X18800000Y-3700000D01*
X18800000Y-3700000D02*
X18800000Y-9200000D01*
X3400000Y-7540000D02*
X3400000Y-3700000D01*
X5000000Y-7540000D02*
X3400000Y-7540000D01*
%TO.N,SCL*%
X20500000Y-12500000D02*
X20500000Y-7750000D01*
X5000000Y-12500000D02*
X20500000Y-12500000D01*
X5000000Y-10080000D02*
X5000000Y-12500000D01*
%TD*%
%TA.AperFunction,Conductor*%
%TO.N,GND*%
G36*
X21442539Y-2020185D02*
G01*
X21488294Y-2072989D01*
X21499500Y-2124500D01*
X21499500Y-12875500D01*
X21479815Y-12942539D01*
X21427011Y-12988294D01*
X21375500Y-12999500D01*
X20866255Y-12999500D01*
X20799216Y-12979815D01*
X20753461Y-12927011D01*
X20743517Y-12857853D01*
X20772542Y-12794297D01*
X20778574Y-12787819D01*
X20820480Y-12745913D01*
X20873207Y-12654587D01*
X20900500Y-12552727D01*
X20900500Y-8250098D01*
X20920185Y-8183059D01*
X20936819Y-8162417D01*
X20956242Y-8142994D01*
X20980520Y-8118716D01*
X21059577Y-7981784D01*
X21100500Y-7829057D01*
X21100500Y-7670943D01*
X21059577Y-7518216D01*
X21045488Y-7493813D01*
X20980524Y-7381290D01*
X20980518Y-7381282D01*
X20868717Y-7269481D01*
X20868709Y-7269475D01*
X20731790Y-7190426D01*
X20731786Y-7190424D01*
X20731784Y-7190423D01*
X20579057Y-7149500D01*
X20420943Y-7149500D01*
X20268216Y-7190423D01*
X20268209Y-7190426D01*
X20131290Y-7269475D01*
X20131282Y-7269481D01*
X20019481Y-7381282D01*
X20019475Y-7381290D01*
X19940426Y-7518209D01*
X19940423Y-7518216D01*
X19899500Y-7670943D01*
X19899500Y-7829057D01*
X19940384Y-7981636D01*
X19940423Y-7981783D01*
X19940426Y-7981790D01*
X20019475Y-8118709D01*
X20019481Y-8118717D01*
X20063181Y-8162417D01*
X20096666Y-8223740D01*
X20099500Y-8250098D01*
X20099500Y-11975500D01*
X20079815Y-12042539D01*
X20027011Y-12088294D01*
X19975500Y-12099500D01*
X14189903Y-12099500D01*
X14122864Y-12079815D01*
X14077109Y-12027011D01*
X14070128Y-12007594D01*
X14059577Y-11968216D01*
X14059573Y-11968209D01*
X13980524Y-11831290D01*
X13980518Y-11831282D01*
X13868717Y-11719481D01*
X13868709Y-11719475D01*
X13731790Y-11640426D01*
X13731786Y-11640424D01*
X13731784Y-11640423D01*
X13579057Y-11599500D01*
X13420943Y-11599500D01*
X13268216Y-11640423D01*
X13268209Y-11640426D01*
X13131290Y-11719475D01*
X13131282Y-11719481D01*
X13019481Y-11831282D01*
X13019475Y-11831290D01*
X12940426Y-11968209D01*
X12940423Y-11968214D01*
X12929872Y-12007594D01*
X12893506Y-12067254D01*
X12830659Y-12097783D01*
X12810097Y-12099500D01*
X9689903Y-12099500D01*
X9622864Y-12079815D01*
X9577109Y-12027011D01*
X9570128Y-12007594D01*
X9559577Y-11968216D01*
X9559573Y-11968209D01*
X9480524Y-11831290D01*
X9480518Y-11831282D01*
X9368717Y-11719481D01*
X9368709Y-11719475D01*
X9231790Y-11640426D01*
X9231786Y-11640424D01*
X9231784Y-11640423D01*
X9079057Y-11599500D01*
X8920943Y-11599500D01*
X8768216Y-11640423D01*
X8768209Y-11640426D01*
X8631290Y-11719475D01*
X8631282Y-11719481D01*
X8519481Y-11831282D01*
X8519475Y-11831290D01*
X8440426Y-11968209D01*
X8440423Y-11968214D01*
X8429872Y-12007594D01*
X8393506Y-12067254D01*
X8330659Y-12097783D01*
X8310097Y-12099500D01*
X5524500Y-12099500D01*
X5457461Y-12079815D01*
X5411706Y-12027011D01*
X5400500Y-11975500D01*
X5400500Y-11243159D01*
X5420185Y-11176120D01*
X5468202Y-11132675D01*
X5602994Y-11063996D01*
X5749501Y-10957553D01*
X5877553Y-10829501D01*
X5983996Y-10682994D01*
X6066211Y-10521639D01*
X6122171Y-10349409D01*
X6122467Y-10347539D01*
X6122777Y-10346885D01*
X6123307Y-10344678D01*
X6123770Y-10344789D01*
X6152390Y-10284404D01*
X6211698Y-10247468D01*
X6281561Y-10248460D01*
X6339797Y-10287065D01*
X6367414Y-10347528D01*
X6369548Y-10361004D01*
X6427914Y-10540637D01*
X6513666Y-10708933D01*
X6591627Y-10816239D01*
X7096329Y-10311538D01*
X7139901Y-10387007D01*
X7232993Y-10480099D01*
X7308460Y-10523670D01*
X6803759Y-11028370D01*
X6803759Y-11028371D01*
X6911066Y-11106333D01*
X7079362Y-11192085D01*
X7258997Y-11250451D01*
X7445553Y-11280000D01*
X7634447Y-11280000D01*
X7821002Y-11250451D01*
X8000637Y-11192085D01*
X8168940Y-11106329D01*
X8276239Y-11028373D01*
X8276240Y-11028371D01*
X7771538Y-10523670D01*
X7847007Y-10480099D01*
X7940099Y-10387007D01*
X7983670Y-10311538D01*
X8488371Y-10816240D01*
X8488373Y-10816239D01*
X8566329Y-10708940D01*
X8652085Y-10540637D01*
X8710451Y-10361002D01*
X8740000Y-10174447D01*
X8740000Y-9985552D01*
X8710451Y-9798997D01*
X8652085Y-9619362D01*
X8566333Y-9451066D01*
X8488371Y-9343759D01*
X8488370Y-9343759D01*
X7983670Y-9848460D01*
X7940099Y-9772993D01*
X7847007Y-9679901D01*
X7771538Y-9636329D01*
X8276239Y-9131627D01*
X8168933Y-9053666D01*
X8000637Y-8967914D01*
X7821004Y-8909548D01*
X7807528Y-8907414D01*
X7744394Y-8877483D01*
X7707464Y-8818171D01*
X7708464Y-8748308D01*
X7747075Y-8690076D01*
X7804778Y-8663727D01*
X7804678Y-8663307D01*
X7806832Y-8662789D01*
X7807539Y-8662467D01*
X7809409Y-8662171D01*
X7981639Y-8606211D01*
X8142994Y-8523996D01*
X8289501Y-8417553D01*
X8417553Y-8289501D01*
X8523996Y-8142994D01*
X8606211Y-7981639D01*
X8662171Y-7809409D01*
X8680357Y-7694586D01*
X8690500Y-7630551D01*
X8690500Y-7449448D01*
X8674019Y-7345397D01*
X8662171Y-7270591D01*
X8606211Y-7098361D01*
X8606211Y-7098360D01*
X8577740Y-7042484D01*
X8523996Y-6937006D01*
X8462227Y-6851988D01*
X8417558Y-6790505D01*
X8417554Y-6790500D01*
X8289499Y-6662445D01*
X8289494Y-6662441D01*
X8142997Y-6556006D01*
X8142996Y-6556005D01*
X8142994Y-6556004D01*
X8091300Y-6529664D01*
X7981639Y-6473788D01*
X7981636Y-6473787D01*
X7809410Y-6417829D01*
X7649321Y-6392473D01*
X7586186Y-6362544D01*
X7549255Y-6303232D01*
X7550253Y-6233370D01*
X7588863Y-6175137D01*
X7649321Y-6147527D01*
X7722323Y-6135964D01*
X7809409Y-6122171D01*
X7981639Y-6066211D01*
X8142994Y-5983996D01*
X8289501Y-5877553D01*
X8417553Y-5749501D01*
X8523996Y-5602994D01*
X8606211Y-5441639D01*
X8662171Y-5269409D01*
X8679954Y-5157131D01*
X8690500Y-5090551D01*
X8690500Y-4909448D01*
X8674019Y-4805397D01*
X8662171Y-4730591D01*
X8606211Y-4558361D01*
X8606211Y-4558360D01*
X8577740Y-4502484D01*
X8523996Y-4397006D01*
X8453880Y-4300499D01*
X8451618Y-4297385D01*
X8428138Y-4231579D01*
X8443964Y-4163525D01*
X8494069Y-4114830D01*
X8551936Y-4100500D01*
X12999902Y-4100500D01*
X13066941Y-4120185D01*
X13087583Y-4136819D01*
X13131284Y-4180520D01*
X13131286Y-4180521D01*
X13131290Y-4180524D01*
X13238026Y-4242147D01*
X13268216Y-4259577D01*
X13420943Y-4300500D01*
X13420945Y-4300500D01*
X13579055Y-4300500D01*
X13579057Y-4300500D01*
X13731784Y-4259577D01*
X13868716Y-4180520D01*
X13912417Y-4136819D01*
X13973740Y-4103334D01*
X14000098Y-4100500D01*
X18275500Y-4100500D01*
X18342539Y-4120185D01*
X18388294Y-4172989D01*
X18399500Y-4224500D01*
X18399500Y-8699902D01*
X18379815Y-8766941D01*
X18363181Y-8787583D01*
X18319481Y-8831282D01*
X18319475Y-8831290D01*
X18240426Y-8968209D01*
X18240423Y-8968216D01*
X18199500Y-9120943D01*
X18199500Y-9279057D01*
X18213286Y-9330505D01*
X18240423Y-9431783D01*
X18240426Y-9431790D01*
X18319475Y-9568709D01*
X18319479Y-9568714D01*
X18319480Y-9568716D01*
X18431284Y-9680520D01*
X18431286Y-9680521D01*
X18431290Y-9680524D01*
X18568209Y-9759573D01*
X18568216Y-9759577D01*
X18720943Y-9800500D01*
X18720945Y-9800500D01*
X18879055Y-9800500D01*
X18879057Y-9800500D01*
X19031784Y-9759577D01*
X19168716Y-9680520D01*
X19280520Y-9568716D01*
X19359577Y-9431784D01*
X19400500Y-9279057D01*
X19400500Y-9120943D01*
X19359577Y-8968216D01*
X19337225Y-8929500D01*
X19280524Y-8831290D01*
X19280518Y-8831282D01*
X19236819Y-8787583D01*
X19203334Y-8726260D01*
X19200500Y-8699902D01*
X19200500Y-3647275D01*
X19200500Y-3647273D01*
X19173207Y-3545413D01*
X19120480Y-3454087D01*
X19045913Y-3379520D01*
X18954587Y-3326793D01*
X18852727Y-3299500D01*
X18852726Y-3299500D01*
X14000098Y-3299500D01*
X13933059Y-3279815D01*
X13912417Y-3263181D01*
X13868717Y-3219481D01*
X13868709Y-3219475D01*
X13731790Y-3140426D01*
X13731786Y-3140424D01*
X13731784Y-3140423D01*
X13579057Y-3099500D01*
X13420943Y-3099500D01*
X13268216Y-3140423D01*
X13268209Y-3140426D01*
X13131290Y-3219475D01*
X13131282Y-3219481D01*
X13087583Y-3263181D01*
X13026260Y-3296666D01*
X12999902Y-3299500D01*
X3347273Y-3299500D01*
X3245413Y-3326793D01*
X3245410Y-3326794D01*
X3154085Y-3379521D01*
X3079521Y-3454085D01*
X3026794Y-3545410D01*
X3026793Y-3545413D01*
X2999500Y-3647273D01*
X2999500Y-7487273D01*
X2999500Y-7592727D01*
X3026793Y-7694587D01*
X3079520Y-7785913D01*
X3154087Y-7860480D01*
X3245413Y-7913207D01*
X3347273Y-7940500D01*
X3836840Y-7940500D01*
X3903879Y-7960185D01*
X3947325Y-8008205D01*
X4003634Y-8118717D01*
X4016006Y-8142997D01*
X4122441Y-8289494D01*
X4122445Y-8289499D01*
X4250500Y-8417554D01*
X4250505Y-8417558D01*
X4378287Y-8510396D01*
X4397006Y-8523996D01*
X4502484Y-8577740D01*
X4558360Y-8606211D01*
X4558363Y-8606212D01*
X4644476Y-8634191D01*
X4730591Y-8662171D01*
X4803639Y-8673740D01*
X4890678Y-8687527D01*
X4953813Y-8717456D01*
X4990744Y-8776768D01*
X4989746Y-8846631D01*
X4951136Y-8904863D01*
X4890678Y-8932473D01*
X4730589Y-8957829D01*
X4558363Y-9013787D01*
X4558360Y-9013788D01*
X4397002Y-9096006D01*
X4250505Y-9202441D01*
X4250500Y-9202445D01*
X4122445Y-9330500D01*
X4122441Y-9330505D01*
X4016006Y-9477002D01*
X3933788Y-9638360D01*
X3933787Y-9638363D01*
X3877829Y-9810589D01*
X3849500Y-9989448D01*
X3849500Y-10170551D01*
X3877829Y-10349410D01*
X3933787Y-10521636D01*
X3933788Y-10521639D01*
X4016006Y-10682997D01*
X4122441Y-10829494D01*
X4122445Y-10829499D01*
X4250500Y-10957554D01*
X4250505Y-10957558D01*
X4397001Y-11063993D01*
X4397003Y-11063994D01*
X4397006Y-11063996D01*
X4531796Y-11132675D01*
X4582591Y-11180648D01*
X4599500Y-11243159D01*
X4599500Y-12552726D01*
X4626793Y-12654586D01*
X4626794Y-12654589D01*
X4679521Y-12745914D01*
X4721426Y-12787819D01*
X4754911Y-12849142D01*
X4749927Y-12918834D01*
X4708055Y-12974767D01*
X4642591Y-12999184D01*
X4633745Y-12999500D01*
X2624500Y-12999500D01*
X2557461Y-12979815D01*
X2511706Y-12927011D01*
X2500500Y-12875500D01*
X2500500Y-2124500D01*
X2520185Y-2057461D01*
X2572989Y-2011706D01*
X2624500Y-2000500D01*
X21375500Y-2000500D01*
X21442539Y-2020185D01*
G37*
%TD.AperFunction*%
%TA.AperFunction,Conductor*%
G36*
X6306630Y-7550253D02*
G01*
X6364863Y-7588863D01*
X6392473Y-7649321D01*
X6417829Y-7809410D01*
X6473787Y-7981636D01*
X6473788Y-7981639D01*
X6556006Y-8142997D01*
X6662441Y-8289494D01*
X6662445Y-8289499D01*
X6790500Y-8417554D01*
X6790505Y-8417558D01*
X6918287Y-8510396D01*
X6937006Y-8523996D01*
X7042484Y-8577740D01*
X7098360Y-8606211D01*
X7098363Y-8606212D01*
X7178679Y-8632307D01*
X7270591Y-8662171D01*
X7272463Y-8662467D01*
X7273118Y-8662778D01*
X7275322Y-8663307D01*
X7275210Y-8663769D01*
X7335597Y-8692392D01*
X7372532Y-8751701D01*
X7371538Y-8821564D01*
X7332932Y-8879799D01*
X7272472Y-8907414D01*
X7258994Y-8909548D01*
X7079362Y-8967914D01*
X6911064Y-9053667D01*
X6911062Y-9053668D01*
X6803759Y-9131626D01*
X6803759Y-9131627D01*
X7308461Y-9636329D01*
X7232993Y-9679901D01*
X7139901Y-9772993D01*
X7096329Y-9848461D01*
X6591627Y-9343759D01*
X6591626Y-9343759D01*
X6513668Y-9451062D01*
X6513667Y-9451064D01*
X6427914Y-9619362D01*
X6369548Y-9798994D01*
X6367414Y-9812472D01*
X6337482Y-9875605D01*
X6278170Y-9912535D01*
X6208307Y-9911535D01*
X6150076Y-9872923D01*
X6123726Y-9815221D01*
X6123307Y-9815322D01*
X6122790Y-9813171D01*
X6122467Y-9812463D01*
X6122171Y-9810591D01*
X6092307Y-9718679D01*
X6066212Y-9638363D01*
X6066211Y-9638360D01*
X6030721Y-9568709D01*
X5983996Y-9477006D01*
X5951145Y-9431790D01*
X5877558Y-9330505D01*
X5877554Y-9330500D01*
X5749499Y-9202445D01*
X5749494Y-9202441D01*
X5602997Y-9096006D01*
X5602996Y-9096005D01*
X5602994Y-9096004D01*
X5551300Y-9069664D01*
X5441639Y-9013788D01*
X5441636Y-9013787D01*
X5269410Y-8957829D01*
X5109321Y-8932473D01*
X5046186Y-8902544D01*
X5009255Y-8843232D01*
X5010253Y-8773370D01*
X5048863Y-8715137D01*
X5109321Y-8687527D01*
X5179425Y-8676422D01*
X5269409Y-8662171D01*
X5441639Y-8606211D01*
X5602994Y-8523996D01*
X5749501Y-8417553D01*
X5877553Y-8289501D01*
X5983996Y-8142994D01*
X6066211Y-7981639D01*
X6122171Y-7809409D01*
X6140357Y-7694586D01*
X6147527Y-7649321D01*
X6177456Y-7586186D01*
X6236768Y-7549255D01*
X6306630Y-7550253D01*
G37*
%TD.AperFunction*%
%TD*%
M02*
