M48
; DRILL file KiCad 10.0.6 date 2026-09-13T12:42:58
; FORMAT={-:-/ absolute / metric / decimal}
; #@! TF.CreationDate,2026-09-13T12:42:58+08:00
; #@! TF.GenerationSoftware,Kicad,Pcbnew,10.0.6
; #@! TF.FileFunction,MixedPlating,1,2
FMAT,2
METRIC
; #@! TA.AperFunction,Plated,PTH,ViaDrill
T1C0.300
; #@! TA.AperFunction,Plated,PTH,ViaDrill
T2C0.350
; #@! TA.AperFunction,Plated,PTH,ComponentDrill
T3C1.000
; #@! TA.AperFunction,NonPlated,NPTH,ComponentDrill
T4C0.500
; #@! TA.AperFunction,NonPlated,NPTH,ComponentDrill
T5C2.000
%
G90
G05
T1
X139.0Y-34.25
X139.0Y-35.75
X139.0Y-48.25
X139.0Y-49.75
X141.5Y-35.0
X141.5Y-49.0
X145.8Y-32.0
X145.8Y-46.0
X161.0Y-34.25
X161.0Y-35.75
X161.0Y-48.25
X161.0Y-49.75
X163.5Y-35.0
X163.5Y-49.0
X167.8Y-32.0
X167.8Y-46.0
T2
X134.5Y-39.7
X134.5Y-53.7
X139.0Y-31.2
X139.0Y-39.7
X139.0Y-45.2
X139.0Y-53.7
X144.3Y-36.7
X144.3Y-50.7
X146.0Y-35.25
X146.0Y-49.25
X156.5Y-39.7
X156.5Y-53.7
X161.0Y-31.2
X161.0Y-39.7
X161.0Y-45.2
X161.0Y-53.7
X166.3Y-36.7
X166.3Y-50.7
X168.0Y-35.25
X168.0Y-49.25
T3
X130.5Y-32.5
X130.5Y-35.04
X130.5Y-37.58
X130.5Y-46.5
X130.5Y-49.04
X130.5Y-51.58
X133.04Y-32.5
X133.04Y-35.04
X133.04Y-37.58
X133.04Y-46.5
X133.04Y-49.04
X133.04Y-51.58
X152.5Y-32.5
X152.5Y-35.04
X152.5Y-37.58
X152.5Y-46.5
X152.5Y-49.04
X152.5Y-51.58
X155.04Y-32.5
X155.04Y-35.04
X155.04Y-37.58
X155.04Y-46.5
X155.04Y-49.04
X155.04Y-51.58
T4
X127.7Y-33.5
X127.7Y-34.5
X127.7Y-35.5
X127.7Y-36.5
X127.7Y-47.5
X127.7Y-48.5
X127.7Y-49.5
X127.7Y-50.5
X136.0Y-29.2
X136.0Y-40.8
X136.0Y-43.2
X136.0Y-54.8
X137.0Y-29.2
X137.0Y-40.8
X137.0Y-43.2
X137.0Y-54.8
X138.0Y-29.2
X138.0Y-40.8
X138.0Y-43.2
X138.0Y-54.8
X139.0Y-29.2
X139.0Y-40.8
X139.0Y-43.2
X139.0Y-54.8
X147.3Y-33.5
X147.3Y-34.5
X147.3Y-35.5
X147.3Y-36.5
X147.3Y-47.5
X147.3Y-48.5
X147.3Y-49.5
X147.3Y-50.5
X149.7Y-33.5
X149.7Y-34.5
X149.7Y-35.5
X149.7Y-36.5
X149.7Y-47.5
X149.7Y-48.5
X149.7Y-49.5
X149.7Y-50.5
X158.0Y-29.2
X158.0Y-40.8
X158.0Y-43.2
X158.0Y-54.8
X159.0Y-29.2
X159.0Y-40.8
X159.0Y-43.2
X159.0Y-54.8
X160.0Y-29.2
X160.0Y-40.8
X160.0Y-43.2
X160.0Y-54.8
X161.0Y-29.2
X161.0Y-40.8
X161.0Y-43.2
X161.0Y-54.8
X169.3Y-33.5
X169.3Y-34.5
X169.3Y-35.5
X169.3Y-36.5
X169.3Y-47.5
X169.3Y-48.5
X169.3Y-49.5
X169.3Y-50.5
T5
X122.0Y-23.5
X122.0Y-60.5
X175.0Y-23.5
M30
