%TF.GenerationSoftware,KiCad,Pcbnew,10.0.6*%
%TF.CreationDate,2026-09-13T12:42:58+08:00*%
%TF.ProjectId,MFI-Pi4-MiniHat-2x2-Panel,4d46492d-5069-4342-9d4d-696e69486174,rev?*%
%TF.SameCoordinates,Original*%
%TF.FileFunction,Copper,L1,Top*%
%TF.FilePolarity,Positive*%
%FSLAX46Y46*%
G04 Gerber Fmt 4.6, Leading zero omitted, Abs format (unit mm)*
G04 Created by KiCad (PCBNEW 10.0.6) date 2026-09-13 12:42:58*
%MOMM*%
%LPD*%
G01*
G04 APERTURE LIST*
G04 Aperture macros list*
%AMRoundRect*
0 Rectangle with rounded corners*
0 $1 Rounding radius*
0 $2 $3 $4 $5 $6 $7 $8 $9 X,Y pos of 4 corners*
0 Add a 4 corners polygon primitive as box body*
4,1,4,$2,$3,$4,$5,$6,$7,$8,$9,$2,$3,0*
0 Add four circle primitives for the rounded corners*
1,1,$1+$1,$2,$3*
1,1,$1+$1,$4,$5*
1,1,$1+$1,$6,$7*
1,1,$1+$1,$8,$9*
0 Add four rect primitives between the rounded corners*
20,1,$1+$1,$2,$3,$4,$5,0*
20,1,$1+$1,$4,$5,$6,$7,0*
20,1,$1+$1,$6,$7,$8,$9,0*
20,1,$1+$1,$8,$9,$2,$3,0*%
G04 Aperture macros list end*
%TA.AperFunction,SMDPad,CuDef*%
%ADD10C,1.200000*%
%TD*%
%TA.AperFunction,SMDPad,CuDef*%
%ADD11RoundRect,0.180000X-0.270000X-0.270000X0.270000X-0.270000X0.270000X0.270000X-0.270000X0.270000X0*%
%TD*%
%TA.AperFunction,ComponentPad*%
%ADD12R,1.800000X1.800000*%
%TD*%
%TA.AperFunction,ComponentPad*%
%ADD13C,1.800000*%
%TD*%
%TA.AperFunction,SMDPad,CuDef*%
%ADD14C,1.000000*%
%TD*%
%TA.AperFunction,SMDPad,CuDef*%
%ADD15RoundRect,0.060000X-0.390000X-0.090000X0.390000X-0.090000X0.390000X0.090000X-0.390000X0.090000X0*%
%TD*%
%TA.AperFunction,SMDPad,CuDef*%
%ADD16R,1.500000X1.400000*%
%TD*%
%TA.AperFunction,ViaPad*%
%ADD17C,0.700000*%
%TD*%
%TA.AperFunction,ViaPad*%
%ADD18C,0.600000*%
%TD*%
%TA.AperFunction,Conductor*%
%ADD19C,0.300000*%
%TD*%
%TA.AperFunction,Conductor*%
%ADD20C,0.400000*%
%TD*%
%TA.AperFunction,Conductor*%
%ADD21C,0.200000*%
%TD*%
G04 APERTURE END LIST*
D10*
%TO.P,B0-TP2,1*%
%TO.N,Board_0-SDA*%
X139000000Y-32500000D03*
%TD*%
D11*
%TO.P,B1-C1,1*%
%TO.N,Board_1-+3V3*%
X166200000Y-31000000D03*
%TO.P,B1-C1,2*%
%TO.N,Board_1-GND*%
X167800000Y-31000000D03*
%TD*%
%TO.P,B2-R1,1*%
%TO.N,Board_2-+3V3*%
X136700000Y-45000000D03*
%TO.P,B2-R1,2*%
%TO.N,Board_2-SDA*%
X138300000Y-45000000D03*
%TD*%
D10*
%TO.P,B2-TP2,1*%
%TO.N,Board_2-SDA*%
X139000000Y-46500000D03*
%TD*%
%TO.P,B0-TP1,1*%
%TO.N,Board_0-+3V3*%
X134500000Y-30200000D03*
%TD*%
D12*
%TO.P,B3-J1,1*%
%TO.N,Board_3-+3V3*%
X152500000Y-46500000D03*
D13*
%TO.P,B3-J1,2*%
%TO.N,N/C*%
X155040000Y-46500000D03*
%TO.P,B3-J1,3*%
%TO.N,Board_3-SDA*%
X152500000Y-49040000D03*
%TO.P,B3-J1,4*%
%TO.N,N/C*%
X155040000Y-49040000D03*
%TO.P,B3-J1,5*%
%TO.N,Board_3-SCL*%
X152500000Y-51580000D03*
%TO.P,B3-J1,6*%
%TO.N,Board_3-GND*%
X155040000Y-51580000D03*
%TD*%
D10*
%TO.P,B0-TP4,1*%
%TO.N,Board_0-GND*%
X132500000Y-39800000D03*
%TD*%
%TO.P,B1-TP3,1*%
%TO.N,Board_1-SCL*%
X161000000Y-37500000D03*
%TD*%
%TO.P,B2-TP4,1*%
%TO.N,Board_2-GND*%
X132500000Y-53800000D03*
%TD*%
D14*
%TO.P,KiKit_FID_T_3,*%
%TO.N,*%
X124500000Y-60500000D03*
%TD*%
D15*
%TO.P,B2-U1,1*%
%TO.N,Board_2-GND*%
X140050000Y-48250000D03*
%TO.P,B2-U1,2*%
%TO.N,N/C*%
X140050000Y-48750000D03*
%TO.P,B2-U1,3*%
X140050000Y-49250000D03*
%TO.P,B2-U1,4*%
%TO.N,Board_2-GND*%
X140050000Y-49750000D03*
%TO.P,B2-U1,5*%
%TO.N,Board_2-SDA*%
X142950000Y-49750000D03*
%TO.P,B2-U1,6*%
%TO.N,Board_2-SCL*%
X142950000Y-49250000D03*
%TO.P,B2-U1,7*%
%TO.N,Board_2-GND*%
X142950000Y-48750000D03*
%TO.P,B2-U1,8*%
%TO.N,Board_2-+3V3*%
X142950000Y-48250000D03*
D16*
%TO.P,B2-U1,9*%
%TO.N,Board_2-GND*%
X141500000Y-49000000D03*
%TD*%
D10*
%TO.P,B0-TP3,1*%
%TO.N,Board_0-SCL*%
X139000000Y-37500000D03*
%TD*%
%TO.P,B3-TP2,1*%
%TO.N,Board_3-SDA*%
X161000000Y-46500000D03*
%TD*%
D11*
%TO.P,B3-C1,1*%
%TO.N,Board_3-+3V3*%
X166200000Y-45000000D03*
%TO.P,B3-C1,2*%
%TO.N,Board_3-GND*%
X167800000Y-45000000D03*
%TD*%
D10*
%TO.P,B1-TP1,1*%
%TO.N,Board_1-+3V3*%
X156500000Y-30200000D03*
%TD*%
D11*
%TO.P,B2-C1,1*%
%TO.N,Board_2-+3V3*%
X144200000Y-45000000D03*
%TO.P,B2-C1,2*%
%TO.N,Board_2-GND*%
X145800000Y-45000000D03*
%TD*%
%TO.P,B2-R2,1*%
%TO.N,Board_2-+3V3*%
X136700000Y-53000000D03*
%TO.P,B2-R2,2*%
%TO.N,Board_2-SCL*%
X138300000Y-53000000D03*
%TD*%
D12*
%TO.P,B1-J1,1*%
%TO.N,Board_1-+3V3*%
X152500000Y-32500000D03*
D13*
%TO.P,B1-J1,2*%
%TO.N,N/C*%
X155040000Y-32500000D03*
%TO.P,B1-J1,3*%
%TO.N,Board_1-SDA*%
X152500000Y-35040000D03*
%TO.P,B1-J1,4*%
%TO.N,N/C*%
X155040000Y-35040000D03*
%TO.P,B1-J1,5*%
%TO.N,Board_1-SCL*%
X152500000Y-37580000D03*
%TO.P,B1-J1,6*%
%TO.N,Board_1-GND*%
X155040000Y-37580000D03*
%TD*%
D10*
%TO.P,B1-TP4,1*%
%TO.N,Board_1-GND*%
X154500000Y-39800000D03*
%TD*%
D11*
%TO.P,B0-R1,1*%
%TO.N,Board_0-+3V3*%
X136700000Y-31000000D03*
%TO.P,B0-R1,2*%
%TO.N,Board_0-SDA*%
X138300000Y-31000000D03*
%TD*%
D12*
%TO.P,B0-J1,1*%
%TO.N,Board_0-+3V3*%
X130500000Y-32500000D03*
D13*
%TO.P,B0-J1,2*%
%TO.N,N/C*%
X133040000Y-32500000D03*
%TO.P,B0-J1,3*%
%TO.N,Board_0-SDA*%
X130500000Y-35040000D03*
%TO.P,B0-J1,4*%
%TO.N,N/C*%
X133040000Y-35040000D03*
%TO.P,B0-J1,5*%
%TO.N,Board_0-SCL*%
X130500000Y-37580000D03*
%TO.P,B0-J1,6*%
%TO.N,Board_0-GND*%
X133040000Y-37580000D03*
%TD*%
D10*
%TO.P,B3-TP4,1*%
%TO.N,Board_3-GND*%
X154500000Y-53800000D03*
%TD*%
D11*
%TO.P,B0-C1,1*%
%TO.N,Board_0-+3V3*%
X144200000Y-31000000D03*
%TO.P,B0-C1,2*%
%TO.N,Board_0-GND*%
X145800000Y-31000000D03*
%TD*%
%TO.P,B1-R1,1*%
%TO.N,Board_1-+3V3*%
X158700000Y-31000000D03*
%TO.P,B1-R1,2*%
%TO.N,Board_1-SDA*%
X160300000Y-31000000D03*
%TD*%
D10*
%TO.P,B1-TP2,1*%
%TO.N,Board_1-SDA*%
X161000000Y-32500000D03*
%TD*%
D14*
%TO.P,KiKit_FID_T_1,*%
%TO.N,*%
X124500000Y-23500000D03*
%TD*%
D10*
%TO.P,B3-TP1,1*%
%TO.N,Board_3-+3V3*%
X156500000Y-44200000D03*
%TD*%
D15*
%TO.P,B3-U1,1*%
%TO.N,Board_3-GND*%
X162050000Y-48250000D03*
%TO.P,B3-U1,2*%
%TO.N,N/C*%
X162050000Y-48750000D03*
%TO.P,B3-U1,3*%
X162050000Y-49250000D03*
%TO.P,B3-U1,4*%
%TO.N,Board_3-GND*%
X162050000Y-49750000D03*
%TO.P,B3-U1,5*%
%TO.N,Board_3-SDA*%
X164950000Y-49750000D03*
%TO.P,B3-U1,6*%
%TO.N,Board_3-SCL*%
X164950000Y-49250000D03*
%TO.P,B3-U1,7*%
%TO.N,Board_3-GND*%
X164950000Y-48750000D03*
%TO.P,B3-U1,8*%
%TO.N,Board_3-+3V3*%
X164950000Y-48250000D03*
D16*
%TO.P,B3-U1,9*%
%TO.N,Board_3-GND*%
X163500000Y-49000000D03*
%TD*%
D11*
%TO.P,B3-R1,1*%
%TO.N,Board_3-+3V3*%
X158700000Y-45000000D03*
%TO.P,B3-R1,2*%
%TO.N,Board_3-SDA*%
X160300000Y-45000000D03*
%TD*%
D15*
%TO.P,B1-U1,1*%
%TO.N,Board_1-GND*%
X162050000Y-34250000D03*
%TO.P,B1-U1,2*%
%TO.N,N/C*%
X162050000Y-34750000D03*
%TO.P,B1-U1,3*%
X162050000Y-35250000D03*
%TO.P,B1-U1,4*%
%TO.N,Board_1-GND*%
X162050000Y-35750000D03*
%TO.P,B1-U1,5*%
%TO.N,Board_1-SDA*%
X164950000Y-35750000D03*
%TO.P,B1-U1,6*%
%TO.N,Board_1-SCL*%
X164950000Y-35250000D03*
%TO.P,B1-U1,7*%
%TO.N,Board_1-GND*%
X164950000Y-34750000D03*
%TO.P,B1-U1,8*%
%TO.N,Board_1-+3V3*%
X164950000Y-34250000D03*
D16*
%TO.P,B1-U1,9*%
%TO.N,Board_1-GND*%
X163500000Y-35000000D03*
%TD*%
D11*
%TO.P,B3-R2,1*%
%TO.N,Board_3-+3V3*%
X158700000Y-53000000D03*
%TO.P,B3-R2,2*%
%TO.N,Board_3-SCL*%
X160300000Y-53000000D03*
%TD*%
D14*
%TO.P,KiKit_FID_T_4,*%
%TO.N,*%
X172500000Y-60500000D03*
%TD*%
D15*
%TO.P,B0-U1,1*%
%TO.N,Board_0-GND*%
X140050000Y-34250000D03*
%TO.P,B0-U1,2*%
%TO.N,N/C*%
X140050000Y-34750000D03*
%TO.P,B0-U1,3*%
X140050000Y-35250000D03*
%TO.P,B0-U1,4*%
%TO.N,Board_0-GND*%
X140050000Y-35750000D03*
%TO.P,B0-U1,5*%
%TO.N,Board_0-SDA*%
X142950000Y-35750000D03*
%TO.P,B0-U1,6*%
%TO.N,Board_0-SCL*%
X142950000Y-35250000D03*
%TO.P,B0-U1,7*%
%TO.N,Board_0-GND*%
X142950000Y-34750000D03*
%TO.P,B0-U1,8*%
%TO.N,Board_0-+3V3*%
X142950000Y-34250000D03*
D16*
%TO.P,B0-U1,9*%
%TO.N,Board_0-GND*%
X141500000Y-35000000D03*
%TD*%
D10*
%TO.P,B2-TP1,1*%
%TO.N,Board_2-+3V3*%
X134500000Y-44200000D03*
%TD*%
D11*
%TO.P,B1-R2,1*%
%TO.N,Board_1-+3V3*%
X158700000Y-39000000D03*
%TO.P,B1-R2,2*%
%TO.N,Board_1-SCL*%
X160300000Y-39000000D03*
%TD*%
D10*
%TO.P,B2-TP3,1*%
%TO.N,Board_2-SCL*%
X139000000Y-51500000D03*
%TD*%
D12*
%TO.P,B2-J1,1*%
%TO.N,Board_2-+3V3*%
X130500000Y-46500000D03*
D13*
%TO.P,B2-J1,2*%
%TO.N,N/C*%
X133040000Y-46500000D03*
%TO.P,B2-J1,3*%
%TO.N,Board_2-SDA*%
X130500000Y-49040000D03*
%TO.P,B2-J1,4*%
%TO.N,N/C*%
X133040000Y-49040000D03*
%TO.P,B2-J1,5*%
%TO.N,Board_2-SCL*%
X130500000Y-51580000D03*
%TO.P,B2-J1,6*%
%TO.N,Board_2-GND*%
X133040000Y-51580000D03*
%TD*%
D14*
%TO.P,KiKit_FID_T_2,*%
%TO.N,*%
X172500000Y-23500000D03*
%TD*%
D10*
%TO.P,B3-TP3,1*%
%TO.N,Board_3-SCL*%
X161000000Y-51500000D03*
%TD*%
D11*
%TO.P,B0-R2,1*%
%TO.N,Board_0-+3V3*%
X136700000Y-39000000D03*
%TO.P,B0-R2,2*%
%TO.N,Board_0-SCL*%
X138300000Y-39000000D03*
%TD*%
D17*
%TO.N,Board_0-SDA*%
X139000000Y-31200000D03*
X144300000Y-36700000D03*
D18*
%TO.N,Board_1-GND*%
X163500000Y-35000000D03*
X161000000Y-34250000D03*
X167800000Y-32000000D03*
X161000000Y-35750000D03*
D17*
%TO.N,Board_2-SDA*%
X144300000Y-50700000D03*
X139000000Y-45200000D03*
%TO.N,Board_3-SDA*%
X161000000Y-45200000D03*
X166300000Y-50700000D03*
%TO.N,Board_3-SCL*%
X156500000Y-53700000D03*
X161000000Y-53700000D03*
X168000000Y-49250000D03*
D18*
%TO.N,Board_3-GND*%
X163500000Y-49000000D03*
X161000000Y-48250000D03*
X161000000Y-49750000D03*
X167800000Y-46000000D03*
%TO.N,Board_0-GND*%
X141500000Y-35000000D03*
X145800000Y-32000000D03*
X139000000Y-35750000D03*
X139000000Y-34250000D03*
D17*
%TO.N,Board_1-SCL*%
X168000000Y-35250000D03*
X156500000Y-39700000D03*
X161000000Y-39700000D03*
D18*
%TO.N,Board_2-GND*%
X139000000Y-49750000D03*
X145800000Y-46000000D03*
X141500000Y-49000000D03*
X139000000Y-48250000D03*
D17*
%TO.N,Board_2-SCL*%
X139000000Y-53700000D03*
X134500000Y-53700000D03*
X146000000Y-49250000D03*
%TO.N,Board_0-SCL*%
X146000000Y-35250000D03*
X139000000Y-39700000D03*
X134500000Y-39700000D03*
%TO.N,Board_1-SDA*%
X166300000Y-36700000D03*
X161000000Y-31200000D03*
%TD*%
%TO.N,Board_0-SDA*%
D19*
X144300000Y-36700000D02*
X142950000Y-35750000D01*
X139000000Y-32500000D02*
X139000000Y-31200000D01*
X138300000Y-31000000D02*
X139000000Y-31200000D01*
%TO.N,Board_1-+3V3*%
X158700000Y-31000000D02*
X158700000Y-30000000D01*
D20*
X150600000Y-30000000D02*
X166200000Y-30000000D01*
D19*
X158000000Y-30000000D02*
X158000000Y-39000000D01*
X158000000Y-39000000D02*
X158700000Y-39000000D01*
D20*
X166200000Y-30000000D02*
X164950000Y-31250000D01*
X152500000Y-32500000D02*
X150600000Y-32500000D01*
D19*
X164950000Y-31250000D02*
X164950000Y-34250000D01*
D20*
X150600000Y-32500000D02*
X150600000Y-30000000D01*
X166200000Y-30000000D02*
X166200000Y-31000000D01*
X156500000Y-30200000D02*
X157000000Y-30000000D01*
%TO.N,Board_1-GND*%
D21*
X164950000Y-34750000D02*
X164100000Y-34750000D01*
D19*
X162050000Y-34250000D02*
X161000000Y-34250000D01*
X162050000Y-35750000D02*
X161000000Y-35750000D01*
X167800000Y-31000000D02*
X167800000Y-32000000D01*
%TO.N,Board_2-+3V3*%
X136000000Y-44000000D02*
X136000000Y-53000000D01*
X136000000Y-53000000D02*
X136700000Y-53000000D01*
X136700000Y-45000000D02*
X136700000Y-44000000D01*
D20*
X134500000Y-44200000D02*
X135000000Y-44000000D01*
D19*
X142950000Y-45250000D02*
X142950000Y-48250000D01*
D20*
X144200000Y-44000000D02*
X142950000Y-45250000D01*
X128600000Y-44000000D02*
X144200000Y-44000000D01*
X128600000Y-46500000D02*
X128600000Y-44000000D01*
X130500000Y-46500000D02*
X128600000Y-46500000D01*
X144200000Y-44000000D02*
X144200000Y-45000000D01*
%TO.N,Board_2-SDA*%
D19*
X138300000Y-45000000D02*
X139000000Y-45200000D01*
X139000000Y-46500000D02*
X139000000Y-45200000D01*
X144300000Y-50700000D02*
X142950000Y-49750000D01*
%TO.N,Board_0-+3V3*%
D20*
X130500000Y-32500000D02*
X128600000Y-32500000D01*
D19*
X136000000Y-39000000D02*
X136700000Y-39000000D01*
D20*
X128600000Y-32500000D02*
X128600000Y-30000000D01*
D19*
X142950000Y-31250000D02*
X142950000Y-34250000D01*
D20*
X144200000Y-30000000D02*
X144200000Y-31000000D01*
D19*
X136000000Y-30000000D02*
X136000000Y-39000000D01*
D20*
X134500000Y-30200000D02*
X135000000Y-30000000D01*
X144200000Y-30000000D02*
X142950000Y-31250000D01*
X128600000Y-30000000D02*
X144200000Y-30000000D01*
D19*
X136700000Y-31000000D02*
X136700000Y-30000000D01*
%TO.N,Board_3-+3V3*%
X158700000Y-45000000D02*
X158700000Y-44000000D01*
D20*
X152500000Y-46500000D02*
X150600000Y-46500000D01*
X150600000Y-44000000D02*
X166200000Y-44000000D01*
D19*
X158000000Y-44000000D02*
X158000000Y-53000000D01*
D20*
X150600000Y-46500000D02*
X150600000Y-44000000D01*
D19*
X158000000Y-53000000D02*
X158700000Y-53000000D01*
D20*
X166200000Y-44000000D02*
X164950000Y-45250000D01*
X166200000Y-44000000D02*
X166200000Y-45000000D01*
X156500000Y-44200000D02*
X157000000Y-44000000D01*
D19*
X164950000Y-45250000D02*
X164950000Y-48250000D01*
%TO.N,Board_3-SDA*%
X166300000Y-50700000D02*
X164950000Y-49750000D01*
X160300000Y-45000000D02*
X161000000Y-45200000D01*
X161000000Y-46500000D02*
X161000000Y-45200000D01*
%TO.N,Board_3-SCL*%
X161000000Y-51500000D02*
X161000000Y-53700000D01*
X160300000Y-53000000D02*
X161000000Y-53700000D01*
X168000000Y-49250000D02*
X164950000Y-49250000D01*
%TO.N,Board_3-GND*%
X167800000Y-45000000D02*
X167800000Y-46000000D01*
D21*
X164950000Y-48750000D02*
X164100000Y-48750000D01*
D19*
X162050000Y-49750000D02*
X161000000Y-49750000D01*
X162050000Y-48250000D02*
X161000000Y-48250000D01*
%TO.N,Board_0-GND*%
X145800000Y-31000000D02*
X145800000Y-32000000D01*
D21*
X142950000Y-34750000D02*
X142100000Y-34750000D01*
D19*
X140050000Y-35750000D02*
X139000000Y-35750000D01*
X140050000Y-34250000D02*
X139000000Y-34250000D01*
%TO.N,Board_1-SCL*%
X168000000Y-35250000D02*
X164950000Y-35250000D01*
X160300000Y-39000000D02*
X161000000Y-39700000D01*
X161000000Y-37500000D02*
X161000000Y-39700000D01*
%TO.N,Board_2-GND*%
X145800000Y-45000000D02*
X145800000Y-46000000D01*
X140050000Y-49750000D02*
X139000000Y-49750000D01*
D21*
X142950000Y-48750000D02*
X142100000Y-48750000D01*
D19*
X140050000Y-48250000D02*
X139000000Y-48250000D01*
%TO.N,Board_2-SCL*%
X146000000Y-49250000D02*
X142950000Y-49250000D01*
X139000000Y-51500000D02*
X139000000Y-53700000D01*
X138300000Y-53000000D02*
X139000000Y-53700000D01*
%TO.N,Board_0-SCL*%
X138300000Y-39000000D02*
X139000000Y-39700000D01*
X146000000Y-35250000D02*
X142950000Y-35250000D01*
X139000000Y-37500000D02*
X139000000Y-39700000D01*
%TO.N,Board_1-SDA*%
X161000000Y-32500000D02*
X161000000Y-31200000D01*
X160300000Y-31000000D02*
X161000000Y-31200000D01*
X166300000Y-36700000D02*
X164950000Y-35750000D01*
%TD*%
%TA.AperFunction,Conductor*%
%TO.N,Board_1-GND*%
G36*
X155667371Y-30470185D02*
G01*
X155713126Y-30522989D01*
X155714893Y-30527048D01*
X155746293Y-30602856D01*
X155746300Y-30602869D01*
X155839373Y-30742161D01*
X155839376Y-30742165D01*
X155957837Y-30860626D01*
X156050494Y-30922537D01*
X156097137Y-30953703D01*
X156251918Y-31017816D01*
X156416228Y-31050499D01*
X156416232Y-31050500D01*
X156416233Y-31050500D01*
X156583768Y-31050500D01*
X156583769Y-31050499D01*
X156748082Y-31017816D01*
X156902863Y-30953703D01*
X157042162Y-30860626D01*
X157160626Y-30742162D01*
X157253703Y-30602863D01*
X157258541Y-30591183D01*
X157285107Y-30527048D01*
X157328948Y-30472644D01*
X157395242Y-30450579D01*
X157399668Y-30450500D01*
X157475500Y-30450500D01*
X157542539Y-30470185D01*
X157588294Y-30522989D01*
X157599500Y-30574500D01*
X157599500Y-38947273D01*
X157599500Y-39052727D01*
X157626793Y-39154587D01*
X157679520Y-39245913D01*
X157754087Y-39320480D01*
X157845413Y-39373207D01*
X157947273Y-39400500D01*
X157947274Y-39400500D01*
X157947464Y-39400525D01*
X157947611Y-39400590D01*
X157955123Y-39402603D01*
X157954809Y-39403774D01*
X158011361Y-39428791D01*
X158040909Y-39465522D01*
X158045088Y-39473430D01*
X158045089Y-39473431D01*
X158122152Y-39577848D01*
X158226569Y-39654911D01*
X158267399Y-39669198D01*
X158349059Y-39697773D01*
X158356647Y-39698484D01*
X158378141Y-39700500D01*
X159021858Y-39700499D01*
X159050939Y-39697773D01*
X159173431Y-39654911D01*
X159277848Y-39577848D01*
X159354911Y-39473431D01*
X159379695Y-39402603D01*
X159382959Y-39393276D01*
X159423681Y-39336500D01*
X159488633Y-39310753D01*
X159557195Y-39324209D01*
X159607598Y-39372597D01*
X159617041Y-39393276D01*
X159643264Y-39468216D01*
X159645089Y-39473431D01*
X159722152Y-39577848D01*
X159826569Y-39654911D01*
X159867399Y-39669198D01*
X159949059Y-39697773D01*
X159956647Y-39698484D01*
X159978141Y-39700500D01*
X160283302Y-39700499D01*
X160350341Y-39720183D01*
X160396096Y-39772987D01*
X160403075Y-39792400D01*
X160419010Y-39851869D01*
X160440423Y-39931785D01*
X160440426Y-39931790D01*
X160519475Y-40068709D01*
X160519479Y-40068714D01*
X160519480Y-40068716D01*
X160631284Y-40180520D01*
X160631285Y-40180521D01*
X160631287Y-40180522D01*
X160669089Y-40202347D01*
X160717304Y-40252914D01*
X160730528Y-40321521D01*
X160704560Y-40386386D01*
X160694771Y-40397415D01*
X160692686Y-40399499D01*
X160692686Y-40399500D01*
X160629003Y-40463182D01*
X160567683Y-40496666D01*
X160541324Y-40499500D01*
X160458676Y-40499500D01*
X160391637Y-40479815D01*
X160370995Y-40463181D01*
X160307316Y-40399502D01*
X160307314Y-40399500D01*
X160250250Y-40366554D01*
X160193187Y-40333608D01*
X160092427Y-40306610D01*
X160065892Y-40299500D01*
X159934108Y-40299500D01*
X159806812Y-40333608D01*
X159692686Y-40399500D01*
X159692683Y-40399502D01*
X159629005Y-40463181D01*
X159567682Y-40496666D01*
X159541324Y-40499500D01*
X159458676Y-40499500D01*
X159391637Y-40479815D01*
X159370995Y-40463181D01*
X159307316Y-40399502D01*
X159307314Y-40399500D01*
X159250250Y-40366554D01*
X159193187Y-40333608D01*
X159092427Y-40306610D01*
X159065892Y-40299500D01*
X158934108Y-40299500D01*
X158806812Y-40333608D01*
X158692686Y-40399500D01*
X158692683Y-40399502D01*
X158629005Y-40463181D01*
X158567682Y-40496666D01*
X158541324Y-40499500D01*
X158458676Y-40499500D01*
X158391637Y-40479815D01*
X158370995Y-40463181D01*
X158307316Y-40399502D01*
X158307314Y-40399500D01*
X158250250Y-40366554D01*
X158193187Y-40333608D01*
X158092427Y-40306610D01*
X158065892Y-40299500D01*
X157934108Y-40299500D01*
X157806812Y-40333608D01*
X157692686Y-40399500D01*
X157692683Y-40399502D01*
X157629005Y-40463181D01*
X157567682Y-40496666D01*
X157541324Y-40499500D01*
X156775948Y-40499500D01*
X156708909Y-40479815D01*
X156663154Y-40427011D01*
X156653210Y-40357853D01*
X156682235Y-40294297D01*
X156724747Y-40263642D01*
X156724746Y-40263641D01*
X156724763Y-40263631D01*
X156728498Y-40260938D01*
X156731781Y-40259577D01*
X156731784Y-40259577D01*
X156731786Y-40259575D01*
X156731788Y-40259575D01*
X156868709Y-40180524D01*
X156868708Y-40180524D01*
X156868716Y-40180520D01*
X156980520Y-40068716D01*
X157059577Y-39931784D01*
X157100500Y-39779057D01*
X157100500Y-39620943D01*
X157059577Y-39468216D01*
X157021696Y-39402603D01*
X156980524Y-39331290D01*
X156980518Y-39331282D01*
X156868717Y-39219481D01*
X156868709Y-39219475D01*
X156731790Y-39140426D01*
X156731786Y-39140424D01*
X156731784Y-39140423D01*
X156579057Y-39099500D01*
X156420943Y-39099500D01*
X156268216Y-39140423D01*
X156268209Y-39140426D01*
X156131290Y-39219475D01*
X156131282Y-39219481D01*
X156019481Y-39331282D01*
X156019475Y-39331290D01*
X155940426Y-39468209D01*
X155940423Y-39468216D01*
X155899500Y-39620943D01*
X155899500Y-39779057D01*
X155928864Y-39888643D01*
X155940423Y-39931783D01*
X155940426Y-39931790D01*
X156019475Y-40068709D01*
X156019479Y-40068714D01*
X156019480Y-40068716D01*
X156131284Y-40180520D01*
X156131286Y-40180521D01*
X156131290Y-40180524D01*
X156268211Y-40259575D01*
X156271502Y-40260938D01*
X156273851Y-40262831D01*
X156275254Y-40263641D01*
X156275127Y-40263859D01*
X156325907Y-40304778D01*
X156347973Y-40371072D01*
X156330695Y-40438771D01*
X156279559Y-40486383D01*
X156224052Y-40499500D01*
X155347019Y-40499500D01*
X155279980Y-40479815D01*
X155234225Y-40427011D01*
X155224281Y-40357853D01*
X155243917Y-40306610D01*
X155297563Y-40226321D01*
X155297571Y-40226307D01*
X155365413Y-40062520D01*
X155365415Y-40062512D01*
X155399999Y-39888646D01*
X155400000Y-39888643D01*
X155400000Y-39711357D01*
X155399999Y-39711353D01*
X155365415Y-39537487D01*
X155365413Y-39537479D01*
X155297570Y-39373690D01*
X155233831Y-39278299D01*
X154693746Y-39818384D01*
X154632423Y-39851869D01*
X154580619Y-39852064D01*
X154464516Y-39827720D01*
X154420292Y-39851869D01*
X154350600Y-39846885D01*
X154306253Y-39818384D01*
X153766167Y-39278298D01*
X153766167Y-39278299D01*
X153702432Y-39373686D01*
X153702428Y-39373693D01*
X153634586Y-39537479D01*
X153634584Y-39537487D01*
X153600000Y-39711353D01*
X153600000Y-39888646D01*
X153634584Y-40062512D01*
X153634586Y-40062520D01*
X153702428Y-40226307D01*
X153702436Y-40226321D01*
X153756083Y-40306610D01*
X153776961Y-40373287D01*
X153758476Y-40440667D01*
X153706497Y-40487357D01*
X153652981Y-40499500D01*
X150124500Y-40499500D01*
X150057461Y-40479815D01*
X150011706Y-40427011D01*
X150000500Y-40375500D01*
X150000500Y-36958676D01*
X150020185Y-36891637D01*
X150036819Y-36870995D01*
X150068441Y-36839373D01*
X150100500Y-36807314D01*
X150166392Y-36693186D01*
X150200500Y-36565892D01*
X150200500Y-36434108D01*
X150166392Y-36306814D01*
X150100500Y-36192686D01*
X150036818Y-36129004D01*
X150003334Y-36067680D01*
X150000500Y-36041323D01*
X150000500Y-35958676D01*
X150020185Y-35891637D01*
X150036819Y-35870995D01*
X150057315Y-35850499D01*
X150100500Y-35807314D01*
X150166392Y-35693186D01*
X150200500Y-35565892D01*
X150200500Y-35434108D01*
X150166392Y-35306814D01*
X150100500Y-35192686D01*
X150036818Y-35129004D01*
X150003334Y-35067680D01*
X150000500Y-35041323D01*
X150000500Y-34958676D01*
X150020185Y-34891637D01*
X150036819Y-34870995D01*
X150061148Y-34846666D01*
X150100500Y-34807314D01*
X150166392Y-34693186D01*
X150200500Y-34565892D01*
X150200500Y-34434108D01*
X150166392Y-34306814D01*
X150100500Y-34192686D01*
X150036818Y-34129004D01*
X150003334Y-34067680D01*
X150000500Y-34041323D01*
X150000500Y-33958676D01*
X150020185Y-33891637D01*
X150036819Y-33870995D01*
X150058314Y-33849500D01*
X150100500Y-33807314D01*
X150166392Y-33693186D01*
X150200500Y-33565892D01*
X150200500Y-33434108D01*
X150166392Y-33306814D01*
X150100500Y-33192686D01*
X150036818Y-33129004D01*
X150003334Y-33067680D01*
X150000500Y-33041323D01*
X150000500Y-32825408D01*
X150020185Y-32758369D01*
X150072989Y-32712614D01*
X150142147Y-32702670D01*
X150205703Y-32731695D01*
X150231887Y-32763408D01*
X150239508Y-32776609D01*
X150239510Y-32776611D01*
X150239511Y-32776613D01*
X150323387Y-32860489D01*
X150426114Y-32919799D01*
X150540691Y-32950500D01*
X150659309Y-32950500D01*
X151225500Y-32950500D01*
X151292539Y-32970185D01*
X151338294Y-33022989D01*
X151349500Y-33074500D01*
X151349500Y-33424678D01*
X151364032Y-33497735D01*
X151364033Y-33497739D01*
X151364034Y-33497740D01*
X151419399Y-33580601D01*
X151481614Y-33622171D01*
X151502260Y-33635966D01*
X151502264Y-33635967D01*
X151575321Y-33650499D01*
X151575324Y-33650500D01*
X152342869Y-33650500D01*
X152409908Y-33670185D01*
X152455663Y-33722989D01*
X152465607Y-33792147D01*
X152436582Y-33855703D01*
X152377804Y-33893477D01*
X152362267Y-33896973D01*
X152230589Y-33917829D01*
X152058363Y-33973787D01*
X152058360Y-33973788D01*
X151897002Y-34056006D01*
X151750505Y-34162441D01*
X151750500Y-34162445D01*
X151622445Y-34290500D01*
X151622441Y-34290505D01*
X151516006Y-34437002D01*
X151433788Y-34598360D01*
X151433787Y-34598363D01*
X151377829Y-34770589D01*
X151349500Y-34949448D01*
X151349500Y-35130551D01*
X151377829Y-35309410D01*
X151433787Y-35481636D01*
X151433788Y-35481639D01*
X151516006Y-35642997D01*
X151622441Y-35789494D01*
X151622445Y-35789499D01*
X151750500Y-35917554D01*
X151750505Y-35917558D01*
X151760487Y-35924810D01*
X151897006Y-36023996D01*
X151952128Y-36052082D01*
X152058360Y-36106211D01*
X152058363Y-36106212D01*
X152084506Y-36114706D01*
X152230591Y-36162171D01*
X152303639Y-36173740D01*
X152390678Y-36187527D01*
X152453813Y-36217456D01*
X152490744Y-36276768D01*
X152489746Y-36346631D01*
X152451136Y-36404863D01*
X152390678Y-36432473D01*
X152230589Y-36457829D01*
X152058363Y-36513787D01*
X152058360Y-36513788D01*
X151897002Y-36596006D01*
X151750505Y-36702441D01*
X151750500Y-36702445D01*
X151622445Y-36830500D01*
X151622441Y-36830505D01*
X151516006Y-36977002D01*
X151433788Y-37138360D01*
X151433787Y-37138363D01*
X151377829Y-37310589D01*
X151349500Y-37489448D01*
X151349500Y-37670551D01*
X151377829Y-37849410D01*
X151433787Y-38021636D01*
X151433788Y-38021639D01*
X151489664Y-38131300D01*
X151498755Y-38149142D01*
X151516006Y-38182997D01*
X151622441Y-38329494D01*
X151622445Y-38329499D01*
X151750500Y-38457554D01*
X151750505Y-38457558D01*
X151845492Y-38526569D01*
X151897006Y-38563996D01*
X151980089Y-38606329D01*
X152058360Y-38646211D01*
X152058363Y-38646212D01*
X152144476Y-38674191D01*
X152230591Y-38702171D01*
X152302057Y-38713490D01*
X152409449Y-38730500D01*
X152409454Y-38730500D01*
X152590551Y-38730500D01*
X152677259Y-38716765D01*
X152769409Y-38702171D01*
X152941639Y-38646211D01*
X153102994Y-38563996D01*
X153249501Y-38457553D01*
X153377553Y-38329501D01*
X153483996Y-38182994D01*
X153566211Y-38021639D01*
X153622171Y-37849409D01*
X153622467Y-37847539D01*
X153622777Y-37846885D01*
X153623307Y-37844678D01*
X153623770Y-37844789D01*
X153652390Y-37784404D01*
X153711698Y-37747468D01*
X153781561Y-37748460D01*
X153839797Y-37787065D01*
X153867414Y-37847528D01*
X153869548Y-37861004D01*
X153927914Y-38040637D01*
X154013666Y-38208933D01*
X154091627Y-38316239D01*
X154596329Y-37811538D01*
X154639901Y-37887007D01*
X154732993Y-37980099D01*
X154808460Y-38023670D01*
X154303759Y-38528370D01*
X154303759Y-38528371D01*
X154411066Y-38606333D01*
X154527216Y-38665515D01*
X154578012Y-38713490D01*
X154594807Y-38781311D01*
X154572270Y-38847446D01*
X154517554Y-38890897D01*
X154470921Y-38900000D01*
X154411353Y-38900000D01*
X154237487Y-38934584D01*
X154237479Y-38934586D01*
X154073693Y-39002428D01*
X154073686Y-39002432D01*
X153978299Y-39066167D01*
X153978298Y-39066167D01*
X154492279Y-39580148D01*
X154505043Y-39582824D01*
X155021700Y-39066167D01*
X154933303Y-39007103D01*
X154888497Y-38953491D01*
X154879790Y-38884166D01*
X154909944Y-38821138D01*
X154969387Y-38784418D01*
X155002193Y-38780000D01*
X155134447Y-38780000D01*
X155321002Y-38750451D01*
X155500637Y-38692085D01*
X155668940Y-38606329D01*
X155776239Y-38528373D01*
X155776240Y-38528371D01*
X155271538Y-38023670D01*
X155347007Y-37980099D01*
X155440099Y-37887007D01*
X155483670Y-37811539D01*
X155988371Y-38316240D01*
X155988373Y-38316239D01*
X156066329Y-38208940D01*
X156152085Y-38040637D01*
X156210451Y-37861002D01*
X156240000Y-37674447D01*
X156240000Y-37485552D01*
X156210451Y-37298997D01*
X156152085Y-37119362D01*
X156066333Y-36951066D01*
X155988371Y-36843759D01*
X155988370Y-36843759D01*
X155483670Y-37348460D01*
X155440099Y-37272993D01*
X155347007Y-37179901D01*
X155271538Y-37136329D01*
X155776239Y-36631627D01*
X155668933Y-36553666D01*
X155500637Y-36467914D01*
X155321004Y-36409548D01*
X155307528Y-36407414D01*
X155244394Y-36377483D01*
X155207464Y-36318171D01*
X155208464Y-36248308D01*
X155247075Y-36190076D01*
X155304778Y-36163727D01*
X155304678Y-36163307D01*
X155306832Y-36162789D01*
X155307539Y-36162467D01*
X155309409Y-36162171D01*
X155481639Y-36106211D01*
X155642994Y-36023996D01*
X155789501Y-35917553D01*
X155917553Y-35789501D01*
X156023996Y-35642994D01*
X156106211Y-35481639D01*
X156162171Y-35309409D01*
X156180658Y-35192686D01*
X156190500Y-35130551D01*
X156190500Y-34949448D01*
X156171551Y-34829815D01*
X156162171Y-34770591D01*
X156123152Y-34650500D01*
X156106212Y-34598363D01*
X156106211Y-34598360D01*
X156077740Y-34542484D01*
X156023996Y-34437006D01*
X155962608Y-34352512D01*
X155917558Y-34290505D01*
X155917554Y-34290500D01*
X155789499Y-34162445D01*
X155789494Y-34162441D01*
X155642997Y-34056006D01*
X155642996Y-34056005D01*
X155642994Y-34056004D01*
X155591300Y-34029664D01*
X155481639Y-33973788D01*
X155481636Y-33973787D01*
X155309410Y-33917829D01*
X155149321Y-33892473D01*
X155086186Y-33862544D01*
X155049255Y-33803232D01*
X155050253Y-33733370D01*
X155088863Y-33675137D01*
X155149321Y-33647527D01*
X155222310Y-33635966D01*
X155309409Y-33622171D01*
X155481639Y-33566211D01*
X155642994Y-33483996D01*
X155789501Y-33377553D01*
X155917553Y-33249501D01*
X156023996Y-33102994D01*
X156106211Y-32941639D01*
X156162171Y-32769409D01*
X156179954Y-32657131D01*
X156190500Y-32590551D01*
X156190500Y-32409448D01*
X156174019Y-32305397D01*
X156162171Y-32230591D01*
X156106211Y-32058361D01*
X156106211Y-32058360D01*
X156064761Y-31977011D01*
X156023996Y-31897006D01*
X155982124Y-31839374D01*
X155917558Y-31750505D01*
X155917554Y-31750500D01*
X155789499Y-31622445D01*
X155789494Y-31622441D01*
X155642997Y-31516006D01*
X155642996Y-31516005D01*
X155642994Y-31516004D01*
X155585292Y-31486603D01*
X155481639Y-31433788D01*
X155481636Y-31433787D01*
X155309410Y-31377829D01*
X155130551Y-31349500D01*
X155130546Y-31349500D01*
X154949454Y-31349500D01*
X154949449Y-31349500D01*
X154770589Y-31377829D01*
X154598363Y-31433787D01*
X154598360Y-31433788D01*
X154437002Y-31516006D01*
X154290505Y-31622441D01*
X154290500Y-31622445D01*
X154162445Y-31750500D01*
X154162441Y-31750505D01*
X154056006Y-31897002D01*
X153973788Y-32058360D01*
X153973787Y-32058363D01*
X153917829Y-32230589D01*
X153896973Y-32362266D01*
X153867044Y-32425401D01*
X153807732Y-32462332D01*
X153737869Y-32461334D01*
X153679637Y-32422724D01*
X153651523Y-32358760D01*
X153650500Y-32342868D01*
X153650500Y-31575323D01*
X153650499Y-31575321D01*
X153635967Y-31502264D01*
X153635966Y-31502260D01*
X153628134Y-31490539D01*
X153580601Y-31419399D01*
X153497740Y-31364034D01*
X153497739Y-31364033D01*
X153497735Y-31364032D01*
X153424677Y-31349500D01*
X153424674Y-31349500D01*
X151575326Y-31349500D01*
X151575323Y-31349500D01*
X151502264Y-31364032D01*
X151502260Y-31364033D01*
X151419399Y-31419399D01*
X151364033Y-31502260D01*
X151364032Y-31502264D01*
X151349500Y-31575321D01*
X151349500Y-31925500D01*
X151329815Y-31992539D01*
X151277011Y-32038294D01*
X151225500Y-32049500D01*
X151174500Y-32049500D01*
X151107461Y-32029815D01*
X151061706Y-31977011D01*
X151050500Y-31925500D01*
X151050500Y-30574500D01*
X151070185Y-30507461D01*
X151122989Y-30461706D01*
X151174500Y-30450500D01*
X155600332Y-30450500D01*
X155667371Y-30470185D01*
G37*
%TD.AperFunction*%
%TA.AperFunction,Conductor*%
G36*
X164880074Y-30470185D02*
G01*
X164925829Y-30522989D01*
X164935773Y-30592147D01*
X164906748Y-30655703D01*
X164900716Y-30662181D01*
X164589513Y-30973383D01*
X164589511Y-30973386D01*
X164530199Y-31076114D01*
X164499501Y-31190689D01*
X164499501Y-31309310D01*
X164530201Y-31423888D01*
X164532884Y-31428534D01*
X164549500Y-31490539D01*
X164549500Y-33744417D01*
X164529815Y-33811456D01*
X164477011Y-33857211D01*
X164475587Y-33857851D01*
X164381487Y-33899400D01*
X164317205Y-33963682D01*
X164255881Y-33997166D01*
X164229524Y-34000000D01*
X163650000Y-34000000D01*
X163650000Y-35999999D01*
X164229524Y-35999999D01*
X164296563Y-36019684D01*
X164317205Y-36036318D01*
X164381486Y-36100599D01*
X164487680Y-36147488D01*
X164513643Y-36150500D01*
X164783949Y-36150499D01*
X164850988Y-36170183D01*
X164855310Y-36173091D01*
X165181375Y-36402544D01*
X165594393Y-36693186D01*
X165658793Y-36738504D01*
X165702290Y-36793183D01*
X165707204Y-36807810D01*
X165740423Y-36931784D01*
X165740424Y-36931785D01*
X165740426Y-36931790D01*
X165819475Y-37068709D01*
X165819479Y-37068714D01*
X165819480Y-37068716D01*
X165931284Y-37180520D01*
X165931286Y-37180521D01*
X165931290Y-37180524D01*
X166054948Y-37251917D01*
X166068216Y-37259577D01*
X166220943Y-37300500D01*
X166220945Y-37300500D01*
X166379055Y-37300500D01*
X166379057Y-37300500D01*
X166531784Y-37259577D01*
X166668716Y-37180520D01*
X166780520Y-37068716D01*
X166859577Y-36931784D01*
X166900500Y-36779057D01*
X166900500Y-36620943D01*
X166859577Y-36468216D01*
X166837225Y-36429500D01*
X166780524Y-36331290D01*
X166780518Y-36331282D01*
X166668717Y-36219481D01*
X166668709Y-36219475D01*
X166531790Y-36140426D01*
X166531786Y-36140424D01*
X166531784Y-36140423D01*
X166379057Y-36099500D01*
X166220943Y-36099500D01*
X166220941Y-36099500D01*
X166220934Y-36099501D01*
X166220201Y-36099698D01*
X166219559Y-36099682D01*
X166212889Y-36100561D01*
X166212751Y-36099519D01*
X166150352Y-36098028D01*
X166116760Y-36081328D01*
X165905009Y-35932318D01*
X165824846Y-35875907D01*
X165781350Y-35821229D01*
X165774320Y-35751714D01*
X165805988Y-35689433D01*
X165866301Y-35654161D01*
X165896208Y-35650500D01*
X167499902Y-35650500D01*
X167566941Y-35670185D01*
X167587583Y-35686819D01*
X167631284Y-35730520D01*
X167631286Y-35730521D01*
X167631290Y-35730524D01*
X167733443Y-35789501D01*
X167768216Y-35809577D01*
X167920943Y-35850500D01*
X167920945Y-35850500D01*
X168079055Y-35850500D01*
X168079057Y-35850500D01*
X168231784Y-35809577D01*
X168368716Y-35730520D01*
X168480520Y-35618716D01*
X168491326Y-35600000D01*
X168559575Y-35481788D01*
X168560938Y-35478498D01*
X168562831Y-35476148D01*
X168563641Y-35474746D01*
X168563859Y-35474872D01*
X168604778Y-35424093D01*
X168671072Y-35402027D01*
X168738771Y-35419305D01*
X168786383Y-35470441D01*
X168799500Y-35525948D01*
X168799500Y-35565891D01*
X168833608Y-35693187D01*
X168855163Y-35730520D01*
X168899500Y-35807314D01*
X168899502Y-35807316D01*
X168963181Y-35870995D01*
X168996666Y-35932318D01*
X168999500Y-35958676D01*
X168999500Y-36041323D01*
X168979815Y-36108362D01*
X168963182Y-36129004D01*
X168899500Y-36192686D01*
X168833608Y-36306812D01*
X168806081Y-36409548D01*
X168799500Y-36434108D01*
X168799500Y-36565892D01*
X168807569Y-36596006D01*
X168833608Y-36693187D01*
X168859772Y-36738504D01*
X168899500Y-36807314D01*
X168899502Y-36807316D01*
X168963181Y-36870995D01*
X168996666Y-36932318D01*
X168999500Y-36958676D01*
X168999500Y-40375500D01*
X168979815Y-40442539D01*
X168927011Y-40488294D01*
X168875500Y-40499500D01*
X161458676Y-40499500D01*
X161391637Y-40479815D01*
X161370995Y-40463181D01*
X161305229Y-40397415D01*
X161271744Y-40336092D01*
X161276728Y-40266400D01*
X161318600Y-40210467D01*
X161330904Y-40202350D01*
X161368716Y-40180520D01*
X161480520Y-40068716D01*
X161559577Y-39931784D01*
X161600500Y-39779057D01*
X161600500Y-39620943D01*
X161559577Y-39468216D01*
X161521696Y-39402603D01*
X161480524Y-39331290D01*
X161480518Y-39331282D01*
X161436819Y-39287583D01*
X161403334Y-39226260D01*
X161400500Y-39199902D01*
X161400500Y-38321560D01*
X161420185Y-38254521D01*
X161455605Y-38218461D01*
X161542162Y-38160626D01*
X161660626Y-38042162D01*
X161753703Y-37902863D01*
X161817816Y-37748082D01*
X161850500Y-37583767D01*
X161850500Y-37416233D01*
X161817816Y-37251918D01*
X161753703Y-37097137D01*
X161673434Y-36977006D01*
X161660626Y-36957837D01*
X161542162Y-36839373D01*
X161402860Y-36746295D01*
X161248082Y-36682184D01*
X161248074Y-36682182D01*
X161083771Y-36649500D01*
X161083767Y-36649500D01*
X160916233Y-36649500D01*
X160916228Y-36649500D01*
X160751925Y-36682182D01*
X160751917Y-36682184D01*
X160597139Y-36746295D01*
X160457837Y-36839373D01*
X160339373Y-36957837D01*
X160246295Y-37097139D01*
X160182184Y-37251917D01*
X160182182Y-37251925D01*
X160149500Y-37416228D01*
X160149500Y-37583771D01*
X160182182Y-37748074D01*
X160182184Y-37748082D01*
X160246295Y-37902860D01*
X160339373Y-38042162D01*
X160385030Y-38087819D01*
X160418515Y-38149142D01*
X160413531Y-38218834D01*
X160371659Y-38274767D01*
X160306195Y-38299184D01*
X160297349Y-38299500D01*
X159978147Y-38299500D01*
X159962193Y-38300995D01*
X159949061Y-38302227D01*
X159949059Y-38302227D01*
X159949055Y-38302228D01*
X159826570Y-38345088D01*
X159722152Y-38422152D01*
X159645089Y-38526568D01*
X159617040Y-38606725D01*
X159576317Y-38663500D01*
X159511364Y-38689246D01*
X159442803Y-38675789D01*
X159392401Y-38627401D01*
X159382960Y-38606730D01*
X159354911Y-38526569D01*
X159277848Y-38422152D01*
X159173431Y-38345089D01*
X159173429Y-38345088D01*
X159050940Y-38302226D01*
X159021863Y-38299500D01*
X159021859Y-38299500D01*
X158524500Y-38299500D01*
X158457461Y-38279815D01*
X158411706Y-38227011D01*
X158400500Y-38175500D01*
X158400500Y-35900000D01*
X161303765Y-35900000D01*
X161310194Y-35944138D01*
X161362964Y-36052082D01*
X161447917Y-36137035D01*
X161555857Y-36189804D01*
X161625838Y-36199999D01*
X161899999Y-36199999D01*
X161900000Y-36199998D01*
X161900000Y-35924810D01*
X161875563Y-35900000D01*
X161303765Y-35900000D01*
X158400500Y-35900000D01*
X158400500Y-35600000D01*
X161303764Y-35600000D01*
X161453973Y-35600000D01*
X161504058Y-35610565D01*
X161587680Y-35647488D01*
X161613643Y-35650500D01*
X161926002Y-35650499D01*
X161993039Y-35670183D01*
X162014345Y-35687487D01*
X162075915Y-35750000D01*
X162076000Y-35750000D01*
X162143039Y-35769685D01*
X162188794Y-35822489D01*
X162200000Y-35874000D01*
X162200000Y-36199999D01*
X162474166Y-36199999D01*
X162544141Y-36189804D01*
X162652080Y-36137036D01*
X162737040Y-36052075D01*
X162737133Y-36051946D01*
X162737304Y-36051811D01*
X162744302Y-36044814D01*
X162745147Y-36045659D01*
X162792108Y-36008824D01*
X162838050Y-35999999D01*
X163350000Y-35999999D01*
X163350000Y-34000000D01*
X162838050Y-34000000D01*
X162771011Y-33980315D01*
X162744458Y-33955029D01*
X162744303Y-33955185D01*
X162737929Y-33948811D01*
X162737133Y-33948053D01*
X162737038Y-33947920D01*
X162652082Y-33862964D01*
X162544141Y-33810195D01*
X162474162Y-33800000D01*
X162200000Y-33800000D01*
X162200000Y-34126000D01*
X162180315Y-34193039D01*
X162127511Y-34238794D01*
X162076000Y-34250000D01*
X162075362Y-34250000D01*
X162013681Y-34311681D01*
X162011147Y-34309147D01*
X161977511Y-34338294D01*
X161926000Y-34349500D01*
X161613651Y-34349500D01*
X161613627Y-34349502D01*
X161587685Y-34352510D01*
X161587675Y-34352513D01*
X161504059Y-34389434D01*
X161453973Y-34400000D01*
X161303765Y-34400000D01*
X161310194Y-34444138D01*
X161341962Y-34509121D01*
X161353720Y-34577994D01*
X161353509Y-34579081D01*
X161349500Y-34613639D01*
X161349500Y-34886348D01*
X161349502Y-34886372D01*
X161352511Y-34912316D01*
X161352512Y-34912320D01*
X161369111Y-34949915D01*
X161378181Y-35019193D01*
X161369111Y-35050083D01*
X161352513Y-35087675D01*
X161352512Y-35087678D01*
X161349500Y-35113639D01*
X161349500Y-35386348D01*
X161349502Y-35386372D01*
X161353586Y-35421585D01*
X161349852Y-35422018D01*
X161348811Y-35473739D01*
X161341962Y-35490878D01*
X161310195Y-35555857D01*
X161303764Y-35600000D01*
X158400500Y-35600000D01*
X158400500Y-34100000D01*
X161303764Y-34100000D01*
X161874638Y-34100000D01*
X161900000Y-34074638D01*
X161900000Y-33800000D01*
X161625834Y-33800000D01*
X161555858Y-33810195D01*
X161447917Y-33862964D01*
X161362964Y-33947917D01*
X161310195Y-34055858D01*
X161303764Y-34100000D01*
X158400500Y-34100000D01*
X158400500Y-31824499D01*
X158420185Y-31757460D01*
X158472989Y-31711705D01*
X158524500Y-31700499D01*
X159021852Y-31700499D01*
X159021858Y-31700499D01*
X159050939Y-31697773D01*
X159173431Y-31654911D01*
X159277848Y-31577848D01*
X159354911Y-31473431D01*
X159382959Y-31393276D01*
X159423681Y-31336500D01*
X159488633Y-31310753D01*
X159557195Y-31324209D01*
X159607598Y-31372597D01*
X159617041Y-31393276D01*
X159642051Y-31464750D01*
X159645089Y-31473431D01*
X159722152Y-31577848D01*
X159826569Y-31654911D01*
X159861915Y-31667279D01*
X159949059Y-31697773D01*
X159956647Y-31698484D01*
X159978141Y-31700500D01*
X160297350Y-31700499D01*
X160364388Y-31720183D01*
X160410143Y-31772987D01*
X160420087Y-31842146D01*
X160391062Y-31905701D01*
X160385031Y-31912179D01*
X160339373Y-31957837D01*
X160246295Y-32097139D01*
X160182184Y-32251917D01*
X160182182Y-32251925D01*
X160149500Y-32416228D01*
X160149500Y-32583771D01*
X160182182Y-32748074D01*
X160182184Y-32748082D01*
X160246295Y-32902860D01*
X160339373Y-33042162D01*
X160457837Y-33160626D01*
X160505819Y-33192686D01*
X160597137Y-33253703D01*
X160751918Y-33317816D01*
X160916228Y-33350499D01*
X160916232Y-33350500D01*
X160916233Y-33350500D01*
X161083768Y-33350500D01*
X161083769Y-33350499D01*
X161248082Y-33317816D01*
X161402863Y-33253703D01*
X161542162Y-33160626D01*
X161660626Y-33042162D01*
X161753703Y-32902863D01*
X161817816Y-32748082D01*
X161850500Y-32583767D01*
X161850500Y-32416233D01*
X161817816Y-32251918D01*
X161753703Y-32097137D01*
X161683813Y-31992539D01*
X161660626Y-31957837D01*
X161542162Y-31839373D01*
X161468592Y-31790216D01*
X161423787Y-31736604D01*
X161415080Y-31667279D01*
X161445234Y-31604252D01*
X161449784Y-31599451D01*
X161480520Y-31568716D01*
X161559577Y-31431784D01*
X161600500Y-31279057D01*
X161600500Y-31120943D01*
X161559577Y-30968216D01*
X161551198Y-30953703D01*
X161480524Y-30831290D01*
X161480518Y-30831282D01*
X161368717Y-30719481D01*
X161368712Y-30719477D01*
X161303603Y-30681887D01*
X161255388Y-30631321D01*
X161242164Y-30562714D01*
X161268132Y-30497849D01*
X161325046Y-30457320D01*
X161365603Y-30450500D01*
X164813035Y-30450500D01*
X164880074Y-30470185D01*
G37*
%TD.AperFunction*%
%TA.AperFunction,Conductor*%
G36*
X153806630Y-35050253D02*
G01*
X153864863Y-35088863D01*
X153892473Y-35149321D01*
X153917829Y-35309410D01*
X153973787Y-35481636D01*
X153973788Y-35481639D01*
X154056006Y-35642997D01*
X154162441Y-35789494D01*
X154162445Y-35789499D01*
X154290500Y-35917554D01*
X154290505Y-35917558D01*
X154300487Y-35924810D01*
X154437006Y-36023996D01*
X154492128Y-36052082D01*
X154598360Y-36106211D01*
X154598363Y-36106212D01*
X154624506Y-36114706D01*
X154770591Y-36162171D01*
X154772463Y-36162467D01*
X154773118Y-36162778D01*
X154775322Y-36163307D01*
X154775210Y-36163769D01*
X154835597Y-36192392D01*
X154872532Y-36251701D01*
X154871538Y-36321564D01*
X154832932Y-36379799D01*
X154772472Y-36407414D01*
X154758994Y-36409548D01*
X154579362Y-36467914D01*
X154411064Y-36553667D01*
X154411062Y-36553668D01*
X154303759Y-36631626D01*
X154303759Y-36631627D01*
X154808461Y-37136329D01*
X154732993Y-37179901D01*
X154639901Y-37272993D01*
X154596329Y-37348461D01*
X154091627Y-36843759D01*
X154091626Y-36843759D01*
X154013668Y-36951062D01*
X154013667Y-36951064D01*
X153927914Y-37119362D01*
X153869548Y-37298994D01*
X153867414Y-37312472D01*
X153837482Y-37375605D01*
X153778170Y-37412535D01*
X153708307Y-37411535D01*
X153650076Y-37372923D01*
X153623726Y-37315221D01*
X153623307Y-37315322D01*
X153622790Y-37313171D01*
X153622467Y-37312463D01*
X153622171Y-37310591D01*
X153592307Y-37218679D01*
X153566212Y-37138363D01*
X153566211Y-37138360D01*
X153530721Y-37068709D01*
X153483996Y-36977006D01*
X153465147Y-36951062D01*
X153377558Y-36830505D01*
X153377554Y-36830500D01*
X153249499Y-36702445D01*
X153249494Y-36702441D01*
X153102997Y-36596006D01*
X153102996Y-36596005D01*
X153102994Y-36596004D01*
X153043892Y-36565890D01*
X152941639Y-36513788D01*
X152941636Y-36513787D01*
X152769410Y-36457829D01*
X152609321Y-36432473D01*
X152546186Y-36402544D01*
X152509255Y-36343232D01*
X152510253Y-36273370D01*
X152548863Y-36215137D01*
X152609321Y-36187527D01*
X152679425Y-36176422D01*
X152769409Y-36162171D01*
X152941639Y-36106211D01*
X153102994Y-36023996D01*
X153249501Y-35917553D01*
X153377553Y-35789501D01*
X153483996Y-35642994D01*
X153566211Y-35481639D01*
X153622171Y-35309409D01*
X153640658Y-35192686D01*
X153647527Y-35149321D01*
X153677456Y-35086186D01*
X153736768Y-35049255D01*
X153806630Y-35050253D01*
G37*
%TD.AperFunction*%
%TA.AperFunction,Conductor*%
G36*
X168942539Y-29520185D02*
G01*
X168988294Y-29572989D01*
X168999500Y-29624500D01*
X168999500Y-33041323D01*
X168979815Y-33108362D01*
X168963182Y-33129004D01*
X168899500Y-33192686D01*
X168833608Y-33306812D01*
X168814653Y-33377554D01*
X168799500Y-33434108D01*
X168799500Y-33565892D01*
X168799586Y-33566212D01*
X168833608Y-33693187D01*
X168850815Y-33722989D01*
X168899500Y-33807314D01*
X168899502Y-33807316D01*
X168963181Y-33870995D01*
X168996666Y-33932318D01*
X168999500Y-33958676D01*
X168999500Y-34041323D01*
X168979815Y-34108362D01*
X168963182Y-34129004D01*
X168899500Y-34192686D01*
X168833608Y-34306812D01*
X168808639Y-34400000D01*
X168799500Y-34434108D01*
X168799500Y-34565892D01*
X168808800Y-34600599D01*
X168833608Y-34693187D01*
X168842076Y-34707853D01*
X168899500Y-34807314D01*
X168899502Y-34807316D01*
X168963181Y-34870995D01*
X168996666Y-34932318D01*
X168999500Y-34958676D01*
X168999500Y-35041323D01*
X168979815Y-35108362D01*
X168963182Y-35129004D01*
X168899500Y-35192686D01*
X168831887Y-35309794D01*
X168781319Y-35358009D01*
X168712712Y-35371231D01*
X168647848Y-35345263D01*
X168607320Y-35288349D01*
X168600500Y-35247793D01*
X168600500Y-35170945D01*
X168600500Y-35170943D01*
X168559577Y-35018216D01*
X168545488Y-34993813D01*
X168480524Y-34881290D01*
X168480518Y-34881282D01*
X168368717Y-34769481D01*
X168368709Y-34769475D01*
X168231790Y-34690426D01*
X168231786Y-34690424D01*
X168231784Y-34690423D01*
X168079057Y-34649500D01*
X167920943Y-34649500D01*
X167768216Y-34690423D01*
X167768209Y-34690426D01*
X167631290Y-34769475D01*
X167631282Y-34769481D01*
X167587583Y-34813181D01*
X167526260Y-34846666D01*
X167499902Y-34849500D01*
X165542630Y-34849500D01*
X165475591Y-34829815D01*
X165429836Y-34777011D01*
X165419892Y-34707853D01*
X165448917Y-34644297D01*
X165492544Y-34612066D01*
X165500107Y-34608726D01*
X165518514Y-34600599D01*
X165600599Y-34518514D01*
X165647488Y-34412320D01*
X165650500Y-34386357D01*
X165650499Y-34113644D01*
X165650305Y-34111976D01*
X165647489Y-34087685D01*
X165647488Y-34087682D01*
X165647488Y-34087680D01*
X165641729Y-34074638D01*
X165600599Y-33981486D01*
X165518514Y-33899401D01*
X165424413Y-33857851D01*
X165371037Y-33812765D01*
X165350510Y-33745979D01*
X165350500Y-33744417D01*
X165350500Y-31586603D01*
X165370185Y-31519564D01*
X165422989Y-31473809D01*
X165492147Y-31463865D01*
X165555703Y-31492890D01*
X165574270Y-31512970D01*
X165622150Y-31577846D01*
X165622151Y-31577846D01*
X165622152Y-31577848D01*
X165726569Y-31654911D01*
X165761915Y-31667279D01*
X165849059Y-31697773D01*
X165856647Y-31698484D01*
X165878141Y-31700500D01*
X166521858Y-31700499D01*
X166550939Y-31697773D01*
X166673431Y-31654911D01*
X166777848Y-31577848D01*
X166854911Y-31473431D01*
X166857115Y-31467132D01*
X166897833Y-31410358D01*
X166962785Y-31384609D01*
X167031347Y-31398062D01*
X167081751Y-31446448D01*
X167090337Y-31464750D01*
X167104381Y-31502403D01*
X167104384Y-31502407D01*
X167187097Y-31612902D01*
X167297592Y-31695615D01*
X167297594Y-31695616D01*
X167426922Y-31743854D01*
X167484078Y-31749999D01*
X167649999Y-31749999D01*
X167950000Y-31749999D01*
X168115909Y-31749999D01*
X168115918Y-31749998D01*
X168173081Y-31743854D01*
X168302401Y-31695618D01*
X168302407Y-31695615D01*
X168412902Y-31612902D01*
X168495615Y-31502407D01*
X168495616Y-31502405D01*
X168543854Y-31373077D01*
X168549999Y-31315929D01*
X168550000Y-31315912D01*
X168550000Y-31150000D01*
X167950000Y-31150000D01*
X167950000Y-31749999D01*
X167649999Y-31749999D01*
X167650000Y-31749998D01*
X167650000Y-30850000D01*
X167950000Y-30850000D01*
X168549999Y-30850000D01*
X168549999Y-30684090D01*
X168549998Y-30684081D01*
X168543854Y-30626918D01*
X168495618Y-30497598D01*
X168495615Y-30497592D01*
X168412902Y-30387097D01*
X168302407Y-30304384D01*
X168302405Y-30304383D01*
X168173077Y-30256145D01*
X168115929Y-30250000D01*
X167950000Y-30250000D01*
X167950000Y-30850000D01*
X167650000Y-30850000D01*
X167650000Y-30250000D01*
X167484091Y-30250000D01*
X167484081Y-30250001D01*
X167426918Y-30256145D01*
X167297598Y-30304381D01*
X167297592Y-30304384D01*
X167187097Y-30387097D01*
X167104384Y-30497592D01*
X167104381Y-30497596D01*
X167090337Y-30535250D01*
X167048464Y-30591183D01*
X166983000Y-30615598D01*
X166914727Y-30600745D01*
X166865323Y-30551339D01*
X166857118Y-30532876D01*
X166854911Y-30526569D01*
X166777848Y-30422152D01*
X166700865Y-30365336D01*
X166658616Y-30309689D01*
X166650500Y-30265567D01*
X166650500Y-29940693D01*
X166650500Y-29940691D01*
X166619799Y-29826114D01*
X166619799Y-29826113D01*
X166560489Y-29723386D01*
X166549284Y-29712181D01*
X166515799Y-29650858D01*
X166520783Y-29581166D01*
X166562655Y-29525233D01*
X166628119Y-29500816D01*
X166636965Y-29500500D01*
X168875500Y-29500500D01*
X168942539Y-29520185D01*
G37*
%TD.AperFunction*%
%TD*%
%TA.AperFunction,Conductor*%
%TO.N,Board_2-GND*%
G36*
X133667371Y-44470185D02*
G01*
X133713126Y-44522989D01*
X133714893Y-44527048D01*
X133746293Y-44602856D01*
X133746300Y-44602869D01*
X133839373Y-44742161D01*
X133839376Y-44742165D01*
X133957837Y-44860626D01*
X134050494Y-44922537D01*
X134097137Y-44953703D01*
X134251918Y-45017816D01*
X134416228Y-45050499D01*
X134416232Y-45050500D01*
X134416233Y-45050500D01*
X134583768Y-45050500D01*
X134583769Y-45050499D01*
X134748082Y-45017816D01*
X134902863Y-44953703D01*
X135042162Y-44860626D01*
X135160626Y-44742162D01*
X135253703Y-44602863D01*
X135258541Y-44591183D01*
X135285107Y-44527048D01*
X135328948Y-44472644D01*
X135395242Y-44450579D01*
X135399668Y-44450500D01*
X135475500Y-44450500D01*
X135542539Y-44470185D01*
X135588294Y-44522989D01*
X135599500Y-44574500D01*
X135599500Y-52947273D01*
X135599500Y-53052727D01*
X135626793Y-53154587D01*
X135679520Y-53245913D01*
X135754087Y-53320480D01*
X135845413Y-53373207D01*
X135947273Y-53400500D01*
X135947274Y-53400500D01*
X135947464Y-53400525D01*
X135947611Y-53400590D01*
X135955123Y-53402603D01*
X135954809Y-53403774D01*
X136011361Y-53428791D01*
X136040909Y-53465522D01*
X136045088Y-53473430D01*
X136045089Y-53473431D01*
X136122152Y-53577848D01*
X136226569Y-53654911D01*
X136267399Y-53669198D01*
X136349059Y-53697773D01*
X136356647Y-53698484D01*
X136378141Y-53700500D01*
X137021858Y-53700499D01*
X137050939Y-53697773D01*
X137173431Y-53654911D01*
X137277848Y-53577848D01*
X137354911Y-53473431D01*
X137379695Y-53402603D01*
X137382959Y-53393276D01*
X137423681Y-53336500D01*
X137488633Y-53310753D01*
X137557195Y-53324209D01*
X137607598Y-53372597D01*
X137617041Y-53393276D01*
X137643264Y-53468216D01*
X137645089Y-53473431D01*
X137722152Y-53577848D01*
X137826569Y-53654911D01*
X137867399Y-53669198D01*
X137949059Y-53697773D01*
X137956647Y-53698484D01*
X137978141Y-53700500D01*
X138283302Y-53700499D01*
X138350341Y-53720183D01*
X138396096Y-53772987D01*
X138403075Y-53792400D01*
X138419010Y-53851869D01*
X138440423Y-53931785D01*
X138440426Y-53931790D01*
X138519475Y-54068709D01*
X138519479Y-54068714D01*
X138519480Y-54068716D01*
X138631284Y-54180520D01*
X138631285Y-54180521D01*
X138631287Y-54180522D01*
X138669089Y-54202347D01*
X138717304Y-54252914D01*
X138730528Y-54321521D01*
X138704560Y-54386386D01*
X138694771Y-54397415D01*
X138692686Y-54399499D01*
X138692686Y-54399500D01*
X138629003Y-54463182D01*
X138567683Y-54496666D01*
X138541324Y-54499500D01*
X138458676Y-54499500D01*
X138391637Y-54479815D01*
X138370995Y-54463181D01*
X138307316Y-54399502D01*
X138307314Y-54399500D01*
X138250250Y-54366554D01*
X138193187Y-54333608D01*
X138092427Y-54306610D01*
X138065892Y-54299500D01*
X137934108Y-54299500D01*
X137806812Y-54333608D01*
X137692686Y-54399500D01*
X137692683Y-54399502D01*
X137629005Y-54463181D01*
X137567682Y-54496666D01*
X137541324Y-54499500D01*
X137458676Y-54499500D01*
X137391637Y-54479815D01*
X137370995Y-54463181D01*
X137307316Y-54399502D01*
X137307314Y-54399500D01*
X137250250Y-54366554D01*
X137193187Y-54333608D01*
X137092427Y-54306610D01*
X137065892Y-54299500D01*
X136934108Y-54299500D01*
X136806812Y-54333608D01*
X136692686Y-54399500D01*
X136692683Y-54399502D01*
X136629005Y-54463181D01*
X136567682Y-54496666D01*
X136541324Y-54499500D01*
X136458676Y-54499500D01*
X136391637Y-54479815D01*
X136370995Y-54463181D01*
X136307316Y-54399502D01*
X136307314Y-54399500D01*
X136250250Y-54366554D01*
X136193187Y-54333608D01*
X136092427Y-54306610D01*
X136065892Y-54299500D01*
X135934108Y-54299500D01*
X135806812Y-54333608D01*
X135692686Y-54399500D01*
X135692683Y-54399502D01*
X135629005Y-54463181D01*
X135567682Y-54496666D01*
X135541324Y-54499500D01*
X134775948Y-54499500D01*
X134708909Y-54479815D01*
X134663154Y-54427011D01*
X134653210Y-54357853D01*
X134682235Y-54294297D01*
X134724747Y-54263642D01*
X134724746Y-54263641D01*
X134724763Y-54263631D01*
X134728498Y-54260938D01*
X134731781Y-54259577D01*
X134731784Y-54259577D01*
X134731786Y-54259575D01*
X134731788Y-54259575D01*
X134868709Y-54180524D01*
X134868708Y-54180524D01*
X134868716Y-54180520D01*
X134980520Y-54068716D01*
X135059577Y-53931784D01*
X135100500Y-53779057D01*
X135100500Y-53620943D01*
X135059577Y-53468216D01*
X135021696Y-53402603D01*
X134980524Y-53331290D01*
X134980518Y-53331282D01*
X134868717Y-53219481D01*
X134868709Y-53219475D01*
X134731790Y-53140426D01*
X134731786Y-53140424D01*
X134731784Y-53140423D01*
X134579057Y-53099500D01*
X134420943Y-53099500D01*
X134268216Y-53140423D01*
X134268209Y-53140426D01*
X134131290Y-53219475D01*
X134131282Y-53219481D01*
X134019481Y-53331282D01*
X134019475Y-53331290D01*
X133940426Y-53468209D01*
X133940423Y-53468216D01*
X133899500Y-53620943D01*
X133899500Y-53779057D01*
X133928864Y-53888643D01*
X133940423Y-53931783D01*
X133940426Y-53931790D01*
X134019475Y-54068709D01*
X134019479Y-54068714D01*
X134019480Y-54068716D01*
X134131284Y-54180520D01*
X134131286Y-54180521D01*
X134131290Y-54180524D01*
X134268211Y-54259575D01*
X134271502Y-54260938D01*
X134273851Y-54262831D01*
X134275254Y-54263641D01*
X134275127Y-54263859D01*
X134325907Y-54304778D01*
X134347973Y-54371072D01*
X134330695Y-54438771D01*
X134279559Y-54486383D01*
X134224052Y-54499500D01*
X133347019Y-54499500D01*
X133279980Y-54479815D01*
X133234225Y-54427011D01*
X133224281Y-54357853D01*
X133243917Y-54306610D01*
X133297563Y-54226321D01*
X133297571Y-54226307D01*
X133365413Y-54062520D01*
X133365415Y-54062512D01*
X133399999Y-53888646D01*
X133400000Y-53888643D01*
X133400000Y-53711357D01*
X133399999Y-53711353D01*
X133365415Y-53537487D01*
X133365413Y-53537479D01*
X133297570Y-53373690D01*
X133233831Y-53278299D01*
X132693746Y-53818384D01*
X132632423Y-53851869D01*
X132580619Y-53852064D01*
X132464516Y-53827720D01*
X132420292Y-53851869D01*
X132350600Y-53846885D01*
X132306253Y-53818384D01*
X131766167Y-53278298D01*
X131766167Y-53278299D01*
X131702432Y-53373686D01*
X131702428Y-53373693D01*
X131634586Y-53537479D01*
X131634584Y-53537487D01*
X131600000Y-53711353D01*
X131600000Y-53888646D01*
X131634584Y-54062512D01*
X131634586Y-54062520D01*
X131702428Y-54226307D01*
X131702436Y-54226321D01*
X131756083Y-54306610D01*
X131776961Y-54373287D01*
X131758476Y-54440667D01*
X131706497Y-54487357D01*
X131652981Y-54499500D01*
X128124500Y-54499500D01*
X128057461Y-54479815D01*
X128011706Y-54427011D01*
X128000500Y-54375500D01*
X128000500Y-50958676D01*
X128020185Y-50891637D01*
X128036819Y-50870995D01*
X128068441Y-50839373D01*
X128100500Y-50807314D01*
X128166392Y-50693186D01*
X128200500Y-50565892D01*
X128200500Y-50434108D01*
X128166392Y-50306814D01*
X128100500Y-50192686D01*
X128036818Y-50129004D01*
X128003334Y-50067680D01*
X128000500Y-50041323D01*
X128000500Y-49958676D01*
X128020185Y-49891637D01*
X128036819Y-49870995D01*
X128057315Y-49850499D01*
X128100500Y-49807314D01*
X128166392Y-49693186D01*
X128200500Y-49565892D01*
X128200500Y-49434108D01*
X128166392Y-49306814D01*
X128100500Y-49192686D01*
X128036818Y-49129004D01*
X128003334Y-49067680D01*
X128000500Y-49041323D01*
X128000500Y-48958676D01*
X128020185Y-48891637D01*
X128036819Y-48870995D01*
X128061148Y-48846666D01*
X128100500Y-48807314D01*
X128166392Y-48693186D01*
X128200500Y-48565892D01*
X128200500Y-48434108D01*
X128166392Y-48306814D01*
X128100500Y-48192686D01*
X128036818Y-48129004D01*
X128003334Y-48067680D01*
X128000500Y-48041323D01*
X128000500Y-47958676D01*
X128020185Y-47891637D01*
X128036819Y-47870995D01*
X128058314Y-47849500D01*
X128100500Y-47807314D01*
X128166392Y-47693186D01*
X128200500Y-47565892D01*
X128200500Y-47434108D01*
X128166392Y-47306814D01*
X128100500Y-47192686D01*
X128036818Y-47129004D01*
X128003334Y-47067680D01*
X128000500Y-47041323D01*
X128000500Y-46825408D01*
X128020185Y-46758369D01*
X128072989Y-46712614D01*
X128142147Y-46702670D01*
X128205703Y-46731695D01*
X128231887Y-46763408D01*
X128239508Y-46776609D01*
X128239510Y-46776611D01*
X128239511Y-46776613D01*
X128323387Y-46860489D01*
X128426114Y-46919799D01*
X128540691Y-46950500D01*
X129225500Y-46950500D01*
X129292539Y-46970185D01*
X129338294Y-47022989D01*
X129349500Y-47074500D01*
X129349500Y-47424678D01*
X129364032Y-47497735D01*
X129364033Y-47497739D01*
X129364034Y-47497740D01*
X129419399Y-47580601D01*
X129481614Y-47622171D01*
X129502260Y-47635966D01*
X129502264Y-47635967D01*
X129575321Y-47650499D01*
X129575324Y-47650500D01*
X130342869Y-47650500D01*
X130409908Y-47670185D01*
X130455663Y-47722989D01*
X130465607Y-47792147D01*
X130436582Y-47855703D01*
X130377804Y-47893477D01*
X130362267Y-47896973D01*
X130230589Y-47917829D01*
X130058363Y-47973787D01*
X130058360Y-47973788D01*
X129897002Y-48056006D01*
X129750505Y-48162441D01*
X129750500Y-48162445D01*
X129622445Y-48290500D01*
X129622441Y-48290505D01*
X129516006Y-48437002D01*
X129433788Y-48598360D01*
X129433787Y-48598363D01*
X129377829Y-48770589D01*
X129349500Y-48949448D01*
X129349500Y-49130551D01*
X129377829Y-49309410D01*
X129433787Y-49481636D01*
X129433788Y-49481639D01*
X129516006Y-49642997D01*
X129622441Y-49789494D01*
X129622445Y-49789499D01*
X129750500Y-49917554D01*
X129750505Y-49917558D01*
X129760487Y-49924810D01*
X129897006Y-50023996D01*
X129952128Y-50052082D01*
X130058360Y-50106211D01*
X130058363Y-50106212D01*
X130084506Y-50114706D01*
X130230591Y-50162171D01*
X130303639Y-50173740D01*
X130390678Y-50187527D01*
X130453813Y-50217456D01*
X130490744Y-50276768D01*
X130489746Y-50346631D01*
X130451136Y-50404863D01*
X130390678Y-50432473D01*
X130230589Y-50457829D01*
X130058363Y-50513787D01*
X130058360Y-50513788D01*
X129897002Y-50596006D01*
X129750505Y-50702441D01*
X129750500Y-50702445D01*
X129622445Y-50830500D01*
X129622441Y-50830505D01*
X129516006Y-50977002D01*
X129433788Y-51138360D01*
X129433787Y-51138363D01*
X129377829Y-51310589D01*
X129349500Y-51489448D01*
X129349500Y-51670551D01*
X129377829Y-51849410D01*
X129433787Y-52021636D01*
X129433788Y-52021639D01*
X129489664Y-52131300D01*
X129498755Y-52149142D01*
X129516006Y-52182997D01*
X129622441Y-52329494D01*
X129622445Y-52329499D01*
X129750500Y-52457554D01*
X129750505Y-52457558D01*
X129845492Y-52526569D01*
X129897006Y-52563996D01*
X129980089Y-52606329D01*
X130058360Y-52646211D01*
X130058363Y-52646212D01*
X130144476Y-52674191D01*
X130230591Y-52702171D01*
X130302057Y-52713490D01*
X130409449Y-52730500D01*
X130409454Y-52730500D01*
X130590551Y-52730500D01*
X130677259Y-52716765D01*
X130769409Y-52702171D01*
X130941639Y-52646211D01*
X131102994Y-52563996D01*
X131249501Y-52457553D01*
X131377553Y-52329501D01*
X131483996Y-52182994D01*
X131566211Y-52021639D01*
X131622171Y-51849409D01*
X131622467Y-51847539D01*
X131622777Y-51846885D01*
X131623307Y-51844678D01*
X131623770Y-51844789D01*
X131652390Y-51784404D01*
X131711698Y-51747468D01*
X131781561Y-51748460D01*
X131839797Y-51787065D01*
X131867414Y-51847528D01*
X131869548Y-51861004D01*
X131927914Y-52040637D01*
X132013666Y-52208933D01*
X132091627Y-52316239D01*
X132596329Y-51811538D01*
X132639901Y-51887007D01*
X132732993Y-51980099D01*
X132808460Y-52023670D01*
X132303759Y-52528370D01*
X132303759Y-52528371D01*
X132411066Y-52606333D01*
X132527216Y-52665515D01*
X132578012Y-52713490D01*
X132594807Y-52781311D01*
X132572270Y-52847446D01*
X132517554Y-52890897D01*
X132470921Y-52900000D01*
X132411353Y-52900000D01*
X132237487Y-52934584D01*
X132237479Y-52934586D01*
X132073693Y-53002428D01*
X132073686Y-53002432D01*
X131978299Y-53066167D01*
X131978298Y-53066167D01*
X132492279Y-53580148D01*
X132505043Y-53582824D01*
X133021700Y-53066167D01*
X132933303Y-53007103D01*
X132888497Y-52953491D01*
X132879790Y-52884166D01*
X132909944Y-52821138D01*
X132969387Y-52784418D01*
X133002193Y-52780000D01*
X133134447Y-52780000D01*
X133321002Y-52750451D01*
X133500637Y-52692085D01*
X133668940Y-52606329D01*
X133776239Y-52528373D01*
X133776240Y-52528371D01*
X133271538Y-52023670D01*
X133347007Y-51980099D01*
X133440099Y-51887007D01*
X133483670Y-51811539D01*
X133988371Y-52316240D01*
X133988373Y-52316239D01*
X134066329Y-52208940D01*
X134152085Y-52040637D01*
X134210451Y-51861002D01*
X134240000Y-51674447D01*
X134240000Y-51485552D01*
X134210451Y-51298997D01*
X134152085Y-51119362D01*
X134066333Y-50951066D01*
X133988371Y-50843759D01*
X133988370Y-50843759D01*
X133483670Y-51348460D01*
X133440099Y-51272993D01*
X133347007Y-51179901D01*
X133271538Y-51136329D01*
X133776239Y-50631627D01*
X133668933Y-50553666D01*
X133500637Y-50467914D01*
X133321004Y-50409548D01*
X133307528Y-50407414D01*
X133244394Y-50377483D01*
X133207464Y-50318171D01*
X133208464Y-50248308D01*
X133247075Y-50190076D01*
X133304778Y-50163727D01*
X133304678Y-50163307D01*
X133306832Y-50162789D01*
X133307539Y-50162467D01*
X133309409Y-50162171D01*
X133481639Y-50106211D01*
X133642994Y-50023996D01*
X133789501Y-49917553D01*
X133917553Y-49789501D01*
X134023996Y-49642994D01*
X134106211Y-49481639D01*
X134162171Y-49309409D01*
X134180658Y-49192686D01*
X134190500Y-49130551D01*
X134190500Y-48949448D01*
X134171551Y-48829815D01*
X134162171Y-48770591D01*
X134123152Y-48650500D01*
X134106212Y-48598363D01*
X134106211Y-48598360D01*
X134077740Y-48542484D01*
X134023996Y-48437006D01*
X133962608Y-48352512D01*
X133917558Y-48290505D01*
X133917554Y-48290500D01*
X133789499Y-48162445D01*
X133789494Y-48162441D01*
X133642997Y-48056006D01*
X133642996Y-48056005D01*
X133642994Y-48056004D01*
X133591300Y-48029664D01*
X133481639Y-47973788D01*
X133481636Y-47973787D01*
X133309410Y-47917829D01*
X133149321Y-47892473D01*
X133086186Y-47862544D01*
X133049255Y-47803232D01*
X133050253Y-47733370D01*
X133088863Y-47675137D01*
X133149321Y-47647527D01*
X133222310Y-47635966D01*
X133309409Y-47622171D01*
X133481639Y-47566211D01*
X133642994Y-47483996D01*
X133789501Y-47377553D01*
X133917553Y-47249501D01*
X134023996Y-47102994D01*
X134106211Y-46941639D01*
X134162171Y-46769409D01*
X134179954Y-46657131D01*
X134190500Y-46590551D01*
X134190500Y-46409448D01*
X134174019Y-46305397D01*
X134162171Y-46230591D01*
X134106211Y-46058361D01*
X134106211Y-46058360D01*
X134064761Y-45977011D01*
X134023996Y-45897006D01*
X133982124Y-45839374D01*
X133917558Y-45750505D01*
X133917554Y-45750500D01*
X133789499Y-45622445D01*
X133789494Y-45622441D01*
X133642997Y-45516006D01*
X133642996Y-45516005D01*
X133642994Y-45516004D01*
X133585292Y-45486603D01*
X133481639Y-45433788D01*
X133481636Y-45433787D01*
X133309410Y-45377829D01*
X133130551Y-45349500D01*
X133130546Y-45349500D01*
X132949454Y-45349500D01*
X132949449Y-45349500D01*
X132770589Y-45377829D01*
X132598363Y-45433787D01*
X132598360Y-45433788D01*
X132437002Y-45516006D01*
X132290505Y-45622441D01*
X132290500Y-45622445D01*
X132162445Y-45750500D01*
X132162441Y-45750505D01*
X132056006Y-45897002D01*
X131973788Y-46058360D01*
X131973787Y-46058363D01*
X131917829Y-46230589D01*
X131896973Y-46362266D01*
X131867044Y-46425401D01*
X131807732Y-46462332D01*
X131737869Y-46461334D01*
X131679637Y-46422724D01*
X131651523Y-46358760D01*
X131650500Y-46342868D01*
X131650500Y-45575323D01*
X131650499Y-45575321D01*
X131635967Y-45502264D01*
X131635966Y-45502260D01*
X131628134Y-45490539D01*
X131580601Y-45419399D01*
X131497740Y-45364034D01*
X131497739Y-45364033D01*
X131497735Y-45364032D01*
X131424677Y-45349500D01*
X131424674Y-45349500D01*
X129575326Y-45349500D01*
X129575323Y-45349500D01*
X129502264Y-45364032D01*
X129502260Y-45364033D01*
X129419399Y-45419399D01*
X129364033Y-45502260D01*
X129364032Y-45502264D01*
X129349500Y-45575321D01*
X129349500Y-45925500D01*
X129329815Y-45992539D01*
X129277011Y-46038294D01*
X129225500Y-46049500D01*
X129174500Y-46049500D01*
X129107461Y-46029815D01*
X129061706Y-45977011D01*
X129050500Y-45925500D01*
X129050500Y-44574500D01*
X129070185Y-44507461D01*
X129122989Y-44461706D01*
X129174500Y-44450500D01*
X133600332Y-44450500D01*
X133667371Y-44470185D01*
G37*
%TD.AperFunction*%
%TA.AperFunction,Conductor*%
G36*
X142880074Y-44470185D02*
G01*
X142925829Y-44522989D01*
X142935773Y-44592147D01*
X142906748Y-44655703D01*
X142900716Y-44662181D01*
X142589513Y-44973383D01*
X142589511Y-44973386D01*
X142530199Y-45076114D01*
X142499501Y-45190689D01*
X142499501Y-45309310D01*
X142530201Y-45423888D01*
X142532884Y-45428534D01*
X142549500Y-45490539D01*
X142549500Y-47744417D01*
X142529815Y-47811456D01*
X142477011Y-47857211D01*
X142475587Y-47857851D01*
X142381487Y-47899400D01*
X142317205Y-47963682D01*
X142255881Y-47997166D01*
X142229524Y-48000000D01*
X141650000Y-48000000D01*
X141650000Y-49999999D01*
X142229524Y-49999999D01*
X142296563Y-50019684D01*
X142317205Y-50036318D01*
X142381486Y-50100599D01*
X142487680Y-50147488D01*
X142513643Y-50150500D01*
X142783949Y-50150499D01*
X142850988Y-50170183D01*
X142855310Y-50173091D01*
X143181375Y-50402544D01*
X143594393Y-50693186D01*
X143658793Y-50738504D01*
X143702290Y-50793183D01*
X143707204Y-50807810D01*
X143740423Y-50931784D01*
X143740424Y-50931785D01*
X143740426Y-50931790D01*
X143819475Y-51068709D01*
X143819479Y-51068714D01*
X143819480Y-51068716D01*
X143931284Y-51180520D01*
X143931286Y-51180521D01*
X143931290Y-51180524D01*
X144054948Y-51251917D01*
X144068216Y-51259577D01*
X144220943Y-51300500D01*
X144220945Y-51300500D01*
X144379055Y-51300500D01*
X144379057Y-51300500D01*
X144531784Y-51259577D01*
X144668716Y-51180520D01*
X144780520Y-51068716D01*
X144859577Y-50931784D01*
X144900500Y-50779057D01*
X144900500Y-50620943D01*
X144859577Y-50468216D01*
X144837225Y-50429500D01*
X144780524Y-50331290D01*
X144780518Y-50331282D01*
X144668717Y-50219481D01*
X144668709Y-50219475D01*
X144531790Y-50140426D01*
X144531786Y-50140424D01*
X144531784Y-50140423D01*
X144379057Y-50099500D01*
X144220943Y-50099500D01*
X144220941Y-50099500D01*
X144220934Y-50099501D01*
X144220201Y-50099698D01*
X144219559Y-50099682D01*
X144212889Y-50100561D01*
X144212751Y-50099519D01*
X144150352Y-50098028D01*
X144116760Y-50081328D01*
X143905009Y-49932318D01*
X143824846Y-49875907D01*
X143781350Y-49821229D01*
X143774320Y-49751714D01*
X143805988Y-49689433D01*
X143866301Y-49654161D01*
X143896208Y-49650500D01*
X145499902Y-49650500D01*
X145566941Y-49670185D01*
X145587583Y-49686819D01*
X145631284Y-49730520D01*
X145631286Y-49730521D01*
X145631290Y-49730524D01*
X145733443Y-49789501D01*
X145768216Y-49809577D01*
X145920943Y-49850500D01*
X145920945Y-49850500D01*
X146079055Y-49850500D01*
X146079057Y-49850500D01*
X146231784Y-49809577D01*
X146368716Y-49730520D01*
X146480520Y-49618716D01*
X146491326Y-49600000D01*
X146559575Y-49481788D01*
X146560938Y-49478498D01*
X146562831Y-49476148D01*
X146563641Y-49474746D01*
X146563859Y-49474872D01*
X146604778Y-49424093D01*
X146671072Y-49402027D01*
X146738771Y-49419305D01*
X146786383Y-49470441D01*
X146799500Y-49525948D01*
X146799500Y-49565891D01*
X146833608Y-49693187D01*
X146855163Y-49730520D01*
X146899500Y-49807314D01*
X146899502Y-49807316D01*
X146963181Y-49870995D01*
X146996666Y-49932318D01*
X146999500Y-49958676D01*
X146999500Y-50041323D01*
X146979815Y-50108362D01*
X146963182Y-50129004D01*
X146899500Y-50192686D01*
X146833608Y-50306812D01*
X146806081Y-50409548D01*
X146799500Y-50434108D01*
X146799500Y-50565892D01*
X146807569Y-50596006D01*
X146833608Y-50693187D01*
X146859772Y-50738504D01*
X146899500Y-50807314D01*
X146899502Y-50807316D01*
X146963181Y-50870995D01*
X146996666Y-50932318D01*
X146999500Y-50958676D01*
X146999500Y-54375500D01*
X146979815Y-54442539D01*
X146927011Y-54488294D01*
X146875500Y-54499500D01*
X139458676Y-54499500D01*
X139391637Y-54479815D01*
X139370995Y-54463181D01*
X139305229Y-54397415D01*
X139271744Y-54336092D01*
X139276728Y-54266400D01*
X139318600Y-54210467D01*
X139330904Y-54202350D01*
X139368716Y-54180520D01*
X139480520Y-54068716D01*
X139559577Y-53931784D01*
X139600500Y-53779057D01*
X139600500Y-53620943D01*
X139559577Y-53468216D01*
X139521696Y-53402603D01*
X139480524Y-53331290D01*
X139480518Y-53331282D01*
X139436819Y-53287583D01*
X139403334Y-53226260D01*
X139400500Y-53199902D01*
X139400500Y-52321560D01*
X139420185Y-52254521D01*
X139455605Y-52218461D01*
X139542162Y-52160626D01*
X139660626Y-52042162D01*
X139753703Y-51902863D01*
X139817816Y-51748082D01*
X139850500Y-51583767D01*
X139850500Y-51416233D01*
X139817816Y-51251918D01*
X139753703Y-51097137D01*
X139673434Y-50977006D01*
X139660626Y-50957837D01*
X139542162Y-50839373D01*
X139402860Y-50746295D01*
X139248082Y-50682184D01*
X139248074Y-50682182D01*
X139083771Y-50649500D01*
X139083767Y-50649500D01*
X138916233Y-50649500D01*
X138916228Y-50649500D01*
X138751925Y-50682182D01*
X138751917Y-50682184D01*
X138597139Y-50746295D01*
X138457837Y-50839373D01*
X138339373Y-50957837D01*
X138246295Y-51097139D01*
X138182184Y-51251917D01*
X138182182Y-51251925D01*
X138149500Y-51416228D01*
X138149500Y-51583771D01*
X138182182Y-51748074D01*
X138182184Y-51748082D01*
X138246295Y-51902860D01*
X138339373Y-52042162D01*
X138385030Y-52087819D01*
X138418515Y-52149142D01*
X138413531Y-52218834D01*
X138371659Y-52274767D01*
X138306195Y-52299184D01*
X138297349Y-52299500D01*
X137978147Y-52299500D01*
X137962193Y-52300995D01*
X137949061Y-52302227D01*
X137949059Y-52302227D01*
X137949055Y-52302228D01*
X137826570Y-52345088D01*
X137722152Y-52422152D01*
X137645089Y-52526568D01*
X137617040Y-52606725D01*
X137576317Y-52663500D01*
X137511364Y-52689246D01*
X137442803Y-52675789D01*
X137392401Y-52627401D01*
X137382960Y-52606730D01*
X137354911Y-52526569D01*
X137277848Y-52422152D01*
X137173431Y-52345089D01*
X137173429Y-52345088D01*
X137050940Y-52302226D01*
X137021863Y-52299500D01*
X137021859Y-52299500D01*
X136524500Y-52299500D01*
X136457461Y-52279815D01*
X136411706Y-52227011D01*
X136400500Y-52175500D01*
X136400500Y-49900000D01*
X139303765Y-49900000D01*
X139310194Y-49944138D01*
X139362964Y-50052082D01*
X139447917Y-50137035D01*
X139555857Y-50189804D01*
X139625838Y-50199999D01*
X139899999Y-50199999D01*
X139900000Y-50199998D01*
X139900000Y-49924810D01*
X139875563Y-49900000D01*
X139303765Y-49900000D01*
X136400500Y-49900000D01*
X136400500Y-49600000D01*
X139303764Y-49600000D01*
X139453973Y-49600000D01*
X139504058Y-49610565D01*
X139587680Y-49647488D01*
X139613643Y-49650500D01*
X139926002Y-49650499D01*
X139993039Y-49670183D01*
X140014345Y-49687487D01*
X140075915Y-49750000D01*
X140076000Y-49750000D01*
X140143039Y-49769685D01*
X140188794Y-49822489D01*
X140200000Y-49874000D01*
X140200000Y-50199999D01*
X140474166Y-50199999D01*
X140544141Y-50189804D01*
X140652080Y-50137036D01*
X140737040Y-50052075D01*
X140737133Y-50051946D01*
X140737304Y-50051811D01*
X140744302Y-50044814D01*
X140745147Y-50045659D01*
X140792108Y-50008824D01*
X140838050Y-49999999D01*
X141350000Y-49999999D01*
X141350000Y-48000000D01*
X140838050Y-48000000D01*
X140771011Y-47980315D01*
X140744458Y-47955029D01*
X140744303Y-47955185D01*
X140737929Y-47948811D01*
X140737133Y-47948053D01*
X140737038Y-47947920D01*
X140652082Y-47862964D01*
X140544141Y-47810195D01*
X140474162Y-47800000D01*
X140200000Y-47800000D01*
X140200000Y-48126000D01*
X140180315Y-48193039D01*
X140127511Y-48238794D01*
X140076000Y-48250000D01*
X140075362Y-48250000D01*
X140013681Y-48311681D01*
X140011147Y-48309147D01*
X139977511Y-48338294D01*
X139926000Y-48349500D01*
X139613651Y-48349500D01*
X139613627Y-48349502D01*
X139587685Y-48352510D01*
X139587675Y-48352513D01*
X139504059Y-48389434D01*
X139453973Y-48400000D01*
X139303765Y-48400000D01*
X139310194Y-48444138D01*
X139341962Y-48509121D01*
X139353720Y-48577994D01*
X139353509Y-48579081D01*
X139349500Y-48613639D01*
X139349500Y-48886348D01*
X139349502Y-48886372D01*
X139352511Y-48912316D01*
X139352512Y-48912320D01*
X139369111Y-48949915D01*
X139378181Y-49019193D01*
X139369111Y-49050083D01*
X139352513Y-49087675D01*
X139352512Y-49087678D01*
X139349500Y-49113639D01*
X139349500Y-49386348D01*
X139349502Y-49386372D01*
X139353586Y-49421585D01*
X139349852Y-49422018D01*
X139348811Y-49473739D01*
X139341962Y-49490878D01*
X139310195Y-49555857D01*
X139303764Y-49600000D01*
X136400500Y-49600000D01*
X136400500Y-48100000D01*
X139303764Y-48100000D01*
X139874638Y-48100000D01*
X139900000Y-48074638D01*
X139900000Y-47800000D01*
X139625834Y-47800000D01*
X139555858Y-47810195D01*
X139447917Y-47862964D01*
X139362964Y-47947917D01*
X139310195Y-48055858D01*
X139303764Y-48100000D01*
X136400500Y-48100000D01*
X136400500Y-45824499D01*
X136420185Y-45757460D01*
X136472989Y-45711705D01*
X136524500Y-45700499D01*
X137021852Y-45700499D01*
X137021858Y-45700499D01*
X137050939Y-45697773D01*
X137173431Y-45654911D01*
X137277848Y-45577848D01*
X137354911Y-45473431D01*
X137382959Y-45393276D01*
X137423681Y-45336500D01*
X137488633Y-45310753D01*
X137557195Y-45324209D01*
X137607598Y-45372597D01*
X137617041Y-45393276D01*
X137642051Y-45464750D01*
X137645089Y-45473431D01*
X137722152Y-45577848D01*
X137826569Y-45654911D01*
X137861915Y-45667279D01*
X137949059Y-45697773D01*
X137956647Y-45698484D01*
X137978141Y-45700500D01*
X138297350Y-45700499D01*
X138364388Y-45720183D01*
X138410143Y-45772987D01*
X138420087Y-45842146D01*
X138391062Y-45905701D01*
X138385031Y-45912179D01*
X138339373Y-45957837D01*
X138246295Y-46097139D01*
X138182184Y-46251917D01*
X138182182Y-46251925D01*
X138149500Y-46416228D01*
X138149500Y-46583771D01*
X138182182Y-46748074D01*
X138182184Y-46748082D01*
X138246295Y-46902860D01*
X138339373Y-47042162D01*
X138457837Y-47160626D01*
X138505819Y-47192686D01*
X138597137Y-47253703D01*
X138751918Y-47317816D01*
X138916228Y-47350499D01*
X138916232Y-47350500D01*
X138916233Y-47350500D01*
X139083768Y-47350500D01*
X139083769Y-47350499D01*
X139248082Y-47317816D01*
X139402863Y-47253703D01*
X139542162Y-47160626D01*
X139660626Y-47042162D01*
X139753703Y-46902863D01*
X139817816Y-46748082D01*
X139850500Y-46583767D01*
X139850500Y-46416233D01*
X139817816Y-46251918D01*
X139753703Y-46097137D01*
X139683813Y-45992539D01*
X139660626Y-45957837D01*
X139542162Y-45839373D01*
X139468592Y-45790216D01*
X139423787Y-45736604D01*
X139415080Y-45667279D01*
X139445234Y-45604252D01*
X139449784Y-45599451D01*
X139480520Y-45568716D01*
X139559577Y-45431784D01*
X139600500Y-45279057D01*
X139600500Y-45120943D01*
X139559577Y-44968216D01*
X139551198Y-44953703D01*
X139480524Y-44831290D01*
X139480518Y-44831282D01*
X139368717Y-44719481D01*
X139368712Y-44719477D01*
X139303603Y-44681887D01*
X139255388Y-44631321D01*
X139242164Y-44562714D01*
X139268132Y-44497849D01*
X139325046Y-44457320D01*
X139365603Y-44450500D01*
X142813035Y-44450500D01*
X142880074Y-44470185D01*
G37*
%TD.AperFunction*%
%TA.AperFunction,Conductor*%
G36*
X131806630Y-49050253D02*
G01*
X131864863Y-49088863D01*
X131892473Y-49149321D01*
X131917829Y-49309410D01*
X131973787Y-49481636D01*
X131973788Y-49481639D01*
X132056006Y-49642997D01*
X132162441Y-49789494D01*
X132162445Y-49789499D01*
X132290500Y-49917554D01*
X132290505Y-49917558D01*
X132300487Y-49924810D01*
X132437006Y-50023996D01*
X132492128Y-50052082D01*
X132598360Y-50106211D01*
X132598363Y-50106212D01*
X132624506Y-50114706D01*
X132770591Y-50162171D01*
X132772463Y-50162467D01*
X132773118Y-50162778D01*
X132775322Y-50163307D01*
X132775210Y-50163769D01*
X132835597Y-50192392D01*
X132872532Y-50251701D01*
X132871538Y-50321564D01*
X132832932Y-50379799D01*
X132772472Y-50407414D01*
X132758994Y-50409548D01*
X132579362Y-50467914D01*
X132411064Y-50553667D01*
X132411062Y-50553668D01*
X132303759Y-50631626D01*
X132303759Y-50631627D01*
X132808461Y-51136329D01*
X132732993Y-51179901D01*
X132639901Y-51272993D01*
X132596329Y-51348461D01*
X132091627Y-50843759D01*
X132091626Y-50843759D01*
X132013668Y-50951062D01*
X132013667Y-50951064D01*
X131927914Y-51119362D01*
X131869548Y-51298994D01*
X131867414Y-51312472D01*
X131837482Y-51375605D01*
X131778170Y-51412535D01*
X131708307Y-51411535D01*
X131650076Y-51372923D01*
X131623726Y-51315221D01*
X131623307Y-51315322D01*
X131622790Y-51313171D01*
X131622467Y-51312463D01*
X131622171Y-51310591D01*
X131592307Y-51218679D01*
X131566212Y-51138363D01*
X131566211Y-51138360D01*
X131530721Y-51068709D01*
X131483996Y-50977006D01*
X131465147Y-50951062D01*
X131377558Y-50830505D01*
X131377554Y-50830500D01*
X131249499Y-50702445D01*
X131249494Y-50702441D01*
X131102997Y-50596006D01*
X131102996Y-50596005D01*
X131102994Y-50596004D01*
X131043892Y-50565890D01*
X130941639Y-50513788D01*
X130941636Y-50513787D01*
X130769410Y-50457829D01*
X130609321Y-50432473D01*
X130546186Y-50402544D01*
X130509255Y-50343232D01*
X130510253Y-50273370D01*
X130548863Y-50215137D01*
X130609321Y-50187527D01*
X130679425Y-50176422D01*
X130769409Y-50162171D01*
X130941639Y-50106211D01*
X131102994Y-50023996D01*
X131249501Y-49917553D01*
X131377553Y-49789501D01*
X131483996Y-49642994D01*
X131566211Y-49481639D01*
X131622171Y-49309409D01*
X131640658Y-49192686D01*
X131647527Y-49149321D01*
X131677456Y-49086186D01*
X131736768Y-49049255D01*
X131806630Y-49050253D01*
G37*
%TD.AperFunction*%
%TA.AperFunction,Conductor*%
G36*
X146942539Y-43520185D02*
G01*
X146988294Y-43572989D01*
X146999500Y-43624500D01*
X146999500Y-47041323D01*
X146979815Y-47108362D01*
X146963182Y-47129004D01*
X146899500Y-47192686D01*
X146833608Y-47306812D01*
X146814653Y-47377554D01*
X146799500Y-47434108D01*
X146799500Y-47565892D01*
X146799586Y-47566212D01*
X146833608Y-47693187D01*
X146850815Y-47722989D01*
X146899500Y-47807314D01*
X146899502Y-47807316D01*
X146963181Y-47870995D01*
X146996666Y-47932318D01*
X146999500Y-47958676D01*
X146999500Y-48041323D01*
X146979815Y-48108362D01*
X146963182Y-48129004D01*
X146899500Y-48192686D01*
X146833608Y-48306812D01*
X146808639Y-48400000D01*
X146799500Y-48434108D01*
X146799500Y-48565892D01*
X146808800Y-48600599D01*
X146833608Y-48693187D01*
X146842076Y-48707853D01*
X146899500Y-48807314D01*
X146899502Y-48807316D01*
X146963181Y-48870995D01*
X146996666Y-48932318D01*
X146999500Y-48958676D01*
X146999500Y-49041323D01*
X146979815Y-49108362D01*
X146963182Y-49129004D01*
X146899500Y-49192686D01*
X146831887Y-49309794D01*
X146781319Y-49358009D01*
X146712712Y-49371231D01*
X146647848Y-49345263D01*
X146607320Y-49288349D01*
X146600500Y-49247793D01*
X146600500Y-49170945D01*
X146600500Y-49170943D01*
X146559577Y-49018216D01*
X146545488Y-48993813D01*
X146480524Y-48881290D01*
X146480518Y-48881282D01*
X146368717Y-48769481D01*
X146368709Y-48769475D01*
X146231790Y-48690426D01*
X146231786Y-48690424D01*
X146231784Y-48690423D01*
X146079057Y-48649500D01*
X145920943Y-48649500D01*
X145768216Y-48690423D01*
X145768209Y-48690426D01*
X145631290Y-48769475D01*
X145631282Y-48769481D01*
X145587583Y-48813181D01*
X145526260Y-48846666D01*
X145499902Y-48849500D01*
X143542630Y-48849500D01*
X143475591Y-48829815D01*
X143429836Y-48777011D01*
X143419892Y-48707853D01*
X143448917Y-48644297D01*
X143492544Y-48612066D01*
X143500107Y-48608726D01*
X143518514Y-48600599D01*
X143600599Y-48518514D01*
X143647488Y-48412320D01*
X143650500Y-48386357D01*
X143650499Y-48113644D01*
X143650305Y-48111976D01*
X143647489Y-48087685D01*
X143647488Y-48087682D01*
X143647488Y-48087680D01*
X143641729Y-48074638D01*
X143600599Y-47981486D01*
X143518514Y-47899401D01*
X143424413Y-47857851D01*
X143371037Y-47812765D01*
X143350510Y-47745979D01*
X143350500Y-47744417D01*
X143350500Y-45586603D01*
X143370185Y-45519564D01*
X143422989Y-45473809D01*
X143492147Y-45463865D01*
X143555703Y-45492890D01*
X143574270Y-45512970D01*
X143622150Y-45577846D01*
X143622151Y-45577846D01*
X143622152Y-45577848D01*
X143726569Y-45654911D01*
X143761915Y-45667279D01*
X143849059Y-45697773D01*
X143856647Y-45698484D01*
X143878141Y-45700500D01*
X144521858Y-45700499D01*
X144550939Y-45697773D01*
X144673431Y-45654911D01*
X144777848Y-45577848D01*
X144854911Y-45473431D01*
X144857115Y-45467132D01*
X144897833Y-45410358D01*
X144962785Y-45384609D01*
X145031347Y-45398062D01*
X145081751Y-45446448D01*
X145090337Y-45464750D01*
X145104381Y-45502403D01*
X145104384Y-45502407D01*
X145187097Y-45612902D01*
X145297592Y-45695615D01*
X145297594Y-45695616D01*
X145426922Y-45743854D01*
X145484078Y-45749999D01*
X145649999Y-45749999D01*
X145950000Y-45749999D01*
X146115909Y-45749999D01*
X146115918Y-45749998D01*
X146173081Y-45743854D01*
X146302401Y-45695618D01*
X146302407Y-45695615D01*
X146412902Y-45612902D01*
X146495615Y-45502407D01*
X146495616Y-45502405D01*
X146543854Y-45373077D01*
X146549999Y-45315929D01*
X146550000Y-45315912D01*
X146550000Y-45150000D01*
X145950000Y-45150000D01*
X145950000Y-45749999D01*
X145649999Y-45749999D01*
X145650000Y-45749998D01*
X145650000Y-44850000D01*
X145950000Y-44850000D01*
X146549999Y-44850000D01*
X146549999Y-44684090D01*
X146549998Y-44684081D01*
X146543854Y-44626918D01*
X146495618Y-44497598D01*
X146495615Y-44497592D01*
X146412902Y-44387097D01*
X146302407Y-44304384D01*
X146302405Y-44304383D01*
X146173077Y-44256145D01*
X146115929Y-44250000D01*
X145950000Y-44250000D01*
X145950000Y-44850000D01*
X145650000Y-44850000D01*
X145650000Y-44250000D01*
X145484091Y-44250000D01*
X145484081Y-44250001D01*
X145426918Y-44256145D01*
X145297598Y-44304381D01*
X145297592Y-44304384D01*
X145187097Y-44387097D01*
X145104384Y-44497592D01*
X145104381Y-44497596D01*
X145090337Y-44535250D01*
X145048464Y-44591183D01*
X144983000Y-44615598D01*
X144914727Y-44600745D01*
X144865323Y-44551339D01*
X144857118Y-44532876D01*
X144854911Y-44526569D01*
X144777848Y-44422152D01*
X144700865Y-44365336D01*
X144658616Y-44309689D01*
X144650500Y-44265567D01*
X144650500Y-43940693D01*
X144650500Y-43940691D01*
X144619799Y-43826114D01*
X144619799Y-43826113D01*
X144560489Y-43723386D01*
X144549284Y-43712181D01*
X144515799Y-43650858D01*
X144520783Y-43581166D01*
X144562655Y-43525233D01*
X144628119Y-43500816D01*
X144636965Y-43500500D01*
X146875500Y-43500500D01*
X146942539Y-43520185D01*
G37*
%TD.AperFunction*%
%TD*%
%TA.AperFunction,Conductor*%
%TO.N,Board_0-GND*%
G36*
X133667371Y-30470185D02*
G01*
X133713126Y-30522989D01*
X133714893Y-30527048D01*
X133746293Y-30602856D01*
X133746300Y-30602869D01*
X133839373Y-30742161D01*
X133839376Y-30742165D01*
X133957837Y-30860626D01*
X134050494Y-30922537D01*
X134097137Y-30953703D01*
X134251918Y-31017816D01*
X134416228Y-31050499D01*
X134416232Y-31050500D01*
X134416233Y-31050500D01*
X134583768Y-31050500D01*
X134583769Y-31050499D01*
X134748082Y-31017816D01*
X134902863Y-30953703D01*
X135042162Y-30860626D01*
X135160626Y-30742162D01*
X135253703Y-30602863D01*
X135258541Y-30591183D01*
X135285107Y-30527048D01*
X135328948Y-30472644D01*
X135395242Y-30450579D01*
X135399668Y-30450500D01*
X135475500Y-30450500D01*
X135542539Y-30470185D01*
X135588294Y-30522989D01*
X135599500Y-30574500D01*
X135599500Y-39052727D01*
X135626793Y-39154587D01*
X135679520Y-39245913D01*
X135754087Y-39320480D01*
X135845413Y-39373207D01*
X135947273Y-39400500D01*
X135947274Y-39400500D01*
X135947464Y-39400525D01*
X135947611Y-39400590D01*
X135955123Y-39402603D01*
X135954809Y-39403774D01*
X136011361Y-39428791D01*
X136040909Y-39465522D01*
X136045088Y-39473430D01*
X136045089Y-39473431D01*
X136122152Y-39577848D01*
X136226569Y-39654911D01*
X136267399Y-39669198D01*
X136349059Y-39697773D01*
X136356647Y-39698484D01*
X136378141Y-39700500D01*
X137021858Y-39700499D01*
X137050939Y-39697773D01*
X137173431Y-39654911D01*
X137277848Y-39577848D01*
X137354911Y-39473431D01*
X137379695Y-39402603D01*
X137382959Y-39393276D01*
X137423681Y-39336500D01*
X137488633Y-39310753D01*
X137557195Y-39324209D01*
X137607598Y-39372597D01*
X137617041Y-39393276D01*
X137643264Y-39468216D01*
X137645089Y-39473431D01*
X137722152Y-39577848D01*
X137826569Y-39654911D01*
X137867399Y-39669198D01*
X137949059Y-39697773D01*
X137956647Y-39698484D01*
X137978141Y-39700500D01*
X138283302Y-39700499D01*
X138350341Y-39720183D01*
X138396096Y-39772987D01*
X138403075Y-39792400D01*
X138419010Y-39851869D01*
X138440423Y-39931785D01*
X138440426Y-39931790D01*
X138519475Y-40068709D01*
X138519479Y-40068714D01*
X138519480Y-40068716D01*
X138631284Y-40180520D01*
X138631285Y-40180521D01*
X138631287Y-40180522D01*
X138669089Y-40202347D01*
X138717304Y-40252914D01*
X138730528Y-40321521D01*
X138704560Y-40386386D01*
X138694771Y-40397415D01*
X138692686Y-40399499D01*
X138692686Y-40399500D01*
X138629003Y-40463182D01*
X138567683Y-40496666D01*
X138541324Y-40499500D01*
X138458676Y-40499500D01*
X138391637Y-40479815D01*
X138370995Y-40463181D01*
X138307316Y-40399502D01*
X138307314Y-40399500D01*
X138250250Y-40366554D01*
X138193187Y-40333608D01*
X138092427Y-40306610D01*
X138065892Y-40299500D01*
X137934108Y-40299500D01*
X137806812Y-40333608D01*
X137692686Y-40399500D01*
X137692683Y-40399502D01*
X137629005Y-40463181D01*
X137567682Y-40496666D01*
X137541324Y-40499500D01*
X137458676Y-40499500D01*
X137391637Y-40479815D01*
X137370995Y-40463181D01*
X137307316Y-40399502D01*
X137307314Y-40399500D01*
X137250250Y-40366554D01*
X137193187Y-40333608D01*
X137092427Y-40306610D01*
X137065892Y-40299500D01*
X136934108Y-40299500D01*
X136806812Y-40333608D01*
X136692686Y-40399500D01*
X136692683Y-40399502D01*
X136629005Y-40463181D01*
X136567682Y-40496666D01*
X136541324Y-40499500D01*
X136458676Y-40499500D01*
X136391637Y-40479815D01*
X136370995Y-40463181D01*
X136307316Y-40399502D01*
X136307314Y-40399500D01*
X136250250Y-40366554D01*
X136193187Y-40333608D01*
X136092427Y-40306610D01*
X136065892Y-40299500D01*
X135934108Y-40299500D01*
X135806812Y-40333608D01*
X135692686Y-40399500D01*
X135692683Y-40399502D01*
X135629005Y-40463181D01*
X135567682Y-40496666D01*
X135541324Y-40499500D01*
X134775948Y-40499500D01*
X134708909Y-40479815D01*
X134663154Y-40427011D01*
X134653210Y-40357853D01*
X134682235Y-40294297D01*
X134724747Y-40263642D01*
X134724746Y-40263641D01*
X134724763Y-40263631D01*
X134728498Y-40260938D01*
X134731781Y-40259577D01*
X134731784Y-40259577D01*
X134731786Y-40259575D01*
X134731788Y-40259575D01*
X134868709Y-40180524D01*
X134868708Y-40180524D01*
X134868716Y-40180520D01*
X134980520Y-40068716D01*
X135059577Y-39931784D01*
X135100500Y-39779057D01*
X135100500Y-39620943D01*
X135059577Y-39468216D01*
X135021696Y-39402603D01*
X134980524Y-39331290D01*
X134980518Y-39331282D01*
X134868717Y-39219481D01*
X134868709Y-39219475D01*
X134731790Y-39140426D01*
X134731786Y-39140424D01*
X134731784Y-39140423D01*
X134579057Y-39099500D01*
X134420943Y-39099500D01*
X134268216Y-39140423D01*
X134268209Y-39140426D01*
X134131290Y-39219475D01*
X134131282Y-39219481D01*
X134019481Y-39331282D01*
X134019475Y-39331290D01*
X133940426Y-39468209D01*
X133940423Y-39468216D01*
X133899500Y-39620943D01*
X133899500Y-39779057D01*
X133928864Y-39888643D01*
X133940423Y-39931783D01*
X133940426Y-39931790D01*
X134019475Y-40068709D01*
X134019479Y-40068714D01*
X134019480Y-40068716D01*
X134131284Y-40180520D01*
X134131286Y-40180521D01*
X134131290Y-40180524D01*
X134268211Y-40259575D01*
X134271502Y-40260938D01*
X134273851Y-40262831D01*
X134275254Y-40263641D01*
X134275127Y-40263859D01*
X134325907Y-40304778D01*
X134347973Y-40371072D01*
X134330695Y-40438771D01*
X134279559Y-40486383D01*
X134224052Y-40499500D01*
X133347019Y-40499500D01*
X133279980Y-40479815D01*
X133234225Y-40427011D01*
X133224281Y-40357853D01*
X133243917Y-40306610D01*
X133297563Y-40226321D01*
X133297571Y-40226307D01*
X133365413Y-40062520D01*
X133365415Y-40062512D01*
X133399999Y-39888646D01*
X133400000Y-39888643D01*
X133400000Y-39711357D01*
X133399999Y-39711353D01*
X133365415Y-39537487D01*
X133365413Y-39537479D01*
X133297570Y-39373690D01*
X133233831Y-39278299D01*
X132693746Y-39818384D01*
X132632423Y-39851869D01*
X132580619Y-39852064D01*
X132464516Y-39827720D01*
X132420292Y-39851869D01*
X132350600Y-39846885D01*
X132306253Y-39818384D01*
X131766167Y-39278298D01*
X131766167Y-39278299D01*
X131702432Y-39373686D01*
X131702428Y-39373693D01*
X131634586Y-39537479D01*
X131634584Y-39537487D01*
X131600000Y-39711353D01*
X131600000Y-39888646D01*
X131634584Y-40062512D01*
X131634586Y-40062520D01*
X131702428Y-40226307D01*
X131702436Y-40226321D01*
X131756083Y-40306610D01*
X131776961Y-40373287D01*
X131758476Y-40440667D01*
X131706497Y-40487357D01*
X131652981Y-40499500D01*
X128124500Y-40499500D01*
X128057461Y-40479815D01*
X128011706Y-40427011D01*
X128000500Y-40375500D01*
X128000500Y-36958676D01*
X128020185Y-36891637D01*
X128036819Y-36870995D01*
X128068441Y-36839373D01*
X128100500Y-36807314D01*
X128166392Y-36693186D01*
X128200500Y-36565892D01*
X128200500Y-36434108D01*
X128166392Y-36306814D01*
X128100500Y-36192686D01*
X128036818Y-36129004D01*
X128003334Y-36067680D01*
X128000500Y-36041323D01*
X128000500Y-35958676D01*
X128020185Y-35891637D01*
X128036819Y-35870995D01*
X128057315Y-35850499D01*
X128100500Y-35807314D01*
X128166392Y-35693186D01*
X128200500Y-35565892D01*
X128200500Y-35434108D01*
X128166392Y-35306814D01*
X128100500Y-35192686D01*
X128036818Y-35129004D01*
X128003334Y-35067680D01*
X128000500Y-35041323D01*
X128000500Y-34958676D01*
X128020185Y-34891637D01*
X128036819Y-34870995D01*
X128061148Y-34846666D01*
X128100500Y-34807314D01*
X128166392Y-34693186D01*
X128200500Y-34565892D01*
X128200500Y-34434108D01*
X128166392Y-34306814D01*
X128100500Y-34192686D01*
X128036818Y-34129004D01*
X128003334Y-34067680D01*
X128000500Y-34041323D01*
X128000500Y-33958676D01*
X128020185Y-33891637D01*
X128036819Y-33870995D01*
X128058314Y-33849500D01*
X128100500Y-33807314D01*
X128166392Y-33693186D01*
X128200500Y-33565892D01*
X128200500Y-33434108D01*
X128166392Y-33306814D01*
X128100500Y-33192686D01*
X128036818Y-33129004D01*
X128003334Y-33067680D01*
X128000500Y-33041323D01*
X128000500Y-32825408D01*
X128020185Y-32758369D01*
X128072989Y-32712614D01*
X128142147Y-32702670D01*
X128205703Y-32731695D01*
X128231887Y-32763408D01*
X128239508Y-32776609D01*
X128239510Y-32776611D01*
X128239511Y-32776613D01*
X128323387Y-32860489D01*
X128426114Y-32919799D01*
X128540691Y-32950500D01*
X128659309Y-32950500D01*
X129225500Y-32950500D01*
X129292539Y-32970185D01*
X129338294Y-33022989D01*
X129349500Y-33074500D01*
X129349500Y-33424678D01*
X129364032Y-33497735D01*
X129364033Y-33497739D01*
X129364034Y-33497740D01*
X129419399Y-33580601D01*
X129481614Y-33622171D01*
X129502260Y-33635966D01*
X129502264Y-33635967D01*
X129575321Y-33650499D01*
X129575324Y-33650500D01*
X130342869Y-33650500D01*
X130409908Y-33670185D01*
X130455663Y-33722989D01*
X130465607Y-33792147D01*
X130436582Y-33855703D01*
X130377804Y-33893477D01*
X130362267Y-33896973D01*
X130230589Y-33917829D01*
X130058363Y-33973787D01*
X130058360Y-33973788D01*
X129897002Y-34056006D01*
X129750505Y-34162441D01*
X129750500Y-34162445D01*
X129622445Y-34290500D01*
X129622441Y-34290505D01*
X129516006Y-34437002D01*
X129433788Y-34598360D01*
X129433787Y-34598363D01*
X129377829Y-34770589D01*
X129349500Y-34949448D01*
X129349500Y-35130551D01*
X129377829Y-35309410D01*
X129433787Y-35481636D01*
X129433788Y-35481639D01*
X129516006Y-35642997D01*
X129622441Y-35789494D01*
X129622445Y-35789499D01*
X129750500Y-35917554D01*
X129750505Y-35917558D01*
X129760487Y-35924810D01*
X129897006Y-36023996D01*
X129952128Y-36052082D01*
X130058360Y-36106211D01*
X130058363Y-36106212D01*
X130084506Y-36114706D01*
X130230591Y-36162171D01*
X130303639Y-36173740D01*
X130390678Y-36187527D01*
X130453813Y-36217456D01*
X130490744Y-36276768D01*
X130489746Y-36346631D01*
X130451136Y-36404863D01*
X130390678Y-36432473D01*
X130230589Y-36457829D01*
X130058363Y-36513787D01*
X130058360Y-36513788D01*
X129897002Y-36596006D01*
X129750505Y-36702441D01*
X129750500Y-36702445D01*
X129622445Y-36830500D01*
X129622441Y-36830505D01*
X129516006Y-36977002D01*
X129433788Y-37138360D01*
X129433787Y-37138363D01*
X129377829Y-37310589D01*
X129349500Y-37489448D01*
X129349500Y-37670551D01*
X129377829Y-37849410D01*
X129433787Y-38021636D01*
X129433788Y-38021639D01*
X129489664Y-38131300D01*
X129498755Y-38149142D01*
X129516006Y-38182997D01*
X129622441Y-38329494D01*
X129622445Y-38329499D01*
X129750500Y-38457554D01*
X129750505Y-38457558D01*
X129845492Y-38526569D01*
X129897006Y-38563996D01*
X129980089Y-38606329D01*
X130058360Y-38646211D01*
X130058363Y-38646212D01*
X130144476Y-38674191D01*
X130230591Y-38702171D01*
X130302057Y-38713490D01*
X130409449Y-38730500D01*
X130409454Y-38730500D01*
X130590551Y-38730500D01*
X130677259Y-38716765D01*
X130769409Y-38702171D01*
X130941639Y-38646211D01*
X131102994Y-38563996D01*
X131249501Y-38457553D01*
X131377553Y-38329501D01*
X131483996Y-38182994D01*
X131566211Y-38021639D01*
X131622171Y-37849409D01*
X131622467Y-37847539D01*
X131622777Y-37846885D01*
X131623307Y-37844678D01*
X131623770Y-37844789D01*
X131652390Y-37784404D01*
X131711698Y-37747468D01*
X131781561Y-37748460D01*
X131839797Y-37787065D01*
X131867414Y-37847528D01*
X131869548Y-37861004D01*
X131927914Y-38040637D01*
X132013666Y-38208933D01*
X132091627Y-38316239D01*
X132596329Y-37811538D01*
X132639901Y-37887007D01*
X132732993Y-37980099D01*
X132808460Y-38023670D01*
X132303759Y-38528370D01*
X132303759Y-38528371D01*
X132411066Y-38606333D01*
X132527216Y-38665515D01*
X132578012Y-38713490D01*
X132594807Y-38781311D01*
X132572270Y-38847446D01*
X132517554Y-38890897D01*
X132470921Y-38900000D01*
X132411353Y-38900000D01*
X132237487Y-38934584D01*
X132237479Y-38934586D01*
X132073693Y-39002428D01*
X132073686Y-39002432D01*
X131978299Y-39066167D01*
X131978298Y-39066167D01*
X132492279Y-39580148D01*
X132505043Y-39582824D01*
X133021700Y-39066167D01*
X132933303Y-39007103D01*
X132888497Y-38953491D01*
X132879790Y-38884166D01*
X132909944Y-38821138D01*
X132969387Y-38784418D01*
X133002193Y-38780000D01*
X133134447Y-38780000D01*
X133321002Y-38750451D01*
X133500637Y-38692085D01*
X133668940Y-38606329D01*
X133776239Y-38528373D01*
X133776240Y-38528371D01*
X133271538Y-38023670D01*
X133347007Y-37980099D01*
X133440099Y-37887007D01*
X133483670Y-37811539D01*
X133988371Y-38316240D01*
X133988373Y-38316239D01*
X134066329Y-38208940D01*
X134152085Y-38040637D01*
X134210451Y-37861002D01*
X134240000Y-37674447D01*
X134240000Y-37485552D01*
X134210451Y-37298997D01*
X134152085Y-37119362D01*
X134066333Y-36951066D01*
X133988371Y-36843759D01*
X133988370Y-36843759D01*
X133483670Y-37348460D01*
X133440099Y-37272993D01*
X133347007Y-37179901D01*
X133271538Y-37136329D01*
X133776239Y-36631627D01*
X133668933Y-36553666D01*
X133500637Y-36467914D01*
X133321004Y-36409548D01*
X133307528Y-36407414D01*
X133244394Y-36377483D01*
X133207464Y-36318171D01*
X133208464Y-36248308D01*
X133247075Y-36190076D01*
X133304778Y-36163727D01*
X133304678Y-36163307D01*
X133306832Y-36162789D01*
X133307539Y-36162467D01*
X133309409Y-36162171D01*
X133481639Y-36106211D01*
X133642994Y-36023996D01*
X133789501Y-35917553D01*
X133917553Y-35789501D01*
X134023996Y-35642994D01*
X134106211Y-35481639D01*
X134162171Y-35309409D01*
X134180658Y-35192686D01*
X134190500Y-35130551D01*
X134190500Y-34949448D01*
X134171551Y-34829815D01*
X134162171Y-34770591D01*
X134123152Y-34650500D01*
X134106212Y-34598363D01*
X134106211Y-34598360D01*
X134077740Y-34542484D01*
X134023996Y-34437006D01*
X133962608Y-34352512D01*
X133917558Y-34290505D01*
X133917554Y-34290500D01*
X133789499Y-34162445D01*
X133789494Y-34162441D01*
X133642997Y-34056006D01*
X133642996Y-34056005D01*
X133642994Y-34056004D01*
X133591300Y-34029664D01*
X133481639Y-33973788D01*
X133481636Y-33973787D01*
X133309410Y-33917829D01*
X133149321Y-33892473D01*
X133086186Y-33862544D01*
X133049255Y-33803232D01*
X133050253Y-33733370D01*
X133088863Y-33675137D01*
X133149321Y-33647527D01*
X133222310Y-33635966D01*
X133309409Y-33622171D01*
X133481639Y-33566211D01*
X133642994Y-33483996D01*
X133789501Y-33377553D01*
X133917553Y-33249501D01*
X134023996Y-33102994D01*
X134106211Y-32941639D01*
X134162171Y-32769409D01*
X134179954Y-32657131D01*
X134190500Y-32590551D01*
X134190500Y-32409448D01*
X134174019Y-32305397D01*
X134162171Y-32230591D01*
X134106211Y-32058361D01*
X134106211Y-32058360D01*
X134064761Y-31977011D01*
X134023996Y-31897006D01*
X133982124Y-31839374D01*
X133917558Y-31750505D01*
X133917554Y-31750500D01*
X133789499Y-31622445D01*
X133789494Y-31622441D01*
X133642997Y-31516006D01*
X133642996Y-31516005D01*
X133642994Y-31516004D01*
X133585292Y-31486603D01*
X133481639Y-31433788D01*
X133481636Y-31433787D01*
X133309410Y-31377829D01*
X133130551Y-31349500D01*
X133130546Y-31349500D01*
X132949454Y-31349500D01*
X132949449Y-31349500D01*
X132770589Y-31377829D01*
X132598363Y-31433787D01*
X132598360Y-31433788D01*
X132437002Y-31516006D01*
X132290505Y-31622441D01*
X132290500Y-31622445D01*
X132162445Y-31750500D01*
X132162441Y-31750505D01*
X132056006Y-31897002D01*
X131973788Y-32058360D01*
X131973787Y-32058363D01*
X131917829Y-32230589D01*
X131896973Y-32362266D01*
X131867044Y-32425401D01*
X131807732Y-32462332D01*
X131737869Y-32461334D01*
X131679637Y-32422724D01*
X131651523Y-32358760D01*
X131650500Y-32342868D01*
X131650500Y-31575323D01*
X131650499Y-31575321D01*
X131635967Y-31502264D01*
X131635966Y-31502260D01*
X131628134Y-31490539D01*
X131580601Y-31419399D01*
X131497740Y-31364034D01*
X131497739Y-31364033D01*
X131497735Y-31364032D01*
X131424677Y-31349500D01*
X131424674Y-31349500D01*
X129575326Y-31349500D01*
X129575323Y-31349500D01*
X129502264Y-31364032D01*
X129502260Y-31364033D01*
X129419399Y-31419399D01*
X129364033Y-31502260D01*
X129364032Y-31502264D01*
X129349500Y-31575321D01*
X129349500Y-31925500D01*
X129329815Y-31992539D01*
X129277011Y-32038294D01*
X129225500Y-32049500D01*
X129174500Y-32049500D01*
X129107461Y-32029815D01*
X129061706Y-31977011D01*
X129050500Y-31925500D01*
X129050500Y-30574500D01*
X129070185Y-30507461D01*
X129122989Y-30461706D01*
X129174500Y-30450500D01*
X133600332Y-30450500D01*
X133667371Y-30470185D01*
G37*
%TD.AperFunction*%
%TA.AperFunction,Conductor*%
G36*
X142880074Y-30470185D02*
G01*
X142925829Y-30522989D01*
X142935773Y-30592147D01*
X142906748Y-30655703D01*
X142900716Y-30662181D01*
X142589513Y-30973383D01*
X142589511Y-30973386D01*
X142530199Y-31076114D01*
X142499501Y-31190689D01*
X142499501Y-31309310D01*
X142530201Y-31423888D01*
X142532884Y-31428534D01*
X142549500Y-31490539D01*
X142549500Y-33744417D01*
X142529815Y-33811456D01*
X142477011Y-33857211D01*
X142475587Y-33857851D01*
X142381487Y-33899400D01*
X142317205Y-33963682D01*
X142255881Y-33997166D01*
X142229524Y-34000000D01*
X141650000Y-34000000D01*
X141650000Y-35999999D01*
X142229524Y-35999999D01*
X142296563Y-36019684D01*
X142317205Y-36036318D01*
X142381486Y-36100599D01*
X142487680Y-36147488D01*
X142513643Y-36150500D01*
X142783949Y-36150499D01*
X142850988Y-36170183D01*
X142855310Y-36173091D01*
X143181375Y-36402544D01*
X143594393Y-36693186D01*
X143658793Y-36738504D01*
X143702290Y-36793183D01*
X143707204Y-36807810D01*
X143740423Y-36931784D01*
X143740424Y-36931785D01*
X143740426Y-36931790D01*
X143819475Y-37068709D01*
X143819479Y-37068714D01*
X143819480Y-37068716D01*
X143931284Y-37180520D01*
X143931286Y-37180521D01*
X143931290Y-37180524D01*
X144054948Y-37251917D01*
X144068216Y-37259577D01*
X144220943Y-37300500D01*
X144220945Y-37300500D01*
X144379055Y-37300500D01*
X144379057Y-37300500D01*
X144531784Y-37259577D01*
X144668716Y-37180520D01*
X144780520Y-37068716D01*
X144859577Y-36931784D01*
X144900500Y-36779057D01*
X144900500Y-36620943D01*
X144859577Y-36468216D01*
X144837225Y-36429500D01*
X144780524Y-36331290D01*
X144780518Y-36331282D01*
X144668717Y-36219481D01*
X144668709Y-36219475D01*
X144531790Y-36140426D01*
X144531786Y-36140424D01*
X144531784Y-36140423D01*
X144379057Y-36099500D01*
X144220943Y-36099500D01*
X144220941Y-36099500D01*
X144220934Y-36099501D01*
X144220201Y-36099698D01*
X144219559Y-36099682D01*
X144212889Y-36100561D01*
X144212751Y-36099519D01*
X144150352Y-36098028D01*
X144116760Y-36081328D01*
X143905009Y-35932318D01*
X143824846Y-35875907D01*
X143781350Y-35821229D01*
X143774320Y-35751714D01*
X143805988Y-35689433D01*
X143866301Y-35654161D01*
X143896208Y-35650500D01*
X145499902Y-35650500D01*
X145566941Y-35670185D01*
X145587583Y-35686819D01*
X145631284Y-35730520D01*
X145631286Y-35730521D01*
X145631290Y-35730524D01*
X145733443Y-35789501D01*
X145768216Y-35809577D01*
X145920943Y-35850500D01*
X145920945Y-35850500D01*
X146079055Y-35850500D01*
X146079057Y-35850500D01*
X146231784Y-35809577D01*
X146368716Y-35730520D01*
X146480520Y-35618716D01*
X146491326Y-35600000D01*
X146559575Y-35481788D01*
X146560938Y-35478498D01*
X146562831Y-35476148D01*
X146563641Y-35474746D01*
X146563859Y-35474872D01*
X146604778Y-35424093D01*
X146671072Y-35402027D01*
X146738771Y-35419305D01*
X146786383Y-35470441D01*
X146799500Y-35525948D01*
X146799500Y-35565891D01*
X146833608Y-35693187D01*
X146855163Y-35730520D01*
X146899500Y-35807314D01*
X146899502Y-35807316D01*
X146963181Y-35870995D01*
X146996666Y-35932318D01*
X146999500Y-35958676D01*
X146999500Y-36041323D01*
X146979815Y-36108362D01*
X146963182Y-36129004D01*
X146899500Y-36192686D01*
X146833608Y-36306812D01*
X146806081Y-36409548D01*
X146799500Y-36434108D01*
X146799500Y-36565892D01*
X146807569Y-36596006D01*
X146833608Y-36693187D01*
X146859772Y-36738504D01*
X146899500Y-36807314D01*
X146899502Y-36807316D01*
X146963181Y-36870995D01*
X146996666Y-36932318D01*
X146999500Y-36958676D01*
X146999500Y-40375500D01*
X146979815Y-40442539D01*
X146927011Y-40488294D01*
X146875500Y-40499500D01*
X139458676Y-40499500D01*
X139391637Y-40479815D01*
X139370995Y-40463181D01*
X139305229Y-40397415D01*
X139271744Y-40336092D01*
X139276728Y-40266400D01*
X139318600Y-40210467D01*
X139330904Y-40202350D01*
X139368716Y-40180520D01*
X139480520Y-40068716D01*
X139559577Y-39931784D01*
X139600500Y-39779057D01*
X139600500Y-39620943D01*
X139559577Y-39468216D01*
X139521696Y-39402603D01*
X139480524Y-39331290D01*
X139480518Y-39331282D01*
X139436819Y-39287583D01*
X139403334Y-39226260D01*
X139400500Y-39199902D01*
X139400500Y-38321560D01*
X139420185Y-38254521D01*
X139455605Y-38218461D01*
X139542162Y-38160626D01*
X139660626Y-38042162D01*
X139753703Y-37902863D01*
X139817816Y-37748082D01*
X139850500Y-37583767D01*
X139850500Y-37416233D01*
X139817816Y-37251918D01*
X139753703Y-37097137D01*
X139673434Y-36977006D01*
X139660626Y-36957837D01*
X139542162Y-36839373D01*
X139402860Y-36746295D01*
X139248082Y-36682184D01*
X139248074Y-36682182D01*
X139083771Y-36649500D01*
X139083767Y-36649500D01*
X138916233Y-36649500D01*
X138916228Y-36649500D01*
X138751925Y-36682182D01*
X138751917Y-36682184D01*
X138597139Y-36746295D01*
X138457837Y-36839373D01*
X138339373Y-36957837D01*
X138246295Y-37097139D01*
X138182184Y-37251917D01*
X138182182Y-37251925D01*
X138149500Y-37416228D01*
X138149500Y-37583771D01*
X138182182Y-37748074D01*
X138182184Y-37748082D01*
X138246295Y-37902860D01*
X138339373Y-38042162D01*
X138385030Y-38087819D01*
X138418515Y-38149142D01*
X138413531Y-38218834D01*
X138371659Y-38274767D01*
X138306195Y-38299184D01*
X138297349Y-38299500D01*
X137978147Y-38299500D01*
X137962193Y-38300995D01*
X137949061Y-38302227D01*
X137949059Y-38302227D01*
X137949055Y-38302228D01*
X137826570Y-38345088D01*
X137722152Y-38422152D01*
X137645089Y-38526568D01*
X137617040Y-38606725D01*
X137576317Y-38663500D01*
X137511364Y-38689246D01*
X137442803Y-38675789D01*
X137392401Y-38627401D01*
X137382960Y-38606730D01*
X137354911Y-38526569D01*
X137277848Y-38422152D01*
X137173431Y-38345089D01*
X137173429Y-38345088D01*
X137050940Y-38302226D01*
X137021863Y-38299500D01*
X137021859Y-38299500D01*
X136524500Y-38299500D01*
X136457461Y-38279815D01*
X136411706Y-38227011D01*
X136400500Y-38175500D01*
X136400500Y-35900000D01*
X139303765Y-35900000D01*
X139310194Y-35944138D01*
X139362964Y-36052082D01*
X139447917Y-36137035D01*
X139555857Y-36189804D01*
X139625838Y-36199999D01*
X139899999Y-36199999D01*
X139900000Y-36199998D01*
X139900000Y-35924810D01*
X139875563Y-35900000D01*
X139303765Y-35900000D01*
X136400500Y-35900000D01*
X136400500Y-35600000D01*
X139303764Y-35600000D01*
X139453973Y-35600000D01*
X139504058Y-35610565D01*
X139587680Y-35647488D01*
X139613643Y-35650500D01*
X139926002Y-35650499D01*
X139993039Y-35670183D01*
X140014345Y-35687487D01*
X140075915Y-35750000D01*
X140076000Y-35750000D01*
X140143039Y-35769685D01*
X140188794Y-35822489D01*
X140200000Y-35874000D01*
X140200000Y-36199999D01*
X140474166Y-36199999D01*
X140544141Y-36189804D01*
X140652080Y-36137036D01*
X140737040Y-36052075D01*
X140737133Y-36051946D01*
X140737304Y-36051811D01*
X140744302Y-36044814D01*
X140745147Y-36045659D01*
X140792108Y-36008824D01*
X140838050Y-35999999D01*
X141350000Y-35999999D01*
X141350000Y-34000000D01*
X140838050Y-34000000D01*
X140771011Y-33980315D01*
X140744458Y-33955029D01*
X140744303Y-33955185D01*
X140737929Y-33948811D01*
X140737133Y-33948053D01*
X140737038Y-33947920D01*
X140652082Y-33862964D01*
X140544141Y-33810195D01*
X140474162Y-33800000D01*
X140200000Y-33800000D01*
X140200000Y-34126000D01*
X140180315Y-34193039D01*
X140127511Y-34238794D01*
X140076000Y-34250000D01*
X140075362Y-34250000D01*
X140013681Y-34311681D01*
X140011147Y-34309147D01*
X139977511Y-34338294D01*
X139926000Y-34349500D01*
X139613651Y-34349500D01*
X139613627Y-34349502D01*
X139587685Y-34352510D01*
X139587675Y-34352513D01*
X139504059Y-34389434D01*
X139453973Y-34400000D01*
X139303765Y-34400000D01*
X139310194Y-34444138D01*
X139341962Y-34509121D01*
X139353720Y-34577994D01*
X139353509Y-34579081D01*
X139349500Y-34613639D01*
X139349500Y-34886348D01*
X139349502Y-34886372D01*
X139352511Y-34912316D01*
X139352512Y-34912320D01*
X139369111Y-34949915D01*
X139378181Y-35019193D01*
X139369111Y-35050083D01*
X139352513Y-35087675D01*
X139352512Y-35087678D01*
X139349500Y-35113639D01*
X139349500Y-35386348D01*
X139349502Y-35386372D01*
X139353586Y-35421585D01*
X139349852Y-35422018D01*
X139348811Y-35473739D01*
X139341962Y-35490878D01*
X139310195Y-35555857D01*
X139303764Y-35600000D01*
X136400500Y-35600000D01*
X136400500Y-34100000D01*
X139303764Y-34100000D01*
X139874638Y-34100000D01*
X139900000Y-34074638D01*
X139900000Y-33800000D01*
X139625834Y-33800000D01*
X139555858Y-33810195D01*
X139447917Y-33862964D01*
X139362964Y-33947917D01*
X139310195Y-34055858D01*
X139303764Y-34100000D01*
X136400500Y-34100000D01*
X136400500Y-31824499D01*
X136420185Y-31757460D01*
X136472989Y-31711705D01*
X136524500Y-31700499D01*
X137021852Y-31700499D01*
X137021858Y-31700499D01*
X137050939Y-31697773D01*
X137173431Y-31654911D01*
X137277848Y-31577848D01*
X137354911Y-31473431D01*
X137382959Y-31393276D01*
X137423681Y-31336500D01*
X137488633Y-31310753D01*
X137557195Y-31324209D01*
X137607598Y-31372597D01*
X137617041Y-31393276D01*
X137642051Y-31464750D01*
X137645089Y-31473431D01*
X137722152Y-31577848D01*
X137826569Y-31654911D01*
X137861915Y-31667279D01*
X137949059Y-31697773D01*
X137956647Y-31698484D01*
X137978141Y-31700500D01*
X138297350Y-31700499D01*
X138364388Y-31720183D01*
X138410143Y-31772987D01*
X138420087Y-31842146D01*
X138391062Y-31905701D01*
X138385031Y-31912179D01*
X138339373Y-31957837D01*
X138246295Y-32097139D01*
X138182184Y-32251917D01*
X138182182Y-32251925D01*
X138149500Y-32416228D01*
X138149500Y-32583771D01*
X138182182Y-32748074D01*
X138182184Y-32748082D01*
X138246295Y-32902860D01*
X138339373Y-33042162D01*
X138457837Y-33160626D01*
X138505819Y-33192686D01*
X138597137Y-33253703D01*
X138751918Y-33317816D01*
X138916228Y-33350499D01*
X138916232Y-33350500D01*
X138916233Y-33350500D01*
X139083768Y-33350500D01*
X139083769Y-33350499D01*
X139248082Y-33317816D01*
X139402863Y-33253703D01*
X139542162Y-33160626D01*
X139660626Y-33042162D01*
X139753703Y-32902863D01*
X139817816Y-32748082D01*
X139850500Y-32583767D01*
X139850500Y-32416233D01*
X139817816Y-32251918D01*
X139753703Y-32097137D01*
X139683813Y-31992539D01*
X139660626Y-31957837D01*
X139542162Y-31839373D01*
X139468592Y-31790216D01*
X139423787Y-31736604D01*
X139415080Y-31667279D01*
X139445234Y-31604252D01*
X139449784Y-31599451D01*
X139480520Y-31568716D01*
X139559577Y-31431784D01*
X139600500Y-31279057D01*
X139600500Y-31120943D01*
X139559577Y-30968216D01*
X139551198Y-30953703D01*
X139480524Y-30831290D01*
X139480518Y-30831282D01*
X139368717Y-30719481D01*
X139368712Y-30719477D01*
X139303603Y-30681887D01*
X139255388Y-30631321D01*
X139242164Y-30562714D01*
X139268132Y-30497849D01*
X139325046Y-30457320D01*
X139365603Y-30450500D01*
X142813035Y-30450500D01*
X142880074Y-30470185D01*
G37*
%TD.AperFunction*%
%TA.AperFunction,Conductor*%
G36*
X131806630Y-35050253D02*
G01*
X131864863Y-35088863D01*
X131892473Y-35149321D01*
X131917829Y-35309410D01*
X131973787Y-35481636D01*
X131973788Y-35481639D01*
X132056006Y-35642997D01*
X132162441Y-35789494D01*
X132162445Y-35789499D01*
X132290500Y-35917554D01*
X132290505Y-35917558D01*
X132300487Y-35924810D01*
X132437006Y-36023996D01*
X132492128Y-36052082D01*
X132598360Y-36106211D01*
X132598363Y-36106212D01*
X132624506Y-36114706D01*
X132770591Y-36162171D01*
X132772463Y-36162467D01*
X132773118Y-36162778D01*
X132775322Y-36163307D01*
X132775210Y-36163769D01*
X132835597Y-36192392D01*
X132872532Y-36251701D01*
X132871538Y-36321564D01*
X132832932Y-36379799D01*
X132772472Y-36407414D01*
X132758994Y-36409548D01*
X132579362Y-36467914D01*
X132411064Y-36553667D01*
X132411062Y-36553668D01*
X132303759Y-36631626D01*
X132303759Y-36631627D01*
X132808461Y-37136329D01*
X132732993Y-37179901D01*
X132639901Y-37272993D01*
X132596329Y-37348461D01*
X132091627Y-36843759D01*
X132091626Y-36843759D01*
X132013668Y-36951062D01*
X132013667Y-36951064D01*
X131927914Y-37119362D01*
X131869548Y-37298994D01*
X131867414Y-37312472D01*
X131837482Y-37375605D01*
X131778170Y-37412535D01*
X131708307Y-37411535D01*
X131650076Y-37372923D01*
X131623726Y-37315221D01*
X131623307Y-37315322D01*
X131622790Y-37313171D01*
X131622467Y-37312463D01*
X131622171Y-37310591D01*
X131592307Y-37218679D01*
X131566212Y-37138363D01*
X131566211Y-37138360D01*
X131530721Y-37068709D01*
X131483996Y-36977006D01*
X131465147Y-36951062D01*
X131377558Y-36830505D01*
X131377554Y-36830500D01*
X131249499Y-36702445D01*
X131249494Y-36702441D01*
X131102997Y-36596006D01*
X131102996Y-36596005D01*
X131102994Y-36596004D01*
X131043892Y-36565890D01*
X130941639Y-36513788D01*
X130941636Y-36513787D01*
X130769410Y-36457829D01*
X130609321Y-36432473D01*
X130546186Y-36402544D01*
X130509255Y-36343232D01*
X130510253Y-36273370D01*
X130548863Y-36215137D01*
X130609321Y-36187527D01*
X130679425Y-36176422D01*
X130769409Y-36162171D01*
X130941639Y-36106211D01*
X131102994Y-36023996D01*
X131249501Y-35917553D01*
X131377553Y-35789501D01*
X131483996Y-35642994D01*
X131566211Y-35481639D01*
X131622171Y-35309409D01*
X131640658Y-35192686D01*
X131647527Y-35149321D01*
X131677456Y-35086186D01*
X131736768Y-35049255D01*
X131806630Y-35050253D01*
G37*
%TD.AperFunction*%
%TA.AperFunction,Conductor*%
G36*
X146942539Y-29520185D02*
G01*
X146988294Y-29572989D01*
X146999500Y-29624500D01*
X146999500Y-33041323D01*
X146979815Y-33108362D01*
X146963182Y-33129004D01*
X146899500Y-33192686D01*
X146833608Y-33306812D01*
X146814653Y-33377554D01*
X146799500Y-33434108D01*
X146799500Y-33565892D01*
X146799586Y-33566212D01*
X146833608Y-33693187D01*
X146850815Y-33722989D01*
X146899500Y-33807314D01*
X146899502Y-33807316D01*
X146963181Y-33870995D01*
X146996666Y-33932318D01*
X146999500Y-33958676D01*
X146999500Y-34041323D01*
X146979815Y-34108362D01*
X146963182Y-34129004D01*
X146899500Y-34192686D01*
X146833608Y-34306812D01*
X146808639Y-34400000D01*
X146799500Y-34434108D01*
X146799500Y-34565892D01*
X146808800Y-34600599D01*
X146833608Y-34693187D01*
X146842076Y-34707853D01*
X146899500Y-34807314D01*
X146899502Y-34807316D01*
X146963181Y-34870995D01*
X146996666Y-34932318D01*
X146999500Y-34958676D01*
X146999500Y-35041323D01*
X146979815Y-35108362D01*
X146963182Y-35129004D01*
X146899500Y-35192686D01*
X146831887Y-35309794D01*
X146781319Y-35358009D01*
X146712712Y-35371231D01*
X146647848Y-35345263D01*
X146607320Y-35288349D01*
X146600500Y-35247793D01*
X146600500Y-35170945D01*
X146600500Y-35170943D01*
X146559577Y-35018216D01*
X146545488Y-34993813D01*
X146480524Y-34881290D01*
X146480518Y-34881282D01*
X146368717Y-34769481D01*
X146368709Y-34769475D01*
X146231790Y-34690426D01*
X146231786Y-34690424D01*
X146231784Y-34690423D01*
X146079057Y-34649500D01*
X145920943Y-34649500D01*
X145768216Y-34690423D01*
X145768209Y-34690426D01*
X145631290Y-34769475D01*
X145631282Y-34769481D01*
X145587583Y-34813181D01*
X145526260Y-34846666D01*
X145499902Y-34849500D01*
X143542630Y-34849500D01*
X143475591Y-34829815D01*
X143429836Y-34777011D01*
X143419892Y-34707853D01*
X143448917Y-34644297D01*
X143492544Y-34612066D01*
X143500107Y-34608726D01*
X143518514Y-34600599D01*
X143600599Y-34518514D01*
X143647488Y-34412320D01*
X143650500Y-34386357D01*
X143650499Y-34113644D01*
X143650305Y-34111976D01*
X143647489Y-34087685D01*
X143647488Y-34087682D01*
X143647488Y-34087680D01*
X143641729Y-34074638D01*
X143600599Y-33981486D01*
X143518514Y-33899401D01*
X143424413Y-33857851D01*
X143371037Y-33812765D01*
X143350510Y-33745979D01*
X143350500Y-33744417D01*
X143350500Y-31586603D01*
X143370185Y-31519564D01*
X143422989Y-31473809D01*
X143492147Y-31463865D01*
X143555703Y-31492890D01*
X143574270Y-31512970D01*
X143622150Y-31577846D01*
X143622151Y-31577846D01*
X143622152Y-31577848D01*
X143726569Y-31654911D01*
X143761915Y-31667279D01*
X143849059Y-31697773D01*
X143856647Y-31698484D01*
X143878141Y-31700500D01*
X144521858Y-31700499D01*
X144550939Y-31697773D01*
X144673431Y-31654911D01*
X144777848Y-31577848D01*
X144854911Y-31473431D01*
X144857115Y-31467132D01*
X144897833Y-31410358D01*
X144962785Y-31384609D01*
X145031347Y-31398062D01*
X145081751Y-31446448D01*
X145090337Y-31464750D01*
X145104381Y-31502403D01*
X145104384Y-31502407D01*
X145187097Y-31612902D01*
X145297592Y-31695615D01*
X145297594Y-31695616D01*
X145426922Y-31743854D01*
X145484078Y-31749999D01*
X145649999Y-31749999D01*
X145950000Y-31749999D01*
X146115909Y-31749999D01*
X146115918Y-31749998D01*
X146173081Y-31743854D01*
X146302401Y-31695618D01*
X146302407Y-31695615D01*
X146412902Y-31612902D01*
X146495615Y-31502407D01*
X146495616Y-31502405D01*
X146543854Y-31373077D01*
X146549999Y-31315929D01*
X146550000Y-31315912D01*
X146550000Y-31150000D01*
X145950000Y-31150000D01*
X145950000Y-31749999D01*
X145649999Y-31749999D01*
X145650000Y-31749998D01*
X145650000Y-30850000D01*
X145950000Y-30850000D01*
X146549999Y-30850000D01*
X146549999Y-30684090D01*
X146549998Y-30684081D01*
X146543854Y-30626918D01*
X146495618Y-30497598D01*
X146495615Y-30497592D01*
X146412902Y-30387097D01*
X146302407Y-30304384D01*
X146302405Y-30304383D01*
X146173077Y-30256145D01*
X146115929Y-30250000D01*
X145950000Y-30250000D01*
X145950000Y-30850000D01*
X145650000Y-30850000D01*
X145650000Y-30250000D01*
X145484091Y-30250000D01*
X145484081Y-30250001D01*
X145426918Y-30256145D01*
X145297598Y-30304381D01*
X145297592Y-30304384D01*
X145187097Y-30387097D01*
X145104384Y-30497592D01*
X145104381Y-30497596D01*
X145090337Y-30535250D01*
X145048464Y-30591183D01*
X144983000Y-30615598D01*
X144914727Y-30600745D01*
X144865323Y-30551339D01*
X144857118Y-30532876D01*
X144854911Y-30526569D01*
X144777848Y-30422152D01*
X144700865Y-30365336D01*
X144658616Y-30309689D01*
X144650500Y-30265567D01*
X144650500Y-29940693D01*
X144650500Y-29940691D01*
X144619799Y-29826114D01*
X144619799Y-29826113D01*
X144560489Y-29723386D01*
X144549284Y-29712181D01*
X144515799Y-29650858D01*
X144520783Y-29581166D01*
X144562655Y-29525233D01*
X144628119Y-29500816D01*
X144636965Y-29500500D01*
X146875500Y-29500500D01*
X146942539Y-29520185D01*
G37*
%TD.AperFunction*%
%TD*%
%TA.AperFunction,Conductor*%
%TO.N,Board_3-GND*%
G36*
X155667371Y-44470185D02*
G01*
X155713126Y-44522989D01*
X155714893Y-44527048D01*
X155746293Y-44602856D01*
X155746300Y-44602869D01*
X155839373Y-44742161D01*
X155839376Y-44742165D01*
X155957837Y-44860626D01*
X156050494Y-44922537D01*
X156097137Y-44953703D01*
X156251918Y-45017816D01*
X156416228Y-45050499D01*
X156416232Y-45050500D01*
X156416233Y-45050500D01*
X156583768Y-45050500D01*
X156583769Y-45050499D01*
X156748082Y-45017816D01*
X156902863Y-44953703D01*
X157042162Y-44860626D01*
X157160626Y-44742162D01*
X157253703Y-44602863D01*
X157258541Y-44591183D01*
X157285107Y-44527048D01*
X157328948Y-44472644D01*
X157395242Y-44450579D01*
X157399668Y-44450500D01*
X157475500Y-44450500D01*
X157542539Y-44470185D01*
X157588294Y-44522989D01*
X157599500Y-44574500D01*
X157599500Y-52947273D01*
X157599500Y-53052727D01*
X157626793Y-53154587D01*
X157679520Y-53245913D01*
X157754087Y-53320480D01*
X157845413Y-53373207D01*
X157947273Y-53400500D01*
X157947274Y-53400500D01*
X157947464Y-53400525D01*
X157947611Y-53400590D01*
X157955123Y-53402603D01*
X157954809Y-53403774D01*
X158011361Y-53428791D01*
X158040909Y-53465522D01*
X158045088Y-53473430D01*
X158045089Y-53473431D01*
X158122152Y-53577848D01*
X158226569Y-53654911D01*
X158267399Y-53669198D01*
X158349059Y-53697773D01*
X158356647Y-53698484D01*
X158378141Y-53700500D01*
X159021858Y-53700499D01*
X159050939Y-53697773D01*
X159173431Y-53654911D01*
X159277848Y-53577848D01*
X159354911Y-53473431D01*
X159379695Y-53402603D01*
X159382959Y-53393276D01*
X159423681Y-53336500D01*
X159488633Y-53310753D01*
X159557195Y-53324209D01*
X159607598Y-53372597D01*
X159617041Y-53393276D01*
X159643264Y-53468216D01*
X159645089Y-53473431D01*
X159722152Y-53577848D01*
X159826569Y-53654911D01*
X159867399Y-53669198D01*
X159949059Y-53697773D01*
X159956647Y-53698484D01*
X159978141Y-53700500D01*
X160283302Y-53700499D01*
X160350341Y-53720183D01*
X160396096Y-53772987D01*
X160403075Y-53792400D01*
X160419010Y-53851869D01*
X160440423Y-53931785D01*
X160440426Y-53931790D01*
X160519475Y-54068709D01*
X160519479Y-54068714D01*
X160519480Y-54068716D01*
X160631284Y-54180520D01*
X160631285Y-54180521D01*
X160631287Y-54180522D01*
X160669089Y-54202347D01*
X160717304Y-54252914D01*
X160730528Y-54321521D01*
X160704560Y-54386386D01*
X160694771Y-54397415D01*
X160692686Y-54399499D01*
X160692686Y-54399500D01*
X160629003Y-54463182D01*
X160567683Y-54496666D01*
X160541324Y-54499500D01*
X160458676Y-54499500D01*
X160391637Y-54479815D01*
X160370995Y-54463181D01*
X160307316Y-54399502D01*
X160307314Y-54399500D01*
X160250250Y-54366554D01*
X160193187Y-54333608D01*
X160092427Y-54306610D01*
X160065892Y-54299500D01*
X159934108Y-54299500D01*
X159806812Y-54333608D01*
X159692686Y-54399500D01*
X159692683Y-54399502D01*
X159629005Y-54463181D01*
X159567682Y-54496666D01*
X159541324Y-54499500D01*
X159458676Y-54499500D01*
X159391637Y-54479815D01*
X159370995Y-54463181D01*
X159307316Y-54399502D01*
X159307314Y-54399500D01*
X159250250Y-54366554D01*
X159193187Y-54333608D01*
X159092427Y-54306610D01*
X159065892Y-54299500D01*
X158934108Y-54299500D01*
X158806812Y-54333608D01*
X158692686Y-54399500D01*
X158692683Y-54399502D01*
X158629005Y-54463181D01*
X158567682Y-54496666D01*
X158541324Y-54499500D01*
X158458676Y-54499500D01*
X158391637Y-54479815D01*
X158370995Y-54463181D01*
X158307316Y-54399502D01*
X158307314Y-54399500D01*
X158250250Y-54366554D01*
X158193187Y-54333608D01*
X158092427Y-54306610D01*
X158065892Y-54299500D01*
X157934108Y-54299500D01*
X157806812Y-54333608D01*
X157692686Y-54399500D01*
X157692683Y-54399502D01*
X157629005Y-54463181D01*
X157567682Y-54496666D01*
X157541324Y-54499500D01*
X156775948Y-54499500D01*
X156708909Y-54479815D01*
X156663154Y-54427011D01*
X156653210Y-54357853D01*
X156682235Y-54294297D01*
X156724747Y-54263642D01*
X156724746Y-54263641D01*
X156724763Y-54263631D01*
X156728498Y-54260938D01*
X156731781Y-54259577D01*
X156731784Y-54259577D01*
X156731786Y-54259575D01*
X156731788Y-54259575D01*
X156868709Y-54180524D01*
X156868708Y-54180524D01*
X156868716Y-54180520D01*
X156980520Y-54068716D01*
X157059577Y-53931784D01*
X157100500Y-53779057D01*
X157100500Y-53620943D01*
X157059577Y-53468216D01*
X157021696Y-53402603D01*
X156980524Y-53331290D01*
X156980518Y-53331282D01*
X156868717Y-53219481D01*
X156868709Y-53219475D01*
X156731790Y-53140426D01*
X156731786Y-53140424D01*
X156731784Y-53140423D01*
X156579057Y-53099500D01*
X156420943Y-53099500D01*
X156268216Y-53140423D01*
X156268209Y-53140426D01*
X156131290Y-53219475D01*
X156131282Y-53219481D01*
X156019481Y-53331282D01*
X156019475Y-53331290D01*
X155940426Y-53468209D01*
X155940423Y-53468216D01*
X155899500Y-53620943D01*
X155899500Y-53779057D01*
X155928864Y-53888643D01*
X155940423Y-53931783D01*
X155940426Y-53931790D01*
X156019475Y-54068709D01*
X156019479Y-54068714D01*
X156019480Y-54068716D01*
X156131284Y-54180520D01*
X156131286Y-54180521D01*
X156131290Y-54180524D01*
X156268211Y-54259575D01*
X156271502Y-54260938D01*
X156273851Y-54262831D01*
X156275254Y-54263641D01*
X156275127Y-54263859D01*
X156325907Y-54304778D01*
X156347973Y-54371072D01*
X156330695Y-54438771D01*
X156279559Y-54486383D01*
X156224052Y-54499500D01*
X155347019Y-54499500D01*
X155279980Y-54479815D01*
X155234225Y-54427011D01*
X155224281Y-54357853D01*
X155243917Y-54306610D01*
X155297563Y-54226321D01*
X155297571Y-54226307D01*
X155365413Y-54062520D01*
X155365415Y-54062512D01*
X155399999Y-53888646D01*
X155400000Y-53888643D01*
X155400000Y-53711357D01*
X155399999Y-53711353D01*
X155365415Y-53537487D01*
X155365413Y-53537479D01*
X155297570Y-53373690D01*
X155233831Y-53278299D01*
X154693746Y-53818384D01*
X154632423Y-53851869D01*
X154580619Y-53852064D01*
X154464516Y-53827720D01*
X154420292Y-53851869D01*
X154350600Y-53846885D01*
X154306253Y-53818384D01*
X153766167Y-53278298D01*
X153766167Y-53278299D01*
X153702432Y-53373686D01*
X153702428Y-53373693D01*
X153634586Y-53537479D01*
X153634584Y-53537487D01*
X153600000Y-53711353D01*
X153600000Y-53888646D01*
X153634584Y-54062512D01*
X153634586Y-54062520D01*
X153702428Y-54226307D01*
X153702436Y-54226321D01*
X153756083Y-54306610D01*
X153776961Y-54373287D01*
X153758476Y-54440667D01*
X153706497Y-54487357D01*
X153652981Y-54499500D01*
X150124500Y-54499500D01*
X150057461Y-54479815D01*
X150011706Y-54427011D01*
X150000500Y-54375500D01*
X150000500Y-50958676D01*
X150020185Y-50891637D01*
X150036819Y-50870995D01*
X150068441Y-50839373D01*
X150100500Y-50807314D01*
X150166392Y-50693186D01*
X150200500Y-50565892D01*
X150200500Y-50434108D01*
X150166392Y-50306814D01*
X150100500Y-50192686D01*
X150036818Y-50129004D01*
X150003334Y-50067680D01*
X150000500Y-50041323D01*
X150000500Y-49958676D01*
X150020185Y-49891637D01*
X150036819Y-49870995D01*
X150057315Y-49850499D01*
X150100500Y-49807314D01*
X150166392Y-49693186D01*
X150200500Y-49565892D01*
X150200500Y-49434108D01*
X150166392Y-49306814D01*
X150100500Y-49192686D01*
X150036818Y-49129004D01*
X150003334Y-49067680D01*
X150000500Y-49041323D01*
X150000500Y-48958676D01*
X150020185Y-48891637D01*
X150036819Y-48870995D01*
X150061148Y-48846666D01*
X150100500Y-48807314D01*
X150166392Y-48693186D01*
X150200500Y-48565892D01*
X150200500Y-48434108D01*
X150166392Y-48306814D01*
X150100500Y-48192686D01*
X150036818Y-48129004D01*
X150003334Y-48067680D01*
X150000500Y-48041323D01*
X150000500Y-47958676D01*
X150020185Y-47891637D01*
X150036819Y-47870995D01*
X150058314Y-47849500D01*
X150100500Y-47807314D01*
X150166392Y-47693186D01*
X150200500Y-47565892D01*
X150200500Y-47434108D01*
X150166392Y-47306814D01*
X150100500Y-47192686D01*
X150036818Y-47129004D01*
X150003334Y-47067680D01*
X150000500Y-47041323D01*
X150000500Y-46825408D01*
X150020185Y-46758369D01*
X150072989Y-46712614D01*
X150142147Y-46702670D01*
X150205703Y-46731695D01*
X150231887Y-46763408D01*
X150239508Y-46776609D01*
X150239510Y-46776611D01*
X150239511Y-46776613D01*
X150323387Y-46860489D01*
X150426114Y-46919799D01*
X150540691Y-46950500D01*
X150659309Y-46950500D01*
X151225500Y-46950500D01*
X151292539Y-46970185D01*
X151338294Y-47022989D01*
X151349500Y-47074500D01*
X151349500Y-47424678D01*
X151364032Y-47497735D01*
X151364033Y-47497739D01*
X151364034Y-47497740D01*
X151419399Y-47580601D01*
X151481614Y-47622171D01*
X151502260Y-47635966D01*
X151502264Y-47635967D01*
X151575321Y-47650499D01*
X151575324Y-47650500D01*
X152342869Y-47650500D01*
X152409908Y-47670185D01*
X152455663Y-47722989D01*
X152465607Y-47792147D01*
X152436582Y-47855703D01*
X152377804Y-47893477D01*
X152362267Y-47896973D01*
X152230589Y-47917829D01*
X152058363Y-47973787D01*
X152058360Y-47973788D01*
X151897002Y-48056006D01*
X151750505Y-48162441D01*
X151750500Y-48162445D01*
X151622445Y-48290500D01*
X151622441Y-48290505D01*
X151516006Y-48437002D01*
X151433788Y-48598360D01*
X151433787Y-48598363D01*
X151377829Y-48770589D01*
X151349500Y-48949448D01*
X151349500Y-49130551D01*
X151377829Y-49309410D01*
X151433787Y-49481636D01*
X151433788Y-49481639D01*
X151516006Y-49642997D01*
X151622441Y-49789494D01*
X151622445Y-49789499D01*
X151750500Y-49917554D01*
X151750505Y-49917558D01*
X151760487Y-49924810D01*
X151897006Y-50023996D01*
X151952128Y-50052082D01*
X152058360Y-50106211D01*
X152058363Y-50106212D01*
X152084506Y-50114706D01*
X152230591Y-50162171D01*
X152303639Y-50173740D01*
X152390678Y-50187527D01*
X152453813Y-50217456D01*
X152490744Y-50276768D01*
X152489746Y-50346631D01*
X152451136Y-50404863D01*
X152390678Y-50432473D01*
X152230589Y-50457829D01*
X152058363Y-50513787D01*
X152058360Y-50513788D01*
X151897002Y-50596006D01*
X151750505Y-50702441D01*
X151750500Y-50702445D01*
X151622445Y-50830500D01*
X151622441Y-50830505D01*
X151516006Y-50977002D01*
X151433788Y-51138360D01*
X151433787Y-51138363D01*
X151377829Y-51310589D01*
X151349500Y-51489448D01*
X151349500Y-51670551D01*
X151377829Y-51849410D01*
X151433787Y-52021636D01*
X151433788Y-52021639D01*
X151489664Y-52131300D01*
X151498755Y-52149142D01*
X151516006Y-52182997D01*
X151622441Y-52329494D01*
X151622445Y-52329499D01*
X151750500Y-52457554D01*
X151750505Y-52457558D01*
X151845492Y-52526569D01*
X151897006Y-52563996D01*
X151980089Y-52606329D01*
X152058360Y-52646211D01*
X152058363Y-52646212D01*
X152144476Y-52674191D01*
X152230591Y-52702171D01*
X152302057Y-52713490D01*
X152409449Y-52730500D01*
X152409454Y-52730500D01*
X152590551Y-52730500D01*
X152677259Y-52716765D01*
X152769409Y-52702171D01*
X152941639Y-52646211D01*
X153102994Y-52563996D01*
X153249501Y-52457553D01*
X153377553Y-52329501D01*
X153483996Y-52182994D01*
X153566211Y-52021639D01*
X153622171Y-51849409D01*
X153622467Y-51847539D01*
X153622777Y-51846885D01*
X153623307Y-51844678D01*
X153623770Y-51844789D01*
X153652390Y-51784404D01*
X153711698Y-51747468D01*
X153781561Y-51748460D01*
X153839797Y-51787065D01*
X153867414Y-51847528D01*
X153869548Y-51861004D01*
X153927914Y-52040637D01*
X154013666Y-52208933D01*
X154091627Y-52316239D01*
X154596329Y-51811538D01*
X154639901Y-51887007D01*
X154732993Y-51980099D01*
X154808460Y-52023670D01*
X154303759Y-52528370D01*
X154303759Y-52528371D01*
X154411066Y-52606333D01*
X154527216Y-52665515D01*
X154578012Y-52713490D01*
X154594807Y-52781311D01*
X154572270Y-52847446D01*
X154517554Y-52890897D01*
X154470921Y-52900000D01*
X154411353Y-52900000D01*
X154237487Y-52934584D01*
X154237479Y-52934586D01*
X154073693Y-53002428D01*
X154073686Y-53002432D01*
X153978299Y-53066167D01*
X153978298Y-53066167D01*
X154492279Y-53580148D01*
X154505043Y-53582824D01*
X155021700Y-53066167D01*
X154933303Y-53007103D01*
X154888497Y-52953491D01*
X154879790Y-52884166D01*
X154909944Y-52821138D01*
X154969387Y-52784418D01*
X155002193Y-52780000D01*
X155134447Y-52780000D01*
X155321002Y-52750451D01*
X155500637Y-52692085D01*
X155668940Y-52606329D01*
X155776239Y-52528373D01*
X155776240Y-52528371D01*
X155271538Y-52023670D01*
X155347007Y-51980099D01*
X155440099Y-51887007D01*
X155483670Y-51811539D01*
X155988371Y-52316240D01*
X155988373Y-52316239D01*
X156066329Y-52208940D01*
X156152085Y-52040637D01*
X156210451Y-51861002D01*
X156240000Y-51674447D01*
X156240000Y-51485552D01*
X156210451Y-51298997D01*
X156152085Y-51119362D01*
X156066333Y-50951066D01*
X155988371Y-50843759D01*
X155988370Y-50843759D01*
X155483670Y-51348460D01*
X155440099Y-51272993D01*
X155347007Y-51179901D01*
X155271538Y-51136329D01*
X155776239Y-50631627D01*
X155668933Y-50553666D01*
X155500637Y-50467914D01*
X155321004Y-50409548D01*
X155307528Y-50407414D01*
X155244394Y-50377483D01*
X155207464Y-50318171D01*
X155208464Y-50248308D01*
X155247075Y-50190076D01*
X155304778Y-50163727D01*
X155304678Y-50163307D01*
X155306832Y-50162789D01*
X155307539Y-50162467D01*
X155309409Y-50162171D01*
X155481639Y-50106211D01*
X155642994Y-50023996D01*
X155789501Y-49917553D01*
X155917553Y-49789501D01*
X156023996Y-49642994D01*
X156106211Y-49481639D01*
X156162171Y-49309409D01*
X156180658Y-49192686D01*
X156190500Y-49130551D01*
X156190500Y-48949448D01*
X156171551Y-48829815D01*
X156162171Y-48770591D01*
X156123152Y-48650500D01*
X156106212Y-48598363D01*
X156106211Y-48598360D01*
X156077740Y-48542484D01*
X156023996Y-48437006D01*
X155962608Y-48352512D01*
X155917558Y-48290505D01*
X155917554Y-48290500D01*
X155789499Y-48162445D01*
X155789494Y-48162441D01*
X155642997Y-48056006D01*
X155642996Y-48056005D01*
X155642994Y-48056004D01*
X155591300Y-48029664D01*
X155481639Y-47973788D01*
X155481636Y-47973787D01*
X155309410Y-47917829D01*
X155149321Y-47892473D01*
X155086186Y-47862544D01*
X155049255Y-47803232D01*
X155050253Y-47733370D01*
X155088863Y-47675137D01*
X155149321Y-47647527D01*
X155222310Y-47635966D01*
X155309409Y-47622171D01*
X155481639Y-47566211D01*
X155642994Y-47483996D01*
X155789501Y-47377553D01*
X155917553Y-47249501D01*
X156023996Y-47102994D01*
X156106211Y-46941639D01*
X156162171Y-46769409D01*
X156179954Y-46657131D01*
X156190500Y-46590551D01*
X156190500Y-46409448D01*
X156174019Y-46305397D01*
X156162171Y-46230591D01*
X156106211Y-46058361D01*
X156106211Y-46058360D01*
X156064761Y-45977011D01*
X156023996Y-45897006D01*
X155982124Y-45839374D01*
X155917558Y-45750505D01*
X155917554Y-45750500D01*
X155789499Y-45622445D01*
X155789494Y-45622441D01*
X155642997Y-45516006D01*
X155642996Y-45516005D01*
X155642994Y-45516004D01*
X155585292Y-45486603D01*
X155481639Y-45433788D01*
X155481636Y-45433787D01*
X155309410Y-45377829D01*
X155130551Y-45349500D01*
X155130546Y-45349500D01*
X154949454Y-45349500D01*
X154949449Y-45349500D01*
X154770589Y-45377829D01*
X154598363Y-45433787D01*
X154598360Y-45433788D01*
X154437002Y-45516006D01*
X154290505Y-45622441D01*
X154290500Y-45622445D01*
X154162445Y-45750500D01*
X154162441Y-45750505D01*
X154056006Y-45897002D01*
X153973788Y-46058360D01*
X153973787Y-46058363D01*
X153917829Y-46230589D01*
X153896973Y-46362266D01*
X153867044Y-46425401D01*
X153807732Y-46462332D01*
X153737869Y-46461334D01*
X153679637Y-46422724D01*
X153651523Y-46358760D01*
X153650500Y-46342868D01*
X153650500Y-45575323D01*
X153650499Y-45575321D01*
X153635967Y-45502264D01*
X153635966Y-45502260D01*
X153628134Y-45490539D01*
X153580601Y-45419399D01*
X153497740Y-45364034D01*
X153497739Y-45364033D01*
X153497735Y-45364032D01*
X153424677Y-45349500D01*
X153424674Y-45349500D01*
X151575326Y-45349500D01*
X151575323Y-45349500D01*
X151502264Y-45364032D01*
X151502260Y-45364033D01*
X151419399Y-45419399D01*
X151364033Y-45502260D01*
X151364032Y-45502264D01*
X151349500Y-45575321D01*
X151349500Y-45925500D01*
X151329815Y-45992539D01*
X151277011Y-46038294D01*
X151225500Y-46049500D01*
X151174500Y-46049500D01*
X151107461Y-46029815D01*
X151061706Y-45977011D01*
X151050500Y-45925500D01*
X151050500Y-44574500D01*
X151070185Y-44507461D01*
X151122989Y-44461706D01*
X151174500Y-44450500D01*
X155600332Y-44450500D01*
X155667371Y-44470185D01*
G37*
%TD.AperFunction*%
%TA.AperFunction,Conductor*%
G36*
X164880074Y-44470185D02*
G01*
X164925829Y-44522989D01*
X164935773Y-44592147D01*
X164906748Y-44655703D01*
X164900716Y-44662181D01*
X164589513Y-44973383D01*
X164589511Y-44973386D01*
X164530199Y-45076114D01*
X164499501Y-45190689D01*
X164499501Y-45309310D01*
X164530201Y-45423888D01*
X164532884Y-45428534D01*
X164549500Y-45490539D01*
X164549500Y-47744417D01*
X164529815Y-47811456D01*
X164477011Y-47857211D01*
X164475587Y-47857851D01*
X164381487Y-47899400D01*
X164317205Y-47963682D01*
X164255881Y-47997166D01*
X164229524Y-48000000D01*
X163650000Y-48000000D01*
X163650000Y-49999999D01*
X164229524Y-49999999D01*
X164296563Y-50019684D01*
X164317205Y-50036318D01*
X164381486Y-50100599D01*
X164487680Y-50147488D01*
X164513643Y-50150500D01*
X164783949Y-50150499D01*
X164850988Y-50170183D01*
X164855310Y-50173091D01*
X165181375Y-50402544D01*
X165594393Y-50693186D01*
X165658793Y-50738504D01*
X165702290Y-50793183D01*
X165707204Y-50807810D01*
X165740423Y-50931784D01*
X165740424Y-50931785D01*
X165740426Y-50931790D01*
X165819475Y-51068709D01*
X165819479Y-51068714D01*
X165819480Y-51068716D01*
X165931284Y-51180520D01*
X165931286Y-51180521D01*
X165931290Y-51180524D01*
X166054948Y-51251917D01*
X166068216Y-51259577D01*
X166220943Y-51300500D01*
X166220945Y-51300500D01*
X166379055Y-51300500D01*
X166379057Y-51300500D01*
X166531784Y-51259577D01*
X166668716Y-51180520D01*
X166780520Y-51068716D01*
X166859577Y-50931784D01*
X166900500Y-50779057D01*
X166900500Y-50620943D01*
X166859577Y-50468216D01*
X166837225Y-50429500D01*
X166780524Y-50331290D01*
X166780518Y-50331282D01*
X166668717Y-50219481D01*
X166668709Y-50219475D01*
X166531790Y-50140426D01*
X166531786Y-50140424D01*
X166531784Y-50140423D01*
X166379057Y-50099500D01*
X166220943Y-50099500D01*
X166220941Y-50099500D01*
X166220934Y-50099501D01*
X166220201Y-50099698D01*
X166219559Y-50099682D01*
X166212889Y-50100561D01*
X166212751Y-50099519D01*
X166150352Y-50098028D01*
X166116760Y-50081328D01*
X165905009Y-49932318D01*
X165824846Y-49875907D01*
X165781350Y-49821229D01*
X165774320Y-49751714D01*
X165805988Y-49689433D01*
X165866301Y-49654161D01*
X165896208Y-49650500D01*
X167499902Y-49650500D01*
X167566941Y-49670185D01*
X167587583Y-49686819D01*
X167631284Y-49730520D01*
X167631286Y-49730521D01*
X167631290Y-49730524D01*
X167733443Y-49789501D01*
X167768216Y-49809577D01*
X167920943Y-49850500D01*
X167920945Y-49850500D01*
X168079055Y-49850500D01*
X168079057Y-49850500D01*
X168231784Y-49809577D01*
X168368716Y-49730520D01*
X168480520Y-49618716D01*
X168491326Y-49600000D01*
X168559575Y-49481788D01*
X168560938Y-49478498D01*
X168562831Y-49476148D01*
X168563641Y-49474746D01*
X168563859Y-49474872D01*
X168604778Y-49424093D01*
X168671072Y-49402027D01*
X168738771Y-49419305D01*
X168786383Y-49470441D01*
X168799500Y-49525948D01*
X168799500Y-49565891D01*
X168833608Y-49693187D01*
X168855163Y-49730520D01*
X168899500Y-49807314D01*
X168899502Y-49807316D01*
X168963181Y-49870995D01*
X168996666Y-49932318D01*
X168999500Y-49958676D01*
X168999500Y-50041323D01*
X168979815Y-50108362D01*
X168963182Y-50129004D01*
X168899500Y-50192686D01*
X168833608Y-50306812D01*
X168806081Y-50409548D01*
X168799500Y-50434108D01*
X168799500Y-50565892D01*
X168807569Y-50596006D01*
X168833608Y-50693187D01*
X168859772Y-50738504D01*
X168899500Y-50807314D01*
X168899502Y-50807316D01*
X168963181Y-50870995D01*
X168996666Y-50932318D01*
X168999500Y-50958676D01*
X168999500Y-54375500D01*
X168979815Y-54442539D01*
X168927011Y-54488294D01*
X168875500Y-54499500D01*
X161458676Y-54499500D01*
X161391637Y-54479815D01*
X161370995Y-54463181D01*
X161305229Y-54397415D01*
X161271744Y-54336092D01*
X161276728Y-54266400D01*
X161318600Y-54210467D01*
X161330904Y-54202350D01*
X161368716Y-54180520D01*
X161480520Y-54068716D01*
X161559577Y-53931784D01*
X161600500Y-53779057D01*
X161600500Y-53620943D01*
X161559577Y-53468216D01*
X161521696Y-53402603D01*
X161480524Y-53331290D01*
X161480518Y-53331282D01*
X161436819Y-53287583D01*
X161403334Y-53226260D01*
X161400500Y-53199902D01*
X161400500Y-52321560D01*
X161420185Y-52254521D01*
X161455605Y-52218461D01*
X161542162Y-52160626D01*
X161660626Y-52042162D01*
X161753703Y-51902863D01*
X161817816Y-51748082D01*
X161850500Y-51583767D01*
X161850500Y-51416233D01*
X161817816Y-51251918D01*
X161753703Y-51097137D01*
X161673434Y-50977006D01*
X161660626Y-50957837D01*
X161542162Y-50839373D01*
X161402860Y-50746295D01*
X161248082Y-50682184D01*
X161248074Y-50682182D01*
X161083771Y-50649500D01*
X161083767Y-50649500D01*
X160916233Y-50649500D01*
X160916228Y-50649500D01*
X160751925Y-50682182D01*
X160751917Y-50682184D01*
X160597139Y-50746295D01*
X160457837Y-50839373D01*
X160339373Y-50957837D01*
X160246295Y-51097139D01*
X160182184Y-51251917D01*
X160182182Y-51251925D01*
X160149500Y-51416228D01*
X160149500Y-51583771D01*
X160182182Y-51748074D01*
X160182184Y-51748082D01*
X160246295Y-51902860D01*
X160339373Y-52042162D01*
X160385030Y-52087819D01*
X160418515Y-52149142D01*
X160413531Y-52218834D01*
X160371659Y-52274767D01*
X160306195Y-52299184D01*
X160297349Y-52299500D01*
X159978147Y-52299500D01*
X159962193Y-52300995D01*
X159949061Y-52302227D01*
X159949059Y-52302227D01*
X159949055Y-52302228D01*
X159826570Y-52345088D01*
X159722152Y-52422152D01*
X159645089Y-52526568D01*
X159617040Y-52606725D01*
X159576317Y-52663500D01*
X159511364Y-52689246D01*
X159442803Y-52675789D01*
X159392401Y-52627401D01*
X159382960Y-52606730D01*
X159354911Y-52526569D01*
X159277848Y-52422152D01*
X159173431Y-52345089D01*
X159173429Y-52345088D01*
X159050940Y-52302226D01*
X159021863Y-52299500D01*
X159021859Y-52299500D01*
X158524500Y-52299500D01*
X158457461Y-52279815D01*
X158411706Y-52227011D01*
X158400500Y-52175500D01*
X158400500Y-49900000D01*
X161303765Y-49900000D01*
X161310194Y-49944138D01*
X161362964Y-50052082D01*
X161447917Y-50137035D01*
X161555857Y-50189804D01*
X161625838Y-50199999D01*
X161899999Y-50199999D01*
X161900000Y-50199998D01*
X161900000Y-49924810D01*
X161875563Y-49900000D01*
X161303765Y-49900000D01*
X158400500Y-49900000D01*
X158400500Y-49600000D01*
X161303764Y-49600000D01*
X161453973Y-49600000D01*
X161504058Y-49610565D01*
X161587680Y-49647488D01*
X161613643Y-49650500D01*
X161926002Y-49650499D01*
X161993039Y-49670183D01*
X162014345Y-49687487D01*
X162075915Y-49750000D01*
X162076000Y-49750000D01*
X162143039Y-49769685D01*
X162188794Y-49822489D01*
X162200000Y-49874000D01*
X162200000Y-50199999D01*
X162474166Y-50199999D01*
X162544141Y-50189804D01*
X162652080Y-50137036D01*
X162737040Y-50052075D01*
X162737133Y-50051946D01*
X162737304Y-50051811D01*
X162744302Y-50044814D01*
X162745147Y-50045659D01*
X162792108Y-50008824D01*
X162838050Y-49999999D01*
X163350000Y-49999999D01*
X163350000Y-48000000D01*
X162838050Y-48000000D01*
X162771011Y-47980315D01*
X162744458Y-47955029D01*
X162744303Y-47955185D01*
X162737929Y-47948811D01*
X162737133Y-47948053D01*
X162737038Y-47947920D01*
X162652082Y-47862964D01*
X162544141Y-47810195D01*
X162474162Y-47800000D01*
X162200000Y-47800000D01*
X162200000Y-48126000D01*
X162180315Y-48193039D01*
X162127511Y-48238794D01*
X162076000Y-48250000D01*
X162075362Y-48250000D01*
X162013681Y-48311681D01*
X162011147Y-48309147D01*
X161977511Y-48338294D01*
X161926000Y-48349500D01*
X161613651Y-48349500D01*
X161613627Y-48349502D01*
X161587685Y-48352510D01*
X161587675Y-48352513D01*
X161504059Y-48389434D01*
X161453973Y-48400000D01*
X161303765Y-48400000D01*
X161310194Y-48444138D01*
X161341962Y-48509121D01*
X161353720Y-48577994D01*
X161353509Y-48579081D01*
X161349500Y-48613639D01*
X161349500Y-48886348D01*
X161349502Y-48886372D01*
X161352511Y-48912316D01*
X161352512Y-48912320D01*
X161369111Y-48949915D01*
X161378181Y-49019193D01*
X161369111Y-49050083D01*
X161352513Y-49087675D01*
X161352512Y-49087678D01*
X161349500Y-49113639D01*
X161349500Y-49386348D01*
X161349502Y-49386372D01*
X161353586Y-49421585D01*
X161349852Y-49422018D01*
X161348811Y-49473739D01*
X161341962Y-49490878D01*
X161310195Y-49555857D01*
X161303764Y-49600000D01*
X158400500Y-49600000D01*
X158400500Y-48100000D01*
X161303764Y-48100000D01*
X161874638Y-48100000D01*
X161900000Y-48074638D01*
X161900000Y-47800000D01*
X161625834Y-47800000D01*
X161555858Y-47810195D01*
X161447917Y-47862964D01*
X161362964Y-47947917D01*
X161310195Y-48055858D01*
X161303764Y-48100000D01*
X158400500Y-48100000D01*
X158400500Y-45824499D01*
X158420185Y-45757460D01*
X158472989Y-45711705D01*
X158524500Y-45700499D01*
X159021852Y-45700499D01*
X159021858Y-45700499D01*
X159050939Y-45697773D01*
X159173431Y-45654911D01*
X159277848Y-45577848D01*
X159354911Y-45473431D01*
X159382959Y-45393276D01*
X159423681Y-45336500D01*
X159488633Y-45310753D01*
X159557195Y-45324209D01*
X159607598Y-45372597D01*
X159617041Y-45393276D01*
X159642051Y-45464750D01*
X159645089Y-45473431D01*
X159722152Y-45577848D01*
X159826569Y-45654911D01*
X159861915Y-45667279D01*
X159949059Y-45697773D01*
X159956647Y-45698484D01*
X159978141Y-45700500D01*
X160297350Y-45700499D01*
X160364388Y-45720183D01*
X160410143Y-45772987D01*
X160420087Y-45842146D01*
X160391062Y-45905701D01*
X160385031Y-45912179D01*
X160339373Y-45957837D01*
X160246295Y-46097139D01*
X160182184Y-46251917D01*
X160182182Y-46251925D01*
X160149500Y-46416228D01*
X160149500Y-46583771D01*
X160182182Y-46748074D01*
X160182184Y-46748082D01*
X160246295Y-46902860D01*
X160339373Y-47042162D01*
X160457837Y-47160626D01*
X160505819Y-47192686D01*
X160597137Y-47253703D01*
X160751918Y-47317816D01*
X160916228Y-47350499D01*
X160916232Y-47350500D01*
X160916233Y-47350500D01*
X161083768Y-47350500D01*
X161083769Y-47350499D01*
X161248082Y-47317816D01*
X161402863Y-47253703D01*
X161542162Y-47160626D01*
X161660626Y-47042162D01*
X161753703Y-46902863D01*
X161817816Y-46748082D01*
X161850500Y-46583767D01*
X161850500Y-46416233D01*
X161817816Y-46251918D01*
X161753703Y-46097137D01*
X161683813Y-45992539D01*
X161660626Y-45957837D01*
X161542162Y-45839373D01*
X161468592Y-45790216D01*
X161423787Y-45736604D01*
X161415080Y-45667279D01*
X161445234Y-45604252D01*
X161449784Y-45599451D01*
X161480520Y-45568716D01*
X161559577Y-45431784D01*
X161600500Y-45279057D01*
X161600500Y-45120943D01*
X161559577Y-44968216D01*
X161551198Y-44953703D01*
X161480524Y-44831290D01*
X161480518Y-44831282D01*
X161368717Y-44719481D01*
X161368712Y-44719477D01*
X161303603Y-44681887D01*
X161255388Y-44631321D01*
X161242164Y-44562714D01*
X161268132Y-44497849D01*
X161325046Y-44457320D01*
X161365603Y-44450500D01*
X164813035Y-44450500D01*
X164880074Y-44470185D01*
G37*
%TD.AperFunction*%
%TA.AperFunction,Conductor*%
G36*
X153806630Y-49050253D02*
G01*
X153864863Y-49088863D01*
X153892473Y-49149321D01*
X153917829Y-49309410D01*
X153973787Y-49481636D01*
X153973788Y-49481639D01*
X154056006Y-49642997D01*
X154162441Y-49789494D01*
X154162445Y-49789499D01*
X154290500Y-49917554D01*
X154290505Y-49917558D01*
X154300487Y-49924810D01*
X154437006Y-50023996D01*
X154492128Y-50052082D01*
X154598360Y-50106211D01*
X154598363Y-50106212D01*
X154624506Y-50114706D01*
X154770591Y-50162171D01*
X154772463Y-50162467D01*
X154773118Y-50162778D01*
X154775322Y-50163307D01*
X154775210Y-50163769D01*
X154835597Y-50192392D01*
X154872532Y-50251701D01*
X154871538Y-50321564D01*
X154832932Y-50379799D01*
X154772472Y-50407414D01*
X154758994Y-50409548D01*
X154579362Y-50467914D01*
X154411064Y-50553667D01*
X154411062Y-50553668D01*
X154303759Y-50631626D01*
X154303759Y-50631627D01*
X154808461Y-51136329D01*
X154732993Y-51179901D01*
X154639901Y-51272993D01*
X154596329Y-51348461D01*
X154091627Y-50843759D01*
X154091626Y-50843759D01*
X154013668Y-50951062D01*
X154013667Y-50951064D01*
X153927914Y-51119362D01*
X153869548Y-51298994D01*
X153867414Y-51312472D01*
X153837482Y-51375605D01*
X153778170Y-51412535D01*
X153708307Y-51411535D01*
X153650076Y-51372923D01*
X153623726Y-51315221D01*
X153623307Y-51315322D01*
X153622790Y-51313171D01*
X153622467Y-51312463D01*
X153622171Y-51310591D01*
X153592307Y-51218679D01*
X153566212Y-51138363D01*
X153566211Y-51138360D01*
X153530721Y-51068709D01*
X153483996Y-50977006D01*
X153465147Y-50951062D01*
X153377558Y-50830505D01*
X153377554Y-50830500D01*
X153249499Y-50702445D01*
X153249494Y-50702441D01*
X153102997Y-50596006D01*
X153102996Y-50596005D01*
X153102994Y-50596004D01*
X153043892Y-50565890D01*
X152941639Y-50513788D01*
X152941636Y-50513787D01*
X152769410Y-50457829D01*
X152609321Y-50432473D01*
X152546186Y-50402544D01*
X152509255Y-50343232D01*
X152510253Y-50273370D01*
X152548863Y-50215137D01*
X152609321Y-50187527D01*
X152679425Y-50176422D01*
X152769409Y-50162171D01*
X152941639Y-50106211D01*
X153102994Y-50023996D01*
X153249501Y-49917553D01*
X153377553Y-49789501D01*
X153483996Y-49642994D01*
X153566211Y-49481639D01*
X153622171Y-49309409D01*
X153640658Y-49192686D01*
X153647527Y-49149321D01*
X153677456Y-49086186D01*
X153736768Y-49049255D01*
X153806630Y-49050253D01*
G37*
%TD.AperFunction*%
%TA.AperFunction,Conductor*%
G36*
X168942539Y-43520185D02*
G01*
X168988294Y-43572989D01*
X168999500Y-43624500D01*
X168999500Y-47041323D01*
X168979815Y-47108362D01*
X168963182Y-47129004D01*
X168899500Y-47192686D01*
X168833608Y-47306812D01*
X168814653Y-47377554D01*
X168799500Y-47434108D01*
X168799500Y-47565892D01*
X168799586Y-47566212D01*
X168833608Y-47693187D01*
X168850815Y-47722989D01*
X168899500Y-47807314D01*
X168899502Y-47807316D01*
X168963181Y-47870995D01*
X168996666Y-47932318D01*
X168999500Y-47958676D01*
X168999500Y-48041323D01*
X168979815Y-48108362D01*
X168963182Y-48129004D01*
X168899500Y-48192686D01*
X168833608Y-48306812D01*
X168808639Y-48400000D01*
X168799500Y-48434108D01*
X168799500Y-48565892D01*
X168808800Y-48600599D01*
X168833608Y-48693187D01*
X168842076Y-48707853D01*
X168899500Y-48807314D01*
X168899502Y-48807316D01*
X168963181Y-48870995D01*
X168996666Y-48932318D01*
X168999500Y-48958676D01*
X168999500Y-49041323D01*
X168979815Y-49108362D01*
X168963182Y-49129004D01*
X168899500Y-49192686D01*
X168831887Y-49309794D01*
X168781319Y-49358009D01*
X168712712Y-49371231D01*
X168647848Y-49345263D01*
X168607320Y-49288349D01*
X168600500Y-49247793D01*
X168600500Y-49170945D01*
X168600500Y-49170943D01*
X168559577Y-49018216D01*
X168545488Y-48993813D01*
X168480524Y-48881290D01*
X168480518Y-48881282D01*
X168368717Y-48769481D01*
X168368709Y-48769475D01*
X168231790Y-48690426D01*
X168231786Y-48690424D01*
X168231784Y-48690423D01*
X168079057Y-48649500D01*
X167920943Y-48649500D01*
X167768216Y-48690423D01*
X167768209Y-48690426D01*
X167631290Y-48769475D01*
X167631282Y-48769481D01*
X167587583Y-48813181D01*
X167526260Y-48846666D01*
X167499902Y-48849500D01*
X165542630Y-48849500D01*
X165475591Y-48829815D01*
X165429836Y-48777011D01*
X165419892Y-48707853D01*
X165448917Y-48644297D01*
X165492544Y-48612066D01*
X165500107Y-48608726D01*
X165518514Y-48600599D01*
X165600599Y-48518514D01*
X165647488Y-48412320D01*
X165650500Y-48386357D01*
X165650499Y-48113644D01*
X165650305Y-48111976D01*
X165647489Y-48087685D01*
X165647488Y-48087682D01*
X165647488Y-48087680D01*
X165641729Y-48074638D01*
X165600599Y-47981486D01*
X165518514Y-47899401D01*
X165424413Y-47857851D01*
X165371037Y-47812765D01*
X165350510Y-47745979D01*
X165350500Y-47744417D01*
X165350500Y-45586603D01*
X165370185Y-45519564D01*
X165422989Y-45473809D01*
X165492147Y-45463865D01*
X165555703Y-45492890D01*
X165574270Y-45512970D01*
X165622150Y-45577846D01*
X165622151Y-45577846D01*
X165622152Y-45577848D01*
X165726569Y-45654911D01*
X165761915Y-45667279D01*
X165849059Y-45697773D01*
X165856647Y-45698484D01*
X165878141Y-45700500D01*
X166521858Y-45700499D01*
X166550939Y-45697773D01*
X166673431Y-45654911D01*
X166777848Y-45577848D01*
X166854911Y-45473431D01*
X166857115Y-45467132D01*
X166897833Y-45410358D01*
X166962785Y-45384609D01*
X167031347Y-45398062D01*
X167081751Y-45446448D01*
X167090337Y-45464750D01*
X167104381Y-45502403D01*
X167104384Y-45502407D01*
X167187097Y-45612902D01*
X167297592Y-45695615D01*
X167297594Y-45695616D01*
X167426922Y-45743854D01*
X167484078Y-45749999D01*
X167649999Y-45749999D01*
X167950000Y-45749999D01*
X168115909Y-45749999D01*
X168115918Y-45749998D01*
X168173081Y-45743854D01*
X168302401Y-45695618D01*
X168302407Y-45695615D01*
X168412902Y-45612902D01*
X168495615Y-45502407D01*
X168495616Y-45502405D01*
X168543854Y-45373077D01*
X168549999Y-45315929D01*
X168550000Y-45315912D01*
X168550000Y-45150000D01*
X167950000Y-45150000D01*
X167950000Y-45749999D01*
X167649999Y-45749999D01*
X167650000Y-45749998D01*
X167650000Y-44850000D01*
X167950000Y-44850000D01*
X168549999Y-44850000D01*
X168549999Y-44684090D01*
X168549998Y-44684081D01*
X168543854Y-44626918D01*
X168495618Y-44497598D01*
X168495615Y-44497592D01*
X168412902Y-44387097D01*
X168302407Y-44304384D01*
X168302405Y-44304383D01*
X168173077Y-44256145D01*
X168115929Y-44250000D01*
X167950000Y-44250000D01*
X167950000Y-44850000D01*
X167650000Y-44850000D01*
X167650000Y-44250000D01*
X167484091Y-44250000D01*
X167484081Y-44250001D01*
X167426918Y-44256145D01*
X167297598Y-44304381D01*
X167297592Y-44304384D01*
X167187097Y-44387097D01*
X167104384Y-44497592D01*
X167104381Y-44497596D01*
X167090337Y-44535250D01*
X167048464Y-44591183D01*
X166983000Y-44615598D01*
X166914727Y-44600745D01*
X166865323Y-44551339D01*
X166857118Y-44532876D01*
X166854911Y-44526569D01*
X166777848Y-44422152D01*
X166700865Y-44365336D01*
X166658616Y-44309689D01*
X166650500Y-44265567D01*
X166650500Y-43940693D01*
X166650500Y-43940691D01*
X166619799Y-43826114D01*
X166619799Y-43826113D01*
X166560489Y-43723386D01*
X166549284Y-43712181D01*
X166515799Y-43650858D01*
X166520783Y-43581166D01*
X166562655Y-43525233D01*
X166628119Y-43500816D01*
X166636965Y-43500500D01*
X168875500Y-43500500D01*
X168942539Y-43520185D01*
G37*
%TD.AperFunction*%
%TD*%
M02*
