%TF.GenerationSoftware,KiCad,Pcbnew,10.0.6*%
%TF.CreationDate,2026-09-13T12:42:58+08:00*%
%TF.ProjectId,MFI-Pi4-MiniHat-2x2-Panel,4d46492d-5069-4342-9d4d-696e69486174,rev?*%
%TF.SameCoordinates,Original*%
%TF.FileFunction,Paste,Top*%
%TF.FilePolarity,Positive*%
%FSLAX46Y46*%
G04 Gerber Fmt 4.6, Leading zero omitted, Abs format (unit mm)*
G04 Created by KiCad (PCBNEW 10.0.6) date 2026-09-13 12:42:58*
%MOMM*%
%LPD*%
G01*
G04 APERTURE LIST*
G04 Aperture macros list*
%AMRoundRect*
0 Rectangle with rounded corners*
0 $1 Rounding radius*
0 $2 $3 $4 $5 $6 $7 $8 $9 X,Y pos of 4 corners*
0 Add a 4 corners polygon primitive as box body*
4,1,4,$2,$3,$4,$5,$6,$7,$8,$9,$2,$3,0*
0 Add four circle primitives for the rounded corners*
1,1,$1+$1,$2,$3*
1,1,$1+$1,$4,$5*
1,1,$1+$1,$6,$7*
1,1,$1+$1,$8,$9*
0 Add four rect primitives between the rounded corners*
20,1,$1+$1,$2,$3,$4,$5,0*
20,1,$1+$1,$4,$5,$6,$7,0*
20,1,$1+$1,$6,$7,$8,$9,0*
20,1,$1+$1,$8,$9,$2,$3,0*%
G04 Aperture macros list end*
%ADD10RoundRect,0.180000X-0.270000X-0.270000X0.270000X-0.270000X0.270000X0.270000X-0.270000X0.270000X0*%
%ADD11R,0.700000X0.550000*%
%ADD12RoundRect,0.060000X-0.390000X-0.090000X0.390000X-0.090000X0.390000X0.090000X-0.390000X0.090000X0*%
G04 APERTURE END LIST*
D10*
%TO.C,B1-C1*%
X166200000Y-31000000D03*
X167800000Y-31000000D03*
%TD*%
%TO.C,B2-R1*%
X136700000Y-45000000D03*
X138300000Y-45000000D03*
%TD*%
D11*
%TO.C,B2-U1*%
X141070000Y-48660000D03*
X141070000Y-49340000D03*
X141930000Y-48660000D03*
X141930000Y-49340000D03*
D12*
X140050000Y-48250000D03*
X140050000Y-48750000D03*
X140050000Y-49250000D03*
X140050000Y-49750000D03*
X142950000Y-49750000D03*
X142950000Y-49250000D03*
X142950000Y-48750000D03*
X142950000Y-48250000D03*
%TD*%
D10*
%TO.C,B3-C1*%
X166200000Y-45000000D03*
X167800000Y-45000000D03*
%TD*%
%TO.C,B2-C1*%
X144200000Y-45000000D03*
X145800000Y-45000000D03*
%TD*%
%TO.C,B2-R2*%
X136700000Y-53000000D03*
X138300000Y-53000000D03*
%TD*%
%TO.C,B0-R1*%
X136700000Y-31000000D03*
X138300000Y-31000000D03*
%TD*%
%TO.C,B0-C1*%
X144200000Y-31000000D03*
X145800000Y-31000000D03*
%TD*%
%TO.C,B1-R1*%
X158700000Y-31000000D03*
X160300000Y-31000000D03*
%TD*%
D11*
%TO.C,B3-U1*%
X163070000Y-48660000D03*
X163070000Y-49340000D03*
X163930000Y-48660000D03*
X163930000Y-49340000D03*
D12*
X162050000Y-48250000D03*
X162050000Y-48750000D03*
X162050000Y-49250000D03*
X162050000Y-49750000D03*
X164950000Y-49750000D03*
X164950000Y-49250000D03*
X164950000Y-48750000D03*
X164950000Y-48250000D03*
%TD*%
D10*
%TO.C,B3-R1*%
X158700000Y-45000000D03*
X160300000Y-45000000D03*
%TD*%
D11*
%TO.C,B1-U1*%
X163070000Y-34660000D03*
X163070000Y-35340000D03*
X163930000Y-34660000D03*
X163930000Y-35340000D03*
D12*
X162050000Y-34250000D03*
X162050000Y-34750000D03*
X162050000Y-35250000D03*
X162050000Y-35750000D03*
X164950000Y-35750000D03*
X164950000Y-35250000D03*
X164950000Y-34750000D03*
X164950000Y-34250000D03*
%TD*%
D10*
%TO.C,B3-R2*%
X158700000Y-53000000D03*
X160300000Y-53000000D03*
%TD*%
D11*
%TO.C,B0-U1*%
X141070000Y-34660000D03*
X141070000Y-35340000D03*
X141930000Y-34660000D03*
X141930000Y-35340000D03*
D12*
X140050000Y-34250000D03*
X140050000Y-34750000D03*
X140050000Y-35250000D03*
X140050000Y-35750000D03*
X142950000Y-35750000D03*
X142950000Y-35250000D03*
X142950000Y-34750000D03*
X142950000Y-34250000D03*
%TD*%
D10*
%TO.C,B1-R2*%
X158700000Y-39000000D03*
X160300000Y-39000000D03*
%TD*%
%TO.C,B0-R2*%
X136700000Y-39000000D03*
X138300000Y-39000000D03*
%TD*%
M02*
