%TF.GenerationSoftware,KiCad,Pcbnew,10.0.6*%
%TF.CreationDate,2026-09-13T12:42:58+08:00*%
%TF.ProjectId,MFI-Pi4-MiniHat-2x2-Panel,4d46492d-5069-4342-9d4d-696e69486174,rev?*%
%TF.SameCoordinates,Original*%
%TF.FileFunction,Legend,Top*%
%TF.FilePolarity,Positive*%
%FSLAX46Y46*%
G04 Gerber Fmt 4.6, Leading zero omitted, Abs format (unit mm)*
G04 Created by KiCad (PCBNEW 10.0.6) date 2026-09-13 12:42:58*
%MOMM*%
%LPD*%
G01*
G04 APERTURE LIST*
%ADD10C,0.120000*%
%ADD11C,0.150000*%
%ADD12C,0.250000*%
%ADD13C,0.200000*%
%ADD14C,0.275000*%
G04 APERTURE END LIST*
D10*
X128183333Y-30317593D02*
X128183333Y-29617593D01*
X128183333Y-29617593D02*
X128450000Y-29617593D01*
X128450000Y-29617593D02*
X128516667Y-29650926D01*
X128516667Y-29650926D02*
X128550000Y-29684260D01*
X128550000Y-29684260D02*
X128583333Y-29750926D01*
X128583333Y-29750926D02*
X128583333Y-29850926D01*
X128583333Y-29850926D02*
X128550000Y-29917593D01*
X128550000Y-29917593D02*
X128516667Y-29950926D01*
X128516667Y-29950926D02*
X128450000Y-29984260D01*
X128450000Y-29984260D02*
X128183333Y-29984260D01*
X128883333Y-30317593D02*
X128883333Y-29617593D01*
X129216666Y-30317593D02*
X129216666Y-29617593D01*
X129216666Y-29617593D02*
X129616666Y-30317593D01*
X129616666Y-30317593D02*
X129616666Y-29617593D01*
X130849999Y-30317593D02*
X130449999Y-30317593D01*
X130649999Y-30317593D02*
X130649999Y-29617593D01*
X130649999Y-29617593D02*
X130583332Y-29717593D01*
X130583332Y-29717593D02*
X130516666Y-29784260D01*
X130516666Y-29784260D02*
X130449999Y-29817593D01*
X128183333Y-44317593D02*
X128183333Y-43617593D01*
X128183333Y-43617593D02*
X128450000Y-43617593D01*
X128450000Y-43617593D02*
X128516667Y-43650926D01*
X128516667Y-43650926D02*
X128550000Y-43684260D01*
X128550000Y-43684260D02*
X128583333Y-43750926D01*
X128583333Y-43750926D02*
X128583333Y-43850926D01*
X128583333Y-43850926D02*
X128550000Y-43917593D01*
X128550000Y-43917593D02*
X128516667Y-43950926D01*
X128516667Y-43950926D02*
X128450000Y-43984260D01*
X128450000Y-43984260D02*
X128183333Y-43984260D01*
X128883333Y-44317593D02*
X128883333Y-43617593D01*
X129216666Y-44317593D02*
X129216666Y-43617593D01*
X129216666Y-43617593D02*
X129616666Y-44317593D01*
X129616666Y-44317593D02*
X129616666Y-43617593D01*
X130849999Y-44317593D02*
X130449999Y-44317593D01*
X130649999Y-44317593D02*
X130649999Y-43617593D01*
X130649999Y-43617593D02*
X130583332Y-43717593D01*
X130583332Y-43717593D02*
X130516666Y-43784260D01*
X130516666Y-43784260D02*
X130449999Y-43817593D01*
X150183333Y-30317593D02*
X150183333Y-29617593D01*
X150183333Y-29617593D02*
X150450000Y-29617593D01*
X150450000Y-29617593D02*
X150516667Y-29650926D01*
X150516667Y-29650926D02*
X150550000Y-29684260D01*
X150550000Y-29684260D02*
X150583333Y-29750926D01*
X150583333Y-29750926D02*
X150583333Y-29850926D01*
X150583333Y-29850926D02*
X150550000Y-29917593D01*
X150550000Y-29917593D02*
X150516667Y-29950926D01*
X150516667Y-29950926D02*
X150450000Y-29984260D01*
X150450000Y-29984260D02*
X150183333Y-29984260D01*
X150883333Y-30317593D02*
X150883333Y-29617593D01*
X151216666Y-30317593D02*
X151216666Y-29617593D01*
X151216666Y-29617593D02*
X151616666Y-30317593D01*
X151616666Y-30317593D02*
X151616666Y-29617593D01*
X152849999Y-30317593D02*
X152449999Y-30317593D01*
X152649999Y-30317593D02*
X152649999Y-29617593D01*
X152649999Y-29617593D02*
X152583332Y-29717593D01*
X152583332Y-29717593D02*
X152516666Y-29784260D01*
X152516666Y-29784260D02*
X152449999Y-29817593D01*
X150183333Y-44317593D02*
X150183333Y-43617593D01*
X150183333Y-43617593D02*
X150450000Y-43617593D01*
X150450000Y-43617593D02*
X150516667Y-43650926D01*
X150516667Y-43650926D02*
X150550000Y-43684260D01*
X150550000Y-43684260D02*
X150583333Y-43750926D01*
X150583333Y-43750926D02*
X150583333Y-43850926D01*
X150583333Y-43850926D02*
X150550000Y-43917593D01*
X150550000Y-43917593D02*
X150516667Y-43950926D01*
X150516667Y-43950926D02*
X150450000Y-43984260D01*
X150450000Y-43984260D02*
X150183333Y-43984260D01*
X150883333Y-44317593D02*
X150883333Y-43617593D01*
X151216666Y-44317593D02*
X151216666Y-43617593D01*
X151216666Y-43617593D02*
X151616666Y-44317593D01*
X151616666Y-44317593D02*
X151616666Y-43617593D01*
X152849999Y-44317593D02*
X152449999Y-44317593D01*
X152649999Y-44317593D02*
X152649999Y-43617593D01*
X152649999Y-43617593D02*
X152583332Y-43717593D01*
X152583332Y-43717593D02*
X152516666Y-43784260D01*
X152516666Y-43784260D02*
X152449999Y-43817593D01*
X138842857Y-39663855D02*
X138842857Y-38863855D01*
X138842857Y-38863855D02*
X139109523Y-39435283D01*
X139109523Y-39435283D02*
X139376190Y-38863855D01*
X139376190Y-38863855D02*
X139376190Y-39663855D01*
X140023809Y-39244807D02*
X139757143Y-39244807D01*
X139757143Y-39663855D02*
X139757143Y-38863855D01*
X139757143Y-38863855D02*
X140138095Y-38863855D01*
X140442857Y-39663855D02*
X140442857Y-39130521D01*
X140442857Y-38863855D02*
X140404761Y-38901950D01*
X140404761Y-38901950D02*
X140442857Y-38940045D01*
X140442857Y-38940045D02*
X140480952Y-38901950D01*
X140480952Y-38901950D02*
X140442857Y-38863855D01*
X140442857Y-38863855D02*
X140442857Y-38940045D01*
X141395237Y-39435283D02*
X141776190Y-39435283D01*
X141319047Y-39663855D02*
X141585714Y-38863855D01*
X141585714Y-38863855D02*
X141852380Y-39663855D01*
X142461904Y-39130521D02*
X142461904Y-39663855D01*
X142119047Y-39130521D02*
X142119047Y-39549569D01*
X142119047Y-39549569D02*
X142157142Y-39625760D01*
X142157142Y-39625760D02*
X142233332Y-39663855D01*
X142233332Y-39663855D02*
X142347618Y-39663855D01*
X142347618Y-39663855D02*
X142423809Y-39625760D01*
X142423809Y-39625760D02*
X142461904Y-39587664D01*
X142728571Y-39130521D02*
X143033333Y-39130521D01*
X142842857Y-38863855D02*
X142842857Y-39549569D01*
X142842857Y-39549569D02*
X142880952Y-39625760D01*
X142880952Y-39625760D02*
X142957142Y-39663855D01*
X142957142Y-39663855D02*
X143033333Y-39663855D01*
X143300000Y-39663855D02*
X143300000Y-38863855D01*
X143642857Y-39663855D02*
X143642857Y-39244807D01*
X143642857Y-39244807D02*
X143604762Y-39168617D01*
X143604762Y-39168617D02*
X143528571Y-39130521D01*
X143528571Y-39130521D02*
X143414285Y-39130521D01*
X143414285Y-39130521D02*
X143338095Y-39168617D01*
X143338095Y-39168617D02*
X143300000Y-39206712D01*
X144557143Y-38863855D02*
X145052381Y-38863855D01*
X145052381Y-38863855D02*
X144785715Y-39168617D01*
X144785715Y-39168617D02*
X144900000Y-39168617D01*
X144900000Y-39168617D02*
X144976191Y-39206712D01*
X144976191Y-39206712D02*
X145014286Y-39244807D01*
X145014286Y-39244807D02*
X145052381Y-39320998D01*
X145052381Y-39320998D02*
X145052381Y-39511474D01*
X145052381Y-39511474D02*
X145014286Y-39587664D01*
X145014286Y-39587664D02*
X144976191Y-39625760D01*
X144976191Y-39625760D02*
X144900000Y-39663855D01*
X144900000Y-39663855D02*
X144671429Y-39663855D01*
X144671429Y-39663855D02*
X144595238Y-39625760D01*
X144595238Y-39625760D02*
X144557143Y-39587664D01*
X145395239Y-39587664D02*
X145433334Y-39625760D01*
X145433334Y-39625760D02*
X145395239Y-39663855D01*
X145395239Y-39663855D02*
X145357143Y-39625760D01*
X145357143Y-39625760D02*
X145395239Y-39587664D01*
X145395239Y-39587664D02*
X145395239Y-39663855D01*
X145928572Y-38863855D02*
X146004762Y-38863855D01*
X146004762Y-38863855D02*
X146080953Y-38901950D01*
X146080953Y-38901950D02*
X146119048Y-38940045D01*
X146119048Y-38940045D02*
X146157143Y-39016236D01*
X146157143Y-39016236D02*
X146195238Y-39168617D01*
X146195238Y-39168617D02*
X146195238Y-39359093D01*
X146195238Y-39359093D02*
X146157143Y-39511474D01*
X146157143Y-39511474D02*
X146119048Y-39587664D01*
X146119048Y-39587664D02*
X146080953Y-39625760D01*
X146080953Y-39625760D02*
X146004762Y-39663855D01*
X146004762Y-39663855D02*
X145928572Y-39663855D01*
X145928572Y-39663855D02*
X145852381Y-39625760D01*
X145852381Y-39625760D02*
X145814286Y-39587664D01*
X145814286Y-39587664D02*
X145776191Y-39511474D01*
X145776191Y-39511474D02*
X145738095Y-39359093D01*
X145738095Y-39359093D02*
X145738095Y-39168617D01*
X145738095Y-39168617D02*
X145776191Y-39016236D01*
X145776191Y-39016236D02*
X145814286Y-38940045D01*
X145814286Y-38940045D02*
X145852381Y-38901950D01*
X145852381Y-38901950D02*
X145928572Y-38863855D01*
X138842857Y-53663855D02*
X138842857Y-52863855D01*
X138842857Y-52863855D02*
X139109523Y-53435283D01*
X139109523Y-53435283D02*
X139376190Y-52863855D01*
X139376190Y-52863855D02*
X139376190Y-53663855D01*
X140023809Y-53244807D02*
X139757143Y-53244807D01*
X139757143Y-53663855D02*
X139757143Y-52863855D01*
X139757143Y-52863855D02*
X140138095Y-52863855D01*
X140442857Y-53663855D02*
X140442857Y-53130521D01*
X140442857Y-52863855D02*
X140404761Y-52901950D01*
X140404761Y-52901950D02*
X140442857Y-52940045D01*
X140442857Y-52940045D02*
X140480952Y-52901950D01*
X140480952Y-52901950D02*
X140442857Y-52863855D01*
X140442857Y-52863855D02*
X140442857Y-52940045D01*
X141395237Y-53435283D02*
X141776190Y-53435283D01*
X141319047Y-53663855D02*
X141585714Y-52863855D01*
X141585714Y-52863855D02*
X141852380Y-53663855D01*
X142461904Y-53130521D02*
X142461904Y-53663855D01*
X142119047Y-53130521D02*
X142119047Y-53549569D01*
X142119047Y-53549569D02*
X142157142Y-53625760D01*
X142157142Y-53625760D02*
X142233332Y-53663855D01*
X142233332Y-53663855D02*
X142347618Y-53663855D01*
X142347618Y-53663855D02*
X142423809Y-53625760D01*
X142423809Y-53625760D02*
X142461904Y-53587664D01*
X142728571Y-53130521D02*
X143033333Y-53130521D01*
X142842857Y-52863855D02*
X142842857Y-53549569D01*
X142842857Y-53549569D02*
X142880952Y-53625760D01*
X142880952Y-53625760D02*
X142957142Y-53663855D01*
X142957142Y-53663855D02*
X143033333Y-53663855D01*
X143300000Y-53663855D02*
X143300000Y-52863855D01*
X143642857Y-53663855D02*
X143642857Y-53244807D01*
X143642857Y-53244807D02*
X143604762Y-53168617D01*
X143604762Y-53168617D02*
X143528571Y-53130521D01*
X143528571Y-53130521D02*
X143414285Y-53130521D01*
X143414285Y-53130521D02*
X143338095Y-53168617D01*
X143338095Y-53168617D02*
X143300000Y-53206712D01*
X144557143Y-52863855D02*
X145052381Y-52863855D01*
X145052381Y-52863855D02*
X144785715Y-53168617D01*
X144785715Y-53168617D02*
X144900000Y-53168617D01*
X144900000Y-53168617D02*
X144976191Y-53206712D01*
X144976191Y-53206712D02*
X145014286Y-53244807D01*
X145014286Y-53244807D02*
X145052381Y-53320998D01*
X145052381Y-53320998D02*
X145052381Y-53511474D01*
X145052381Y-53511474D02*
X145014286Y-53587664D01*
X145014286Y-53587664D02*
X144976191Y-53625760D01*
X144976191Y-53625760D02*
X144900000Y-53663855D01*
X144900000Y-53663855D02*
X144671429Y-53663855D01*
X144671429Y-53663855D02*
X144595238Y-53625760D01*
X144595238Y-53625760D02*
X144557143Y-53587664D01*
X145395239Y-53587664D02*
X145433334Y-53625760D01*
X145433334Y-53625760D02*
X145395239Y-53663855D01*
X145395239Y-53663855D02*
X145357143Y-53625760D01*
X145357143Y-53625760D02*
X145395239Y-53587664D01*
X145395239Y-53587664D02*
X145395239Y-53663855D01*
X145928572Y-52863855D02*
X146004762Y-52863855D01*
X146004762Y-52863855D02*
X146080953Y-52901950D01*
X146080953Y-52901950D02*
X146119048Y-52940045D01*
X146119048Y-52940045D02*
X146157143Y-53016236D01*
X146157143Y-53016236D02*
X146195238Y-53168617D01*
X146195238Y-53168617D02*
X146195238Y-53359093D01*
X146195238Y-53359093D02*
X146157143Y-53511474D01*
X146157143Y-53511474D02*
X146119048Y-53587664D01*
X146119048Y-53587664D02*
X146080953Y-53625760D01*
X146080953Y-53625760D02*
X146004762Y-53663855D01*
X146004762Y-53663855D02*
X145928572Y-53663855D01*
X145928572Y-53663855D02*
X145852381Y-53625760D01*
X145852381Y-53625760D02*
X145814286Y-53587664D01*
X145814286Y-53587664D02*
X145776191Y-53511474D01*
X145776191Y-53511474D02*
X145738095Y-53359093D01*
X145738095Y-53359093D02*
X145738095Y-53168617D01*
X145738095Y-53168617D02*
X145776191Y-53016236D01*
X145776191Y-53016236D02*
X145814286Y-52940045D01*
X145814286Y-52940045D02*
X145852381Y-52901950D01*
X145852381Y-52901950D02*
X145928572Y-52863855D01*
X160842857Y-39663855D02*
X160842857Y-38863855D01*
X160842857Y-38863855D02*
X161109523Y-39435283D01*
X161109523Y-39435283D02*
X161376190Y-38863855D01*
X161376190Y-38863855D02*
X161376190Y-39663855D01*
X162023809Y-39244807D02*
X161757143Y-39244807D01*
X161757143Y-39663855D02*
X161757143Y-38863855D01*
X161757143Y-38863855D02*
X162138095Y-38863855D01*
X162442857Y-39663855D02*
X162442857Y-39130521D01*
X162442857Y-38863855D02*
X162404761Y-38901950D01*
X162404761Y-38901950D02*
X162442857Y-38940045D01*
X162442857Y-38940045D02*
X162480952Y-38901950D01*
X162480952Y-38901950D02*
X162442857Y-38863855D01*
X162442857Y-38863855D02*
X162442857Y-38940045D01*
X163395237Y-39435283D02*
X163776190Y-39435283D01*
X163319047Y-39663855D02*
X163585714Y-38863855D01*
X163585714Y-38863855D02*
X163852380Y-39663855D01*
X164461904Y-39130521D02*
X164461904Y-39663855D01*
X164119047Y-39130521D02*
X164119047Y-39549569D01*
X164119047Y-39549569D02*
X164157142Y-39625760D01*
X164157142Y-39625760D02*
X164233332Y-39663855D01*
X164233332Y-39663855D02*
X164347618Y-39663855D01*
X164347618Y-39663855D02*
X164423809Y-39625760D01*
X164423809Y-39625760D02*
X164461904Y-39587664D01*
X164728571Y-39130521D02*
X165033333Y-39130521D01*
X164842857Y-38863855D02*
X164842857Y-39549569D01*
X164842857Y-39549569D02*
X164880952Y-39625760D01*
X164880952Y-39625760D02*
X164957142Y-39663855D01*
X164957142Y-39663855D02*
X165033333Y-39663855D01*
X165300000Y-39663855D02*
X165300000Y-38863855D01*
X165642857Y-39663855D02*
X165642857Y-39244807D01*
X165642857Y-39244807D02*
X165604762Y-39168617D01*
X165604762Y-39168617D02*
X165528571Y-39130521D01*
X165528571Y-39130521D02*
X165414285Y-39130521D01*
X165414285Y-39130521D02*
X165338095Y-39168617D01*
X165338095Y-39168617D02*
X165300000Y-39206712D01*
X166557143Y-38863855D02*
X167052381Y-38863855D01*
X167052381Y-38863855D02*
X166785715Y-39168617D01*
X166785715Y-39168617D02*
X166900000Y-39168617D01*
X166900000Y-39168617D02*
X166976191Y-39206712D01*
X166976191Y-39206712D02*
X167014286Y-39244807D01*
X167014286Y-39244807D02*
X167052381Y-39320998D01*
X167052381Y-39320998D02*
X167052381Y-39511474D01*
X167052381Y-39511474D02*
X167014286Y-39587664D01*
X167014286Y-39587664D02*
X166976191Y-39625760D01*
X166976191Y-39625760D02*
X166900000Y-39663855D01*
X166900000Y-39663855D02*
X166671429Y-39663855D01*
X166671429Y-39663855D02*
X166595238Y-39625760D01*
X166595238Y-39625760D02*
X166557143Y-39587664D01*
X167395239Y-39587664D02*
X167433334Y-39625760D01*
X167433334Y-39625760D02*
X167395239Y-39663855D01*
X167395239Y-39663855D02*
X167357143Y-39625760D01*
X167357143Y-39625760D02*
X167395239Y-39587664D01*
X167395239Y-39587664D02*
X167395239Y-39663855D01*
X167928572Y-38863855D02*
X168004762Y-38863855D01*
X168004762Y-38863855D02*
X168080953Y-38901950D01*
X168080953Y-38901950D02*
X168119048Y-38940045D01*
X168119048Y-38940045D02*
X168157143Y-39016236D01*
X168157143Y-39016236D02*
X168195238Y-39168617D01*
X168195238Y-39168617D02*
X168195238Y-39359093D01*
X168195238Y-39359093D02*
X168157143Y-39511474D01*
X168157143Y-39511474D02*
X168119048Y-39587664D01*
X168119048Y-39587664D02*
X168080953Y-39625760D01*
X168080953Y-39625760D02*
X168004762Y-39663855D01*
X168004762Y-39663855D02*
X167928572Y-39663855D01*
X167928572Y-39663855D02*
X167852381Y-39625760D01*
X167852381Y-39625760D02*
X167814286Y-39587664D01*
X167814286Y-39587664D02*
X167776191Y-39511474D01*
X167776191Y-39511474D02*
X167738095Y-39359093D01*
X167738095Y-39359093D02*
X167738095Y-39168617D01*
X167738095Y-39168617D02*
X167776191Y-39016236D01*
X167776191Y-39016236D02*
X167814286Y-38940045D01*
X167814286Y-38940045D02*
X167852381Y-38901950D01*
X167852381Y-38901950D02*
X167928572Y-38863855D01*
X160842857Y-53663855D02*
X160842857Y-52863855D01*
X160842857Y-52863855D02*
X161109523Y-53435283D01*
X161109523Y-53435283D02*
X161376190Y-52863855D01*
X161376190Y-52863855D02*
X161376190Y-53663855D01*
X162023809Y-53244807D02*
X161757143Y-53244807D01*
X161757143Y-53663855D02*
X161757143Y-52863855D01*
X161757143Y-52863855D02*
X162138095Y-52863855D01*
X162442857Y-53663855D02*
X162442857Y-53130521D01*
X162442857Y-52863855D02*
X162404761Y-52901950D01*
X162404761Y-52901950D02*
X162442857Y-52940045D01*
X162442857Y-52940045D02*
X162480952Y-52901950D01*
X162480952Y-52901950D02*
X162442857Y-52863855D01*
X162442857Y-52863855D02*
X162442857Y-52940045D01*
X163395237Y-53435283D02*
X163776190Y-53435283D01*
X163319047Y-53663855D02*
X163585714Y-52863855D01*
X163585714Y-52863855D02*
X163852380Y-53663855D01*
X164461904Y-53130521D02*
X164461904Y-53663855D01*
X164119047Y-53130521D02*
X164119047Y-53549569D01*
X164119047Y-53549569D02*
X164157142Y-53625760D01*
X164157142Y-53625760D02*
X164233332Y-53663855D01*
X164233332Y-53663855D02*
X164347618Y-53663855D01*
X164347618Y-53663855D02*
X164423809Y-53625760D01*
X164423809Y-53625760D02*
X164461904Y-53587664D01*
X164728571Y-53130521D02*
X165033333Y-53130521D01*
X164842857Y-52863855D02*
X164842857Y-53549569D01*
X164842857Y-53549569D02*
X164880952Y-53625760D01*
X164880952Y-53625760D02*
X164957142Y-53663855D01*
X164957142Y-53663855D02*
X165033333Y-53663855D01*
X165300000Y-53663855D02*
X165300000Y-52863855D01*
X165642857Y-53663855D02*
X165642857Y-53244807D01*
X165642857Y-53244807D02*
X165604762Y-53168617D01*
X165604762Y-53168617D02*
X165528571Y-53130521D01*
X165528571Y-53130521D02*
X165414285Y-53130521D01*
X165414285Y-53130521D02*
X165338095Y-53168617D01*
X165338095Y-53168617D02*
X165300000Y-53206712D01*
X166557143Y-52863855D02*
X167052381Y-52863855D01*
X167052381Y-52863855D02*
X166785715Y-53168617D01*
X166785715Y-53168617D02*
X166900000Y-53168617D01*
X166900000Y-53168617D02*
X166976191Y-53206712D01*
X166976191Y-53206712D02*
X167014286Y-53244807D01*
X167014286Y-53244807D02*
X167052381Y-53320998D01*
X167052381Y-53320998D02*
X167052381Y-53511474D01*
X167052381Y-53511474D02*
X167014286Y-53587664D01*
X167014286Y-53587664D02*
X166976191Y-53625760D01*
X166976191Y-53625760D02*
X166900000Y-53663855D01*
X166900000Y-53663855D02*
X166671429Y-53663855D01*
X166671429Y-53663855D02*
X166595238Y-53625760D01*
X166595238Y-53625760D02*
X166557143Y-53587664D01*
X167395239Y-53587664D02*
X167433334Y-53625760D01*
X167433334Y-53625760D02*
X167395239Y-53663855D01*
X167395239Y-53663855D02*
X167357143Y-53625760D01*
X167357143Y-53625760D02*
X167395239Y-53587664D01*
X167395239Y-53587664D02*
X167395239Y-53663855D01*
X167928572Y-52863855D02*
X168004762Y-52863855D01*
X168004762Y-52863855D02*
X168080953Y-52901950D01*
X168080953Y-52901950D02*
X168119048Y-52940045D01*
X168119048Y-52940045D02*
X168157143Y-53016236D01*
X168157143Y-53016236D02*
X168195238Y-53168617D01*
X168195238Y-53168617D02*
X168195238Y-53359093D01*
X168195238Y-53359093D02*
X168157143Y-53511474D01*
X168157143Y-53511474D02*
X168119048Y-53587664D01*
X168119048Y-53587664D02*
X168080953Y-53625760D01*
X168080953Y-53625760D02*
X168004762Y-53663855D01*
X168004762Y-53663855D02*
X167928572Y-53663855D01*
X167928572Y-53663855D02*
X167852381Y-53625760D01*
X167852381Y-53625760D02*
X167814286Y-53587664D01*
X167814286Y-53587664D02*
X167776191Y-53511474D01*
X167776191Y-53511474D02*
X167738095Y-53359093D01*
X167738095Y-53359093D02*
X167738095Y-53168617D01*
X167738095Y-53168617D02*
X167776191Y-53016236D01*
X167776191Y-53016236D02*
X167814286Y-52940045D01*
X167814286Y-52940045D02*
X167852381Y-52901950D01*
X167852381Y-52901950D02*
X167928572Y-52863855D01*
D11*
X144095238Y-22454819D02*
X144095238Y-21454819D01*
X144095238Y-21454819D02*
X144666666Y-22454819D01*
X144666666Y-22454819D02*
X144666666Y-21454819D01*
X145142857Y-22454819D02*
X145142857Y-21454819D01*
X145809523Y-21454819D02*
X145999999Y-21454819D01*
X145999999Y-21454819D02*
X146095237Y-21502438D01*
X146095237Y-21502438D02*
X146190475Y-21597676D01*
X146190475Y-21597676D02*
X146238094Y-21788152D01*
X146238094Y-21788152D02*
X146238094Y-22121485D01*
X146238094Y-22121485D02*
X146190475Y-22311961D01*
X146190475Y-22311961D02*
X146095237Y-22407200D01*
X146095237Y-22407200D02*
X145999999Y-22454819D01*
X145999999Y-22454819D02*
X145809523Y-22454819D01*
X145809523Y-22454819D02*
X145714285Y-22407200D01*
X145714285Y-22407200D02*
X145619047Y-22311961D01*
X145619047Y-22311961D02*
X145571428Y-22121485D01*
X145571428Y-22121485D02*
X145571428Y-21788152D01*
X145571428Y-21788152D02*
X145619047Y-21597676D01*
X145619047Y-21597676D02*
X145714285Y-21502438D01*
X145714285Y-21502438D02*
X145809523Y-21454819D01*
X147428571Y-22454819D02*
X147428571Y-21454819D01*
X147428571Y-21454819D02*
X147761904Y-22169104D01*
X147761904Y-22169104D02*
X148095237Y-21454819D01*
X148095237Y-21454819D02*
X148095237Y-22454819D01*
X148904761Y-21931009D02*
X148571428Y-21931009D01*
X148571428Y-22454819D02*
X148571428Y-21454819D01*
X148571428Y-21454819D02*
X149047618Y-21454819D01*
X149428571Y-22454819D02*
X149428571Y-21788152D01*
X149428571Y-21454819D02*
X149380952Y-21502438D01*
X149380952Y-21502438D02*
X149428571Y-21550057D01*
X149428571Y-21550057D02*
X149476190Y-21502438D01*
X149476190Y-21502438D02*
X149428571Y-21454819D01*
X149428571Y-21454819D02*
X149428571Y-21550057D01*
X150619047Y-21550057D02*
X150666666Y-21502438D01*
X150666666Y-21502438D02*
X150761904Y-21454819D01*
X150761904Y-21454819D02*
X150999999Y-21454819D01*
X150999999Y-21454819D02*
X151095237Y-21502438D01*
X151095237Y-21502438D02*
X151142856Y-21550057D01*
X151142856Y-21550057D02*
X151190475Y-21645295D01*
X151190475Y-21645295D02*
X151190475Y-21740533D01*
X151190475Y-21740533D02*
X151142856Y-21883390D01*
X151142856Y-21883390D02*
X150571428Y-22454819D01*
X150571428Y-22454819D02*
X151190475Y-22454819D01*
X151523809Y-22454819D02*
X152047618Y-21788152D01*
X151523809Y-21788152D02*
X152047618Y-22454819D01*
X152380952Y-21550057D02*
X152428571Y-21502438D01*
X152428571Y-21502438D02*
X152523809Y-21454819D01*
X152523809Y-21454819D02*
X152761904Y-21454819D01*
X152761904Y-21454819D02*
X152857142Y-21502438D01*
X152857142Y-21502438D02*
X152904761Y-21550057D01*
X152904761Y-21550057D02*
X152952380Y-21645295D01*
X152952380Y-21645295D02*
X152952380Y-21740533D01*
X152952380Y-21740533D02*
X152904761Y-21883390D01*
X152904761Y-21883390D02*
X152333333Y-22454819D01*
X152333333Y-22454819D02*
X152952380Y-22454819D01*
%TO.C,B3-J1*%
D12*
X151200000Y-45200000D02*
X156340000Y-45200000D01*
X156340000Y-52880000D01*
X151200000Y-52880000D01*
X151200000Y-45200000D01*
D13*
X152000000Y-45700000D02*
G75*
G02*
X151400000Y-45700000I-300000J0D01*
G01*
X151400000Y-45700000D02*
G75*
G02*
X152000000Y-45700000I300000J0D01*
G01*
%TO.C,B2-U1*%
X139600000Y-47750000D02*
X139600000Y-47950000D01*
X139600000Y-47750000D02*
X139800000Y-47750000D01*
D14*
X139587500Y-48250000D02*
G75*
G02*
X139312500Y-48250000I-137500J0D01*
G01*
X139312500Y-48250000D02*
G75*
G02*
X139587500Y-48250000I137500J0D01*
G01*
%TO.C,B1-J1*%
D12*
X151200000Y-31200000D02*
X156340000Y-31200000D01*
X156340000Y-38880000D01*
X151200000Y-38880000D01*
X151200000Y-31200000D01*
D13*
X152000000Y-31700000D02*
G75*
G02*
X151400000Y-31700000I-300000J0D01*
G01*
X151400000Y-31700000D02*
G75*
G02*
X152000000Y-31700000I300000J0D01*
G01*
%TO.C,B0-J1*%
D12*
X129200000Y-31200000D02*
X134340000Y-31200000D01*
X134340000Y-38880000D01*
X129200000Y-38880000D01*
X129200000Y-31200000D01*
D13*
X130000000Y-31700000D02*
G75*
G02*
X129400000Y-31700000I-300000J0D01*
G01*
X129400000Y-31700000D02*
G75*
G02*
X130000000Y-31700000I300000J0D01*
G01*
%TO.C,B3-U1*%
X161600000Y-47750000D02*
X161600000Y-47950000D01*
X161600000Y-47750000D02*
X161800000Y-47750000D01*
D14*
X161587500Y-48250000D02*
G75*
G02*
X161312500Y-48250000I-137500J0D01*
G01*
X161312500Y-48250000D02*
G75*
G02*
X161587500Y-48250000I137500J0D01*
G01*
%TO.C,B1-U1*%
D13*
X161600000Y-33750000D02*
X161600000Y-33950000D01*
X161600000Y-33750000D02*
X161800000Y-33750000D01*
D14*
X161587500Y-34250000D02*
G75*
G02*
X161312500Y-34250000I-137500J0D01*
G01*
X161312500Y-34250000D02*
G75*
G02*
X161587500Y-34250000I137500J0D01*
G01*
%TO.C,B0-U1*%
D13*
X139600000Y-33750000D02*
X139600000Y-33950000D01*
X139600000Y-33750000D02*
X139800000Y-33750000D01*
D14*
X139587500Y-34250000D02*
G75*
G02*
X139312500Y-34250000I-137500J0D01*
G01*
X139312500Y-34250000D02*
G75*
G02*
X139587500Y-34250000I137500J0D01*
G01*
%TO.C,B2-J1*%
D12*
X129200000Y-45200000D02*
X134340000Y-45200000D01*
X134340000Y-52880000D01*
X129200000Y-52880000D01*
X129200000Y-45200000D01*
D13*
X130000000Y-45700000D02*
G75*
G02*
X129400000Y-45700000I-300000J0D01*
G01*
X129400000Y-45700000D02*
G75*
G02*
X130000000Y-45700000I300000J0D01*
G01*
%TD*%
M02*
